G04 #@! TF.FileFunction,Legend,Bot*
%FSLAX46Y46*%
G04 Gerber Fmt 4.6, Leading zero omitted, Abs format (unit mm)*
G04 Created by KiCad (PCBNEW 4.0.7-e2-6376~61~ubuntu18.04.1) date Sat Nov 30 19:21:56 2019*
%MOMM*%
%LPD*%
G01*
G04 APERTURE LIST*
%ADD10C,0.100000*%
%ADD11C,0.304800*%
%ADD12C,0.254000*%
%ADD13C,0.010000*%
G04 APERTURE END LIST*
D10*
D11*
X155883429Y-90024857D02*
X155665715Y-90097429D01*
X155302858Y-90097429D01*
X155157715Y-90024857D01*
X155085144Y-89952286D01*
X155012572Y-89807143D01*
X155012572Y-89662000D01*
X155085144Y-89516857D01*
X155157715Y-89444286D01*
X155302858Y-89371714D01*
X155593144Y-89299143D01*
X155738286Y-89226571D01*
X155810858Y-89154000D01*
X155883429Y-89008857D01*
X155883429Y-88863714D01*
X155810858Y-88718571D01*
X155738286Y-88646000D01*
X155593144Y-88573429D01*
X155230286Y-88573429D01*
X155012572Y-88646000D01*
X153778857Y-90024857D02*
X153924000Y-90097429D01*
X154214286Y-90097429D01*
X154359429Y-90024857D01*
X154432000Y-89879714D01*
X154432000Y-89299143D01*
X154359429Y-89154000D01*
X154214286Y-89081429D01*
X153924000Y-89081429D01*
X153778857Y-89154000D01*
X153706286Y-89299143D01*
X153706286Y-89444286D01*
X154432000Y-89589429D01*
X152472571Y-90024857D02*
X152617714Y-90097429D01*
X152908000Y-90097429D01*
X153053143Y-90024857D01*
X153125714Y-89879714D01*
X153125714Y-89299143D01*
X153053143Y-89154000D01*
X152908000Y-89081429D01*
X152617714Y-89081429D01*
X152472571Y-89154000D01*
X152400000Y-89299143D01*
X152400000Y-89444286D01*
X153125714Y-89589429D01*
X151819428Y-90024857D02*
X151674285Y-90097429D01*
X151384000Y-90097429D01*
X151238857Y-90024857D01*
X151166285Y-89879714D01*
X151166285Y-89807143D01*
X151238857Y-89662000D01*
X151384000Y-89589429D01*
X151601714Y-89589429D01*
X151746857Y-89516857D01*
X151819428Y-89371714D01*
X151819428Y-89299143D01*
X151746857Y-89154000D01*
X151601714Y-89081429D01*
X151384000Y-89081429D01*
X151238857Y-89154000D01*
X149860000Y-90097429D02*
X149860000Y-89299143D01*
X149932571Y-89154000D01*
X150077714Y-89081429D01*
X150368000Y-89081429D01*
X150513143Y-89154000D01*
X149860000Y-90024857D02*
X150005143Y-90097429D01*
X150368000Y-90097429D01*
X150513143Y-90024857D01*
X150585714Y-89879714D01*
X150585714Y-89734571D01*
X150513143Y-89589429D01*
X150368000Y-89516857D01*
X150005143Y-89516857D01*
X149860000Y-89444286D01*
X149279429Y-89081429D02*
X148989143Y-90097429D01*
X148698857Y-89371714D01*
X148408572Y-90097429D01*
X148118286Y-89081429D01*
X146594286Y-88573429D02*
X145723429Y-88573429D01*
X146158858Y-90097429D02*
X146158858Y-88573429D01*
X145215429Y-90097429D02*
X145215429Y-89081429D01*
X145215429Y-89371714D02*
X145142857Y-89226571D01*
X145070286Y-89154000D01*
X144925143Y-89081429D01*
X144780000Y-89081429D01*
X143618857Y-90097429D02*
X143618857Y-89299143D01*
X143691428Y-89154000D01*
X143836571Y-89081429D01*
X144126857Y-89081429D01*
X144272000Y-89154000D01*
X143618857Y-90024857D02*
X143764000Y-90097429D01*
X144126857Y-90097429D01*
X144272000Y-90024857D01*
X144344571Y-89879714D01*
X144344571Y-89734571D01*
X144272000Y-89589429D01*
X144126857Y-89516857D01*
X143764000Y-89516857D01*
X143618857Y-89444286D01*
X142240000Y-90024857D02*
X142385143Y-90097429D01*
X142675429Y-90097429D01*
X142820571Y-90024857D01*
X142893143Y-89952286D01*
X142965714Y-89807143D01*
X142965714Y-89371714D01*
X142893143Y-89226571D01*
X142820571Y-89154000D01*
X142675429Y-89081429D01*
X142385143Y-89081429D01*
X142240000Y-89154000D01*
X141586857Y-90097429D02*
X141586857Y-88573429D01*
X141441714Y-89516857D02*
X141006285Y-90097429D01*
X141006285Y-89081429D02*
X141586857Y-89662000D01*
X139772571Y-90024857D02*
X139917714Y-90097429D01*
X140208000Y-90097429D01*
X140353143Y-90024857D01*
X140425714Y-89879714D01*
X140425714Y-89299143D01*
X140353143Y-89154000D01*
X140208000Y-89081429D01*
X139917714Y-89081429D01*
X139772571Y-89154000D01*
X139700000Y-89299143D01*
X139700000Y-89444286D01*
X140425714Y-89589429D01*
X139046857Y-90097429D02*
X139046857Y-89081429D01*
X139046857Y-89371714D02*
X138974285Y-89226571D01*
X138901714Y-89154000D01*
X138756571Y-89081429D01*
X138611428Y-89081429D01*
D12*
X163122429Y-124913571D02*
X163182905Y-124974048D01*
X163364334Y-125034524D01*
X163485286Y-125034524D01*
X163666714Y-124974048D01*
X163787667Y-124853095D01*
X163848143Y-124732143D01*
X163908619Y-124490238D01*
X163908619Y-124308810D01*
X163848143Y-124066905D01*
X163787667Y-123945952D01*
X163666714Y-123825000D01*
X163485286Y-123764524D01*
X163364334Y-123764524D01*
X163182905Y-123825000D01*
X163122429Y-123885476D01*
X162396714Y-125034524D02*
X162517667Y-124974048D01*
X162578143Y-124913571D01*
X162638619Y-124792619D01*
X162638619Y-124429762D01*
X162578143Y-124308810D01*
X162517667Y-124248333D01*
X162396714Y-124187857D01*
X162215286Y-124187857D01*
X162094334Y-124248333D01*
X162033857Y-124308810D01*
X161973381Y-124429762D01*
X161973381Y-124792619D01*
X162033857Y-124913571D01*
X162094334Y-124974048D01*
X162215286Y-125034524D01*
X162396714Y-125034524D01*
X161429095Y-124187857D02*
X161429095Y-125457857D01*
X161429095Y-124248333D02*
X161308143Y-124187857D01*
X161066238Y-124187857D01*
X160945286Y-124248333D01*
X160884809Y-124308810D01*
X160824333Y-124429762D01*
X160824333Y-124792619D01*
X160884809Y-124913571D01*
X160945286Y-124974048D01*
X161066238Y-125034524D01*
X161308143Y-125034524D01*
X161429095Y-124974048D01*
X160400999Y-124187857D02*
X160098618Y-125034524D01*
X159796238Y-124187857D02*
X160098618Y-125034524D01*
X160219571Y-125336905D01*
X160280047Y-125397381D01*
X160400999Y-125457857D01*
X159312428Y-125034524D02*
X159312428Y-124187857D01*
X159312428Y-124429762D02*
X159251952Y-124308810D01*
X159191476Y-124248333D01*
X159070523Y-124187857D01*
X158949571Y-124187857D01*
X158526238Y-125034524D02*
X158526238Y-124187857D01*
X158526238Y-123764524D02*
X158586714Y-123825000D01*
X158526238Y-123885476D01*
X158465762Y-123825000D01*
X158526238Y-123764524D01*
X158526238Y-123885476D01*
X157377190Y-124187857D02*
X157377190Y-125215952D01*
X157437667Y-125336905D01*
X157498143Y-125397381D01*
X157619095Y-125457857D01*
X157800524Y-125457857D01*
X157921476Y-125397381D01*
X157377190Y-124974048D02*
X157498143Y-125034524D01*
X157740047Y-125034524D01*
X157861000Y-124974048D01*
X157921476Y-124913571D01*
X157981952Y-124792619D01*
X157981952Y-124429762D01*
X157921476Y-124308810D01*
X157861000Y-124248333D01*
X157740047Y-124187857D01*
X157498143Y-124187857D01*
X157377190Y-124248333D01*
X156772428Y-125034524D02*
X156772428Y-123764524D01*
X156228142Y-125034524D02*
X156228142Y-124369286D01*
X156288619Y-124248333D01*
X156409571Y-124187857D01*
X156590999Y-124187857D01*
X156711952Y-124248333D01*
X156772428Y-124308810D01*
X155804809Y-124187857D02*
X155320999Y-124187857D01*
X155623380Y-123764524D02*
X155623380Y-124853095D01*
X155562904Y-124974048D01*
X155441951Y-125034524D01*
X155320999Y-125034524D01*
X152901952Y-124066905D02*
X153022904Y-124006429D01*
X153264809Y-124006429D01*
X153385761Y-124066905D01*
X153506714Y-124187857D01*
X153567190Y-124308810D01*
X153567190Y-124550714D01*
X153506714Y-124671667D01*
X153385761Y-124792619D01*
X153264809Y-124853095D01*
X153022904Y-124853095D01*
X152901952Y-124792619D01*
X153143857Y-123583095D02*
X153446238Y-123643571D01*
X153748618Y-123825000D01*
X153930047Y-124127381D01*
X153990523Y-124429762D01*
X153930047Y-124732143D01*
X153748618Y-125034524D01*
X153446238Y-125215952D01*
X153143857Y-125276429D01*
X152841476Y-125215952D01*
X152539095Y-125034524D01*
X152357666Y-124732143D01*
X152297190Y-124429762D01*
X152357666Y-124127381D01*
X152539095Y-123825000D01*
X152841476Y-123643571D01*
X153143857Y-123583095D01*
X150845761Y-123885476D02*
X150785285Y-123825000D01*
X150664333Y-123764524D01*
X150361952Y-123764524D01*
X150240999Y-123825000D01*
X150180523Y-123885476D01*
X150120047Y-124006429D01*
X150120047Y-124127381D01*
X150180523Y-124308810D01*
X150906237Y-125034524D01*
X150120047Y-125034524D01*
X149333856Y-123764524D02*
X149212904Y-123764524D01*
X149091952Y-123825000D01*
X149031475Y-123885476D01*
X148970999Y-124006429D01*
X148910523Y-124248333D01*
X148910523Y-124550714D01*
X148970999Y-124792619D01*
X149031475Y-124913571D01*
X149091952Y-124974048D01*
X149212904Y-125034524D01*
X149333856Y-125034524D01*
X149454809Y-124974048D01*
X149515285Y-124913571D01*
X149575761Y-124792619D01*
X149636237Y-124550714D01*
X149636237Y-124248333D01*
X149575761Y-124006429D01*
X149515285Y-123885476D01*
X149454809Y-123825000D01*
X149333856Y-123764524D01*
X147700999Y-125034524D02*
X148426713Y-125034524D01*
X148063856Y-125034524D02*
X148063856Y-123764524D01*
X148184808Y-123945952D01*
X148305761Y-124066905D01*
X148426713Y-124127381D01*
X147096237Y-125034524D02*
X146854332Y-125034524D01*
X146733380Y-124974048D01*
X146672904Y-124913571D01*
X146551951Y-124732143D01*
X146491475Y-124490238D01*
X146491475Y-124006429D01*
X146551951Y-123885476D01*
X146612427Y-123825000D01*
X146733380Y-123764524D01*
X146975284Y-123764524D01*
X147096237Y-123825000D01*
X147156713Y-123885476D01*
X147217189Y-124006429D01*
X147217189Y-124308810D01*
X147156713Y-124429762D01*
X147096237Y-124490238D01*
X146975284Y-124550714D01*
X146733380Y-124550714D01*
X146612427Y-124490238D01*
X146551951Y-124429762D01*
X146491475Y-124308810D01*
X144979570Y-125034524D02*
X144979570Y-123764524D01*
X144858618Y-124550714D02*
X144495761Y-125034524D01*
X144495761Y-124187857D02*
X144979570Y-124671667D01*
X144072427Y-124187857D02*
X143830523Y-125034524D01*
X143588618Y-124429762D01*
X143346713Y-125034524D01*
X143104808Y-124187857D01*
X142137190Y-124974048D02*
X142258142Y-125034524D01*
X142500047Y-125034524D01*
X142620999Y-124974048D01*
X142681475Y-124853095D01*
X142681475Y-124369286D01*
X142620999Y-124248333D01*
X142500047Y-124187857D01*
X142258142Y-124187857D01*
X142137190Y-124248333D01*
X142076713Y-124369286D01*
X142076713Y-124490238D01*
X142681475Y-124611190D01*
X141532428Y-124187857D02*
X141532428Y-125034524D01*
X141532428Y-124308810D02*
X141471952Y-124248333D01*
X141350999Y-124187857D01*
X141169571Y-124187857D01*
X141048619Y-124248333D01*
X140988142Y-124369286D01*
X140988142Y-125034524D01*
X139839094Y-125034524D02*
X139839094Y-123764524D01*
X139839094Y-124974048D02*
X139960047Y-125034524D01*
X140201951Y-125034524D01*
X140322904Y-124974048D01*
X140383380Y-124913571D01*
X140443856Y-124792619D01*
X140443856Y-124429762D01*
X140383380Y-124308810D01*
X140322904Y-124248333D01*
X140201951Y-124187857D01*
X139960047Y-124187857D01*
X139839094Y-124248333D01*
X138750523Y-124974048D02*
X138871475Y-125034524D01*
X139113380Y-125034524D01*
X139234332Y-124974048D01*
X139294808Y-124853095D01*
X139294808Y-124369286D01*
X139234332Y-124248333D01*
X139113380Y-124187857D01*
X138871475Y-124187857D01*
X138750523Y-124248333D01*
X138690046Y-124369286D01*
X138690046Y-124490238D01*
X139294808Y-124611190D01*
X138145761Y-124187857D02*
X138145761Y-125034524D01*
X138145761Y-124308810D02*
X138085285Y-124248333D01*
X137964332Y-124187857D01*
X137782904Y-124187857D01*
X137661952Y-124248333D01*
X137601475Y-124369286D01*
X137601475Y-125034524D01*
X136452427Y-125034524D02*
X136452427Y-124369286D01*
X136512904Y-124248333D01*
X136633856Y-124187857D01*
X136875761Y-124187857D01*
X136996713Y-124248333D01*
X136452427Y-124974048D02*
X136573380Y-125034524D01*
X136875761Y-125034524D01*
X136996713Y-124974048D01*
X137057189Y-124853095D01*
X137057189Y-124732143D01*
X136996713Y-124611190D01*
X136875761Y-124550714D01*
X136573380Y-124550714D01*
X136452427Y-124490238D01*
X135847665Y-125034524D02*
X135847665Y-124187857D01*
X135847665Y-124429762D02*
X135787189Y-124308810D01*
X135726713Y-124248333D01*
X135605760Y-124187857D01*
X135484808Y-124187857D01*
X135061475Y-125034524D02*
X135061475Y-124187857D01*
X135061475Y-124308810D02*
X135000999Y-124248333D01*
X134880046Y-124187857D01*
X134698618Y-124187857D01*
X134577666Y-124248333D01*
X134517189Y-124369286D01*
X134517189Y-125034524D01*
X134517189Y-124369286D02*
X134456713Y-124248333D01*
X134335761Y-124187857D01*
X134154332Y-124187857D01*
X134033380Y-124248333D01*
X133972904Y-124369286D01*
X133972904Y-125034524D01*
X133186713Y-125034524D02*
X133307666Y-124974048D01*
X133368142Y-124913571D01*
X133428618Y-124792619D01*
X133428618Y-124429762D01*
X133368142Y-124308810D01*
X133307666Y-124248333D01*
X133186713Y-124187857D01*
X133005285Y-124187857D01*
X132884333Y-124248333D01*
X132823856Y-124308810D01*
X132763380Y-124429762D01*
X132763380Y-124792619D01*
X132823856Y-124913571D01*
X132884333Y-124974048D01*
X133005285Y-125034524D01*
X133186713Y-125034524D01*
X161807797Y-113870619D02*
X162155777Y-113386810D01*
X162404334Y-113870619D02*
X162404334Y-112854619D01*
X162006642Y-112854619D01*
X161907220Y-112903000D01*
X161857508Y-112951381D01*
X161807797Y-113048143D01*
X161807797Y-113193286D01*
X161857508Y-113290048D01*
X161907220Y-113338429D01*
X162006642Y-113386810D01*
X162404334Y-113386810D01*
X160962702Y-113822238D02*
X161062125Y-113870619D01*
X161260971Y-113870619D01*
X161360394Y-113822238D01*
X161410105Y-113725476D01*
X161410105Y-113338429D01*
X161360394Y-113241667D01*
X161260971Y-113193286D01*
X161062125Y-113193286D01*
X160962702Y-113241667D01*
X160912991Y-113338429D01*
X160912991Y-113435190D01*
X161410105Y-113531952D01*
X160316454Y-113870619D02*
X160415876Y-113822238D01*
X160465588Y-113725476D01*
X160465588Y-112854619D01*
X159521070Y-113822238D02*
X159620493Y-113870619D01*
X159819339Y-113870619D01*
X159918762Y-113822238D01*
X159968473Y-113725476D01*
X159968473Y-113338429D01*
X159918762Y-113241667D01*
X159819339Y-113193286D01*
X159620493Y-113193286D01*
X159521070Y-113241667D01*
X159471359Y-113338429D01*
X159471359Y-113435190D01*
X159968473Y-113531952D01*
X158576553Y-113870619D02*
X158576553Y-113338429D01*
X158626264Y-113241667D01*
X158725687Y-113193286D01*
X158924533Y-113193286D01*
X159023956Y-113241667D01*
X158576553Y-113822238D02*
X158675976Y-113870619D01*
X158924533Y-113870619D01*
X159023956Y-113822238D01*
X159073667Y-113725476D01*
X159073667Y-113628714D01*
X159023956Y-113531952D01*
X158924533Y-113483571D01*
X158675976Y-113483571D01*
X158576553Y-113435190D01*
X158129150Y-113822238D02*
X158029727Y-113870619D01*
X157830882Y-113870619D01*
X157731459Y-113822238D01*
X157681747Y-113725476D01*
X157681747Y-113677095D01*
X157731459Y-113580333D01*
X157830882Y-113531952D01*
X157980016Y-113531952D01*
X158079439Y-113483571D01*
X158129150Y-113386810D01*
X158129150Y-113338429D01*
X158079439Y-113241667D01*
X157980016Y-113193286D01*
X157830882Y-113193286D01*
X157731459Y-113241667D01*
X156836653Y-113822238D02*
X156936076Y-113870619D01*
X157134922Y-113870619D01*
X157234345Y-113822238D01*
X157284056Y-113725476D01*
X157284056Y-113338429D01*
X157234345Y-113241667D01*
X157134922Y-113193286D01*
X156936076Y-113193286D01*
X156836653Y-113241667D01*
X156786942Y-113338429D01*
X156786942Y-113435190D01*
X157284056Y-113531952D01*
X155892136Y-113870619D02*
X155892136Y-112854619D01*
X155892136Y-113822238D02*
X155991559Y-113870619D01*
X156190405Y-113870619D01*
X156289827Y-113822238D01*
X156339539Y-113773857D01*
X156389250Y-113677095D01*
X156389250Y-113386810D01*
X156339539Y-113290048D01*
X156289827Y-113241667D01*
X156190405Y-113193286D01*
X155991559Y-113193286D01*
X155892136Y-113241667D01*
X154152236Y-113193286D02*
X154152236Y-113870619D01*
X154599639Y-113193286D02*
X154599639Y-113725476D01*
X154549927Y-113822238D01*
X154450505Y-113870619D01*
X154301370Y-113870619D01*
X154201947Y-113822238D01*
X154152236Y-113773857D01*
X153655122Y-113193286D02*
X153655122Y-113870619D01*
X153655122Y-113290048D02*
X153605410Y-113241667D01*
X153505988Y-113193286D01*
X153356853Y-113193286D01*
X153257430Y-113241667D01*
X153207719Y-113338429D01*
X153207719Y-113870619D01*
X152263202Y-113870619D02*
X152263202Y-112854619D01*
X152263202Y-113822238D02*
X152362625Y-113870619D01*
X152561471Y-113870619D01*
X152660893Y-113822238D01*
X152710605Y-113773857D01*
X152760316Y-113677095D01*
X152760316Y-113386810D01*
X152710605Y-113290048D01*
X152660893Y-113241667D01*
X152561471Y-113193286D01*
X152362625Y-113193286D01*
X152263202Y-113241667D01*
X151368396Y-113822238D02*
X151467819Y-113870619D01*
X151666665Y-113870619D01*
X151766088Y-113822238D01*
X151815799Y-113725476D01*
X151815799Y-113338429D01*
X151766088Y-113241667D01*
X151666665Y-113193286D01*
X151467819Y-113193286D01*
X151368396Y-113241667D01*
X151318685Y-113338429D01*
X151318685Y-113435190D01*
X151815799Y-113531952D01*
X150871282Y-113870619D02*
X150871282Y-113193286D01*
X150871282Y-113386810D02*
X150821570Y-113290048D01*
X150771859Y-113241667D01*
X150672436Y-113193286D01*
X150573013Y-113193286D01*
X148882824Y-112903000D02*
X148982247Y-112854619D01*
X149131381Y-112854619D01*
X149280516Y-112903000D01*
X149379938Y-112999762D01*
X149429650Y-113096524D01*
X149479361Y-113290048D01*
X149479361Y-113435190D01*
X149429650Y-113628714D01*
X149379938Y-113725476D01*
X149280516Y-113822238D01*
X149131381Y-113870619D01*
X149031958Y-113870619D01*
X148882824Y-113822238D01*
X148833113Y-113773857D01*
X148833113Y-113435190D01*
X149031958Y-113435190D01*
X148385710Y-113870619D02*
X148385710Y-112854619D01*
X147789173Y-113870619D01*
X147789173Y-112854619D01*
X147292059Y-112854619D02*
X147292059Y-113677095D01*
X147242347Y-113773857D01*
X147192636Y-113822238D01*
X147093213Y-113870619D01*
X146894367Y-113870619D01*
X146794945Y-113822238D01*
X146745233Y-113773857D01*
X146695522Y-113677095D01*
X146695522Y-112854619D01*
X145452736Y-112806238D02*
X146347542Y-114112524D01*
X144557931Y-112903000D02*
X144657354Y-112854619D01*
X144806488Y-112854619D01*
X144955623Y-112903000D01*
X145055045Y-112999762D01*
X145104757Y-113096524D01*
X145154468Y-113290048D01*
X145154468Y-113435190D01*
X145104757Y-113628714D01*
X145055045Y-113725476D01*
X144955623Y-113822238D01*
X144806488Y-113870619D01*
X144707065Y-113870619D01*
X144557931Y-113822238D01*
X144508220Y-113773857D01*
X144508220Y-113435190D01*
X144707065Y-113435190D01*
X144060817Y-113870619D02*
X144060817Y-112854619D01*
X143663125Y-112854619D01*
X143563703Y-112903000D01*
X143513991Y-112951381D01*
X143464280Y-113048143D01*
X143464280Y-113193286D01*
X143513991Y-113290048D01*
X143563703Y-113338429D01*
X143663125Y-113386810D01*
X144060817Y-113386810D01*
X142519763Y-113870619D02*
X143016877Y-113870619D01*
X143016877Y-112854619D01*
X141475823Y-112854619D02*
X140829574Y-112854619D01*
X141177554Y-113241667D01*
X141028420Y-113241667D01*
X140928997Y-113290048D01*
X140879286Y-113338429D01*
X140829574Y-113435190D01*
X140829574Y-113677095D01*
X140879286Y-113773857D01*
X140928997Y-113822238D01*
X141028420Y-113870619D01*
X141326688Y-113870619D01*
X141426111Y-113822238D01*
X141475823Y-113773857D01*
X139089674Y-113870619D02*
X139586788Y-113870619D01*
X139586788Y-112854619D01*
X138741694Y-113870619D02*
X138741694Y-113193286D01*
X138741694Y-112854619D02*
X138791405Y-112903000D01*
X138741694Y-112951381D01*
X138691982Y-112903000D01*
X138741694Y-112854619D01*
X138741694Y-112951381D01*
X137797177Y-113822238D02*
X137896600Y-113870619D01*
X138095446Y-113870619D01*
X138194868Y-113822238D01*
X138244580Y-113773857D01*
X138294291Y-113677095D01*
X138294291Y-113386810D01*
X138244580Y-113290048D01*
X138194868Y-113241667D01*
X138095446Y-113193286D01*
X137896600Y-113193286D01*
X137797177Y-113241667D01*
X136952082Y-113822238D02*
X137051505Y-113870619D01*
X137250351Y-113870619D01*
X137349774Y-113822238D01*
X137399485Y-113725476D01*
X137399485Y-113338429D01*
X137349774Y-113241667D01*
X137250351Y-113193286D01*
X137051505Y-113193286D01*
X136952082Y-113241667D01*
X136902371Y-113338429D01*
X136902371Y-113435190D01*
X137399485Y-113531952D01*
X136454968Y-113193286D02*
X136454968Y-113870619D01*
X136454968Y-113290048D02*
X136405256Y-113241667D01*
X136305834Y-113193286D01*
X136156699Y-113193286D01*
X136057276Y-113241667D01*
X136007565Y-113338429D01*
X136007565Y-113870619D01*
X135560162Y-113822238D02*
X135460739Y-113870619D01*
X135261894Y-113870619D01*
X135162471Y-113822238D01*
X135112759Y-113725476D01*
X135112759Y-113677095D01*
X135162471Y-113580333D01*
X135261894Y-113531952D01*
X135411028Y-113531952D01*
X135510451Y-113483571D01*
X135560162Y-113386810D01*
X135560162Y-113338429D01*
X135510451Y-113241667D01*
X135411028Y-113193286D01*
X135261894Y-113193286D01*
X135162471Y-113241667D01*
X134267665Y-113822238D02*
X134367088Y-113870619D01*
X134565934Y-113870619D01*
X134665357Y-113822238D01*
X134715068Y-113725476D01*
X134715068Y-113338429D01*
X134665357Y-113241667D01*
X134565934Y-113193286D01*
X134367088Y-113193286D01*
X134267665Y-113241667D01*
X134217954Y-113338429D01*
X134217954Y-113435190D01*
X134715068Y-113531952D01*
X163696829Y-115648619D02*
X163696829Y-114632619D01*
X163249426Y-115648619D02*
X163249426Y-115116429D01*
X163299137Y-115019667D01*
X163398560Y-114971286D01*
X163547695Y-114971286D01*
X163647117Y-115019667D01*
X163696829Y-115068048D01*
X162901446Y-114971286D02*
X162503755Y-114971286D01*
X162752312Y-114632619D02*
X162752312Y-115503476D01*
X162702600Y-115600238D01*
X162603178Y-115648619D01*
X162503755Y-115648619D01*
X162304909Y-114971286D02*
X161907218Y-114971286D01*
X162155775Y-114632619D02*
X162155775Y-115503476D01*
X162106063Y-115600238D01*
X162006641Y-115648619D01*
X161907218Y-115648619D01*
X161559238Y-114971286D02*
X161559238Y-115987286D01*
X161559238Y-115019667D02*
X161459815Y-114971286D01*
X161260969Y-114971286D01*
X161161546Y-115019667D01*
X161111835Y-115068048D01*
X161062124Y-115164810D01*
X161062124Y-115455095D01*
X161111835Y-115551857D01*
X161161546Y-115600238D01*
X161260969Y-115648619D01*
X161459815Y-115648619D01*
X161559238Y-115600238D01*
X160664432Y-115600238D02*
X160565009Y-115648619D01*
X160366164Y-115648619D01*
X160266741Y-115600238D01*
X160217029Y-115503476D01*
X160217029Y-115455095D01*
X160266741Y-115358333D01*
X160366164Y-115309952D01*
X160515298Y-115309952D01*
X160614721Y-115261571D01*
X160664432Y-115164810D01*
X160664432Y-115116429D01*
X160614721Y-115019667D01*
X160515298Y-114971286D01*
X160366164Y-114971286D01*
X160266741Y-115019667D01*
X159769627Y-115551857D02*
X159719915Y-115600238D01*
X159769627Y-115648619D01*
X159819338Y-115600238D01*
X159769627Y-115551857D01*
X159769627Y-115648619D01*
X159769627Y-115019667D02*
X159719915Y-115068048D01*
X159769627Y-115116429D01*
X159819338Y-115068048D01*
X159769627Y-115019667D01*
X159769627Y-115116429D01*
X158526841Y-114584238D02*
X159421647Y-115890524D01*
X157433190Y-114584238D02*
X158327996Y-115890524D01*
X157184634Y-114971286D02*
X156985788Y-115648619D01*
X156786942Y-115164810D01*
X156588097Y-115648619D01*
X156389251Y-114971286D01*
X156090983Y-114971286D02*
X155892137Y-115648619D01*
X155693291Y-115164810D01*
X155494446Y-115648619D01*
X155295600Y-114971286D01*
X154997332Y-114971286D02*
X154798486Y-115648619D01*
X154599640Y-115164810D01*
X154400795Y-115648619D01*
X154201949Y-114971286D01*
X153804258Y-115551857D02*
X153754546Y-115600238D01*
X153804258Y-115648619D01*
X153853969Y-115600238D01*
X153804258Y-115551857D01*
X153804258Y-115648619D01*
X152859741Y-114971286D02*
X152859741Y-115793762D01*
X152909452Y-115890524D01*
X152959164Y-115938905D01*
X153058587Y-115987286D01*
X153207721Y-115987286D01*
X153307144Y-115938905D01*
X152859741Y-115600238D02*
X152959164Y-115648619D01*
X153158010Y-115648619D01*
X153257432Y-115600238D01*
X153307144Y-115551857D01*
X153356855Y-115455095D01*
X153356855Y-115164810D01*
X153307144Y-115068048D01*
X153257432Y-115019667D01*
X153158010Y-114971286D01*
X152959164Y-114971286D01*
X152859741Y-115019667D01*
X152362627Y-114971286D02*
X152362627Y-115648619D01*
X152362627Y-115068048D02*
X152312915Y-115019667D01*
X152213493Y-114971286D01*
X152064358Y-114971286D01*
X151964935Y-115019667D01*
X151915224Y-115116429D01*
X151915224Y-115648619D01*
X150970707Y-114971286D02*
X150970707Y-115648619D01*
X151418110Y-114971286D02*
X151418110Y-115503476D01*
X151368398Y-115600238D01*
X151268976Y-115648619D01*
X151119841Y-115648619D01*
X151020418Y-115600238D01*
X150970707Y-115551857D01*
X150473593Y-115551857D02*
X150423881Y-115600238D01*
X150473593Y-115648619D01*
X150523304Y-115600238D01*
X150473593Y-115551857D01*
X150473593Y-115648619D01*
X149827345Y-115648619D02*
X149926767Y-115600238D01*
X149976479Y-115551857D01*
X150026190Y-115455095D01*
X150026190Y-115164810D01*
X149976479Y-115068048D01*
X149926767Y-115019667D01*
X149827345Y-114971286D01*
X149678210Y-114971286D01*
X149578787Y-115019667D01*
X149529076Y-115068048D01*
X149479365Y-115164810D01*
X149479365Y-115455095D01*
X149529076Y-115551857D01*
X149578787Y-115600238D01*
X149678210Y-115648619D01*
X149827345Y-115648619D01*
X149031962Y-115648619D02*
X149031962Y-114971286D01*
X149031962Y-115164810D02*
X148982250Y-115068048D01*
X148932539Y-115019667D01*
X148833116Y-114971286D01*
X148733693Y-114971286D01*
X147938310Y-114971286D02*
X147938310Y-115793762D01*
X147988021Y-115890524D01*
X148037733Y-115938905D01*
X148137156Y-115987286D01*
X148286290Y-115987286D01*
X148385713Y-115938905D01*
X147938310Y-115600238D02*
X148037733Y-115648619D01*
X148236579Y-115648619D01*
X148336001Y-115600238D01*
X148385713Y-115551857D01*
X148435424Y-115455095D01*
X148435424Y-115164810D01*
X148385713Y-115068048D01*
X148336001Y-115019667D01*
X148236579Y-114971286D01*
X148037733Y-114971286D01*
X147938310Y-115019667D01*
X146695524Y-114584238D02*
X147590330Y-115890524D01*
X146198411Y-115648619D02*
X146297833Y-115600238D01*
X146347545Y-115503476D01*
X146347545Y-114632619D01*
X145800719Y-115648619D02*
X145800719Y-114971286D01*
X145800719Y-114632619D02*
X145850430Y-114681000D01*
X145800719Y-114729381D01*
X145751007Y-114681000D01*
X145800719Y-114632619D01*
X145800719Y-114729381D01*
X144856202Y-115600238D02*
X144955625Y-115648619D01*
X145154471Y-115648619D01*
X145253893Y-115600238D01*
X145303605Y-115551857D01*
X145353316Y-115455095D01*
X145353316Y-115164810D01*
X145303605Y-115068048D01*
X145253893Y-115019667D01*
X145154471Y-114971286D01*
X144955625Y-114971286D01*
X144856202Y-115019667D01*
X144011107Y-115600238D02*
X144110530Y-115648619D01*
X144309376Y-115648619D01*
X144408799Y-115600238D01*
X144458510Y-115503476D01*
X144458510Y-115116429D01*
X144408799Y-115019667D01*
X144309376Y-114971286D01*
X144110530Y-114971286D01*
X144011107Y-115019667D01*
X143961396Y-115116429D01*
X143961396Y-115213190D01*
X144458510Y-115309952D01*
X143513993Y-114971286D02*
X143513993Y-115648619D01*
X143513993Y-115068048D02*
X143464281Y-115019667D01*
X143364859Y-114971286D01*
X143215724Y-114971286D01*
X143116301Y-115019667D01*
X143066590Y-115116429D01*
X143066590Y-115648619D01*
X142619187Y-115600238D02*
X142519764Y-115648619D01*
X142320919Y-115648619D01*
X142221496Y-115600238D01*
X142171784Y-115503476D01*
X142171784Y-115455095D01*
X142221496Y-115358333D01*
X142320919Y-115309952D01*
X142470053Y-115309952D01*
X142569476Y-115261571D01*
X142619187Y-115164810D01*
X142619187Y-115116429D01*
X142569476Y-115019667D01*
X142470053Y-114971286D01*
X142320919Y-114971286D01*
X142221496Y-115019667D01*
X141326690Y-115600238D02*
X141426113Y-115648619D01*
X141624959Y-115648619D01*
X141724382Y-115600238D01*
X141774093Y-115503476D01*
X141774093Y-115116429D01*
X141724382Y-115019667D01*
X141624959Y-114971286D01*
X141426113Y-114971286D01*
X141326690Y-115019667D01*
X141276979Y-115116429D01*
X141276979Y-115213190D01*
X141774093Y-115309952D01*
X140879287Y-115600238D02*
X140779864Y-115648619D01*
X140581019Y-115648619D01*
X140481596Y-115600238D01*
X140431884Y-115503476D01*
X140431884Y-115455095D01*
X140481596Y-115358333D01*
X140581019Y-115309952D01*
X140730153Y-115309952D01*
X140829576Y-115261571D01*
X140879287Y-115164810D01*
X140879287Y-115116429D01*
X140829576Y-115019667D01*
X140730153Y-114971286D01*
X140581019Y-114971286D01*
X140481596Y-115019667D01*
X139238810Y-114584238D02*
X140133616Y-115890524D01*
X138443428Y-114971286D02*
X138443428Y-115793762D01*
X138493139Y-115890524D01*
X138542851Y-115938905D01*
X138642274Y-115987286D01*
X138791408Y-115987286D01*
X138890831Y-115938905D01*
X138443428Y-115600238D02*
X138542851Y-115648619D01*
X138741697Y-115648619D01*
X138841119Y-115600238D01*
X138890831Y-115551857D01*
X138940542Y-115455095D01*
X138940542Y-115164810D01*
X138890831Y-115068048D01*
X138841119Y-115019667D01*
X138741697Y-114971286D01*
X138542851Y-114971286D01*
X138443428Y-115019667D01*
X137946314Y-114971286D02*
X137946314Y-115987286D01*
X137946314Y-115019667D02*
X137846891Y-114971286D01*
X137648045Y-114971286D01*
X137548622Y-115019667D01*
X137498911Y-115068048D01*
X137449200Y-115164810D01*
X137449200Y-115455095D01*
X137498911Y-115551857D01*
X137548622Y-115600238D01*
X137648045Y-115648619D01*
X137846891Y-115648619D01*
X137946314Y-115600238D01*
X136852663Y-115648619D02*
X136952085Y-115600238D01*
X137001797Y-115503476D01*
X137001797Y-114632619D01*
X136454971Y-115551857D02*
X136405259Y-115600238D01*
X136454971Y-115648619D01*
X136504682Y-115600238D01*
X136454971Y-115551857D01*
X136454971Y-115648619D01*
X135957857Y-115648619D02*
X135957857Y-114632619D01*
X135510454Y-115648619D02*
X135510454Y-115116429D01*
X135560165Y-115019667D01*
X135659588Y-114971286D01*
X135808723Y-114971286D01*
X135908145Y-115019667D01*
X135957857Y-115068048D01*
X135162474Y-114971286D02*
X134764783Y-114971286D01*
X135013340Y-114632619D02*
X135013340Y-115503476D01*
X134963628Y-115600238D01*
X134864206Y-115648619D01*
X134764783Y-115648619D01*
X134416803Y-115648619D02*
X134416803Y-114971286D01*
X134416803Y-115068048D02*
X134367091Y-115019667D01*
X134267669Y-114971286D01*
X134118534Y-114971286D01*
X134019111Y-115019667D01*
X133969400Y-115116429D01*
X133969400Y-115648619D01*
X133969400Y-115116429D02*
X133919689Y-115019667D01*
X133820266Y-114971286D01*
X133671131Y-114971286D01*
X133571709Y-115019667D01*
X133521997Y-115116429D01*
X133521997Y-115648619D01*
X132875749Y-115648619D02*
X132975171Y-115600238D01*
X133024883Y-115503476D01*
X133024883Y-114632619D01*
D13*
G36*
X154892186Y-106180931D02*
X154808365Y-106625555D01*
X154499080Y-106753053D01*
X154189794Y-106880551D01*
X153818754Y-106628246D01*
X153714843Y-106557996D01*
X153620913Y-106495272D01*
X153541348Y-106442938D01*
X153480530Y-106403857D01*
X153442843Y-106380893D01*
X153432579Y-106375942D01*
X153414090Y-106388676D01*
X153374580Y-106423882D01*
X153318478Y-106477062D01*
X153250213Y-106543718D01*
X153174214Y-106619354D01*
X153094908Y-106699472D01*
X153016725Y-106779574D01*
X152944093Y-106855164D01*
X152881441Y-106921745D01*
X152833197Y-106974818D01*
X152803790Y-107009887D01*
X152796759Y-107021623D01*
X152806877Y-107043260D01*
X152835241Y-107090662D01*
X152878871Y-107159193D01*
X152934782Y-107244215D01*
X152999994Y-107341093D01*
X153037781Y-107396350D01*
X153106657Y-107497248D01*
X153167860Y-107588299D01*
X153218422Y-107664970D01*
X153255372Y-107722728D01*
X153275742Y-107757043D01*
X153278803Y-107764254D01*
X153271864Y-107784748D01*
X153252949Y-107832513D01*
X153224913Y-107900832D01*
X153190609Y-107982989D01*
X153152891Y-108072270D01*
X153114613Y-108161958D01*
X153078630Y-108245338D01*
X153047794Y-108315694D01*
X153024961Y-108366310D01*
X153012983Y-108390471D01*
X153012276Y-108391422D01*
X152993469Y-108396036D01*
X152943382Y-108406328D01*
X152867207Y-108421287D01*
X152770135Y-108439901D01*
X152657357Y-108461159D01*
X152591558Y-108473418D01*
X152471050Y-108496362D01*
X152362203Y-108518195D01*
X152270524Y-108537722D01*
X152201519Y-108553748D01*
X152160696Y-108565079D01*
X152152489Y-108568674D01*
X152144452Y-108593006D01*
X152137967Y-108647959D01*
X152133030Y-108727108D01*
X152129636Y-108824026D01*
X152127782Y-108932287D01*
X152127462Y-109045465D01*
X152128673Y-109157135D01*
X152131410Y-109260868D01*
X152135669Y-109350241D01*
X152141445Y-109418826D01*
X152148733Y-109460197D01*
X152153105Y-109468810D01*
X152179236Y-109479133D01*
X152234607Y-109493892D01*
X152311893Y-109511352D01*
X152403770Y-109529780D01*
X152435842Y-109535741D01*
X152590476Y-109564066D01*
X152712625Y-109586876D01*
X152806327Y-109605080D01*
X152875616Y-109619583D01*
X152924529Y-109631292D01*
X152957103Y-109641115D01*
X152977372Y-109649956D01*
X152989374Y-109658724D01*
X152991053Y-109660457D01*
X153007816Y-109688371D01*
X153033386Y-109742695D01*
X153065212Y-109816777D01*
X153100740Y-109903965D01*
X153137417Y-109997608D01*
X153172689Y-110091052D01*
X153204004Y-110177647D01*
X153228807Y-110250740D01*
X153244546Y-110303678D01*
X153248668Y-110329811D01*
X153248324Y-110330726D01*
X153234359Y-110352086D01*
X153202678Y-110399084D01*
X153156609Y-110466827D01*
X153099482Y-110550423D01*
X153034627Y-110644982D01*
X153016157Y-110671854D01*
X152950301Y-110769275D01*
X152892350Y-110858163D01*
X152845462Y-110933412D01*
X152812793Y-110989920D01*
X152797500Y-111022581D01*
X152796759Y-111026593D01*
X152809608Y-111047684D01*
X152845112Y-111089464D01*
X152898707Y-111147445D01*
X152965829Y-111217135D01*
X153041913Y-111294045D01*
X153122396Y-111373683D01*
X153202713Y-111451561D01*
X153278301Y-111523186D01*
X153344595Y-111584070D01*
X153397031Y-111629721D01*
X153431045Y-111655650D01*
X153440455Y-111659883D01*
X153462357Y-111649912D01*
X153507200Y-111623020D01*
X153567679Y-111583736D01*
X153614211Y-111552117D01*
X153698525Y-111494098D01*
X153798374Y-111425784D01*
X153898527Y-111357579D01*
X153952373Y-111321075D01*
X154134629Y-111197800D01*
X154287619Y-111280520D01*
X154357318Y-111316759D01*
X154416586Y-111344926D01*
X154456689Y-111360991D01*
X154466897Y-111363226D01*
X154479171Y-111346722D01*
X154503387Y-111300082D01*
X154537737Y-111227609D01*
X154580412Y-111133606D01*
X154629606Y-111022374D01*
X154683510Y-110898215D01*
X154740316Y-110765432D01*
X154798218Y-110628327D01*
X154855407Y-110491202D01*
X154910076Y-110358358D01*
X154960416Y-110234098D01*
X155004620Y-110122725D01*
X155040881Y-110028539D01*
X155067391Y-109955844D01*
X155082342Y-109908941D01*
X155084746Y-109892833D01*
X155065689Y-109872286D01*
X155023964Y-109838933D01*
X154968294Y-109799702D01*
X154963622Y-109796599D01*
X154819736Y-109681423D01*
X154703717Y-109547053D01*
X154616570Y-109397784D01*
X154559301Y-109237913D01*
X154532914Y-109071737D01*
X154538415Y-108903552D01*
X154576810Y-108737655D01*
X154649105Y-108578342D01*
X154670374Y-108543487D01*
X154781004Y-108402737D01*
X154911698Y-108289714D01*
X155057936Y-108205003D01*
X155215192Y-108149194D01*
X155378943Y-108122874D01*
X155544667Y-108126630D01*
X155707838Y-108161050D01*
X155863935Y-108226723D01*
X156008433Y-108324235D01*
X156053131Y-108363813D01*
X156166888Y-108487703D01*
X156249782Y-108618124D01*
X156306644Y-108764315D01*
X156338313Y-108909088D01*
X156346131Y-109071860D01*
X156320062Y-109235440D01*
X156262755Y-109394298D01*
X156176856Y-109542906D01*
X156065014Y-109675735D01*
X155929877Y-109787256D01*
X155912117Y-109799011D01*
X155855850Y-109837508D01*
X155813077Y-109870863D01*
X155792628Y-109892160D01*
X155792331Y-109892833D01*
X155796721Y-109915871D01*
X155814124Y-109968157D01*
X155842732Y-110045390D01*
X155880735Y-110143268D01*
X155926326Y-110257491D01*
X155977697Y-110383758D01*
X156033038Y-110517767D01*
X156090542Y-110655218D01*
X156148399Y-110791808D01*
X156204802Y-110923237D01*
X156257942Y-111045205D01*
X156306010Y-111153409D01*
X156347199Y-111243549D01*
X156379699Y-111311323D01*
X156401703Y-111352430D01*
X156410564Y-111363226D01*
X156437640Y-111354819D01*
X156488303Y-111332272D01*
X156553817Y-111299613D01*
X156589841Y-111280520D01*
X156742832Y-111197800D01*
X156925088Y-111321075D01*
X157018125Y-111384228D01*
X157119985Y-111453727D01*
X157215438Y-111519165D01*
X157263250Y-111552117D01*
X157330495Y-111597273D01*
X157387436Y-111633057D01*
X157426646Y-111654938D01*
X157439381Y-111659563D01*
X157457917Y-111647085D01*
X157498941Y-111612252D01*
X157558475Y-111558678D01*
X157632542Y-111489983D01*
X157717165Y-111409781D01*
X157770685Y-111358286D01*
X157864319Y-111266286D01*
X157945241Y-111183999D01*
X158010177Y-111114945D01*
X158055858Y-111062644D01*
X158079011Y-111030616D01*
X158081232Y-111024116D01*
X158070924Y-110999394D01*
X158042439Y-110949405D01*
X157998937Y-110879212D01*
X157943577Y-110793875D01*
X157879520Y-110698456D01*
X157861303Y-110671854D01*
X157794927Y-110575167D01*
X157735378Y-110488117D01*
X157685984Y-110415595D01*
X157650075Y-110362493D01*
X157630981Y-110333703D01*
X157629136Y-110330726D01*
X157631895Y-110307782D01*
X157646538Y-110257336D01*
X157670513Y-110186041D01*
X157701266Y-110100547D01*
X157736244Y-110007507D01*
X157772893Y-109913574D01*
X157808661Y-109825399D01*
X157840994Y-109749634D01*
X157867338Y-109692931D01*
X157885142Y-109661943D01*
X157886407Y-109660457D01*
X157897294Y-109651601D01*
X157915682Y-109642843D01*
X157945606Y-109633277D01*
X157991103Y-109621996D01*
X158056209Y-109608093D01*
X158144961Y-109590663D01*
X158261393Y-109568798D01*
X158409542Y-109541591D01*
X158441618Y-109535741D01*
X158536686Y-109517374D01*
X158619565Y-109499405D01*
X158682930Y-109483569D01*
X158719458Y-109471600D01*
X158724356Y-109468810D01*
X158732427Y-109444072D01*
X158738987Y-109388790D01*
X158744033Y-109309389D01*
X158747559Y-109212296D01*
X158749561Y-109103938D01*
X158750036Y-108990740D01*
X158748977Y-108879128D01*
X158746382Y-108775529D01*
X158742246Y-108686368D01*
X158736563Y-108618072D01*
X158729331Y-108577066D01*
X158724971Y-108568674D01*
X158700698Y-108560208D01*
X158645426Y-108546435D01*
X158564662Y-108528550D01*
X158463912Y-108507748D01*
X158348683Y-108485223D01*
X158285902Y-108473418D01*
X158166787Y-108451151D01*
X158060565Y-108430979D01*
X157972427Y-108413915D01*
X157907566Y-108400969D01*
X157871174Y-108393155D01*
X157865184Y-108391422D01*
X157855061Y-108371890D01*
X157833662Y-108324843D01*
X157803839Y-108257003D01*
X157768445Y-108175091D01*
X157730332Y-108085828D01*
X157692353Y-107995935D01*
X157657360Y-107912135D01*
X157628206Y-107841147D01*
X157607743Y-107789694D01*
X157598823Y-107764497D01*
X157598657Y-107763396D01*
X157608769Y-107743519D01*
X157637117Y-107697777D01*
X157680723Y-107630717D01*
X157736606Y-107546884D01*
X157801787Y-107450826D01*
X157839679Y-107395650D01*
X157908725Y-107294481D01*
X157970050Y-107202630D01*
X158020663Y-107124744D01*
X158057571Y-107065469D01*
X158077782Y-107029451D01*
X158080701Y-107021377D01*
X158068153Y-107002584D01*
X158033463Y-106962457D01*
X157981063Y-106905493D01*
X157915384Y-106836185D01*
X157840856Y-106759031D01*
X157761913Y-106678525D01*
X157682983Y-106599163D01*
X157608500Y-106525440D01*
X157542894Y-106461852D01*
X157490596Y-106412894D01*
X157456039Y-106383061D01*
X157444478Y-106375942D01*
X157425654Y-106385953D01*
X157380631Y-106414078D01*
X157313787Y-106457454D01*
X157229499Y-106513218D01*
X157132144Y-106578506D01*
X157058707Y-106628246D01*
X156687667Y-106880551D01*
X156069095Y-106625555D01*
X155985275Y-106180931D01*
X155901454Y-105736307D01*
X154976006Y-105736307D01*
X154892186Y-106180931D01*
X154892186Y-106180931D01*
G37*
X154892186Y-106180931D02*
X154808365Y-106625555D01*
X154499080Y-106753053D01*
X154189794Y-106880551D01*
X153818754Y-106628246D01*
X153714843Y-106557996D01*
X153620913Y-106495272D01*
X153541348Y-106442938D01*
X153480530Y-106403857D01*
X153442843Y-106380893D01*
X153432579Y-106375942D01*
X153414090Y-106388676D01*
X153374580Y-106423882D01*
X153318478Y-106477062D01*
X153250213Y-106543718D01*
X153174214Y-106619354D01*
X153094908Y-106699472D01*
X153016725Y-106779574D01*
X152944093Y-106855164D01*
X152881441Y-106921745D01*
X152833197Y-106974818D01*
X152803790Y-107009887D01*
X152796759Y-107021623D01*
X152806877Y-107043260D01*
X152835241Y-107090662D01*
X152878871Y-107159193D01*
X152934782Y-107244215D01*
X152999994Y-107341093D01*
X153037781Y-107396350D01*
X153106657Y-107497248D01*
X153167860Y-107588299D01*
X153218422Y-107664970D01*
X153255372Y-107722728D01*
X153275742Y-107757043D01*
X153278803Y-107764254D01*
X153271864Y-107784748D01*
X153252949Y-107832513D01*
X153224913Y-107900832D01*
X153190609Y-107982989D01*
X153152891Y-108072270D01*
X153114613Y-108161958D01*
X153078630Y-108245338D01*
X153047794Y-108315694D01*
X153024961Y-108366310D01*
X153012983Y-108390471D01*
X153012276Y-108391422D01*
X152993469Y-108396036D01*
X152943382Y-108406328D01*
X152867207Y-108421287D01*
X152770135Y-108439901D01*
X152657357Y-108461159D01*
X152591558Y-108473418D01*
X152471050Y-108496362D01*
X152362203Y-108518195D01*
X152270524Y-108537722D01*
X152201519Y-108553748D01*
X152160696Y-108565079D01*
X152152489Y-108568674D01*
X152144452Y-108593006D01*
X152137967Y-108647959D01*
X152133030Y-108727108D01*
X152129636Y-108824026D01*
X152127782Y-108932287D01*
X152127462Y-109045465D01*
X152128673Y-109157135D01*
X152131410Y-109260868D01*
X152135669Y-109350241D01*
X152141445Y-109418826D01*
X152148733Y-109460197D01*
X152153105Y-109468810D01*
X152179236Y-109479133D01*
X152234607Y-109493892D01*
X152311893Y-109511352D01*
X152403770Y-109529780D01*
X152435842Y-109535741D01*
X152590476Y-109564066D01*
X152712625Y-109586876D01*
X152806327Y-109605080D01*
X152875616Y-109619583D01*
X152924529Y-109631292D01*
X152957103Y-109641115D01*
X152977372Y-109649956D01*
X152989374Y-109658724D01*
X152991053Y-109660457D01*
X153007816Y-109688371D01*
X153033386Y-109742695D01*
X153065212Y-109816777D01*
X153100740Y-109903965D01*
X153137417Y-109997608D01*
X153172689Y-110091052D01*
X153204004Y-110177647D01*
X153228807Y-110250740D01*
X153244546Y-110303678D01*
X153248668Y-110329811D01*
X153248324Y-110330726D01*
X153234359Y-110352086D01*
X153202678Y-110399084D01*
X153156609Y-110466827D01*
X153099482Y-110550423D01*
X153034627Y-110644982D01*
X153016157Y-110671854D01*
X152950301Y-110769275D01*
X152892350Y-110858163D01*
X152845462Y-110933412D01*
X152812793Y-110989920D01*
X152797500Y-111022581D01*
X152796759Y-111026593D01*
X152809608Y-111047684D01*
X152845112Y-111089464D01*
X152898707Y-111147445D01*
X152965829Y-111217135D01*
X153041913Y-111294045D01*
X153122396Y-111373683D01*
X153202713Y-111451561D01*
X153278301Y-111523186D01*
X153344595Y-111584070D01*
X153397031Y-111629721D01*
X153431045Y-111655650D01*
X153440455Y-111659883D01*
X153462357Y-111649912D01*
X153507200Y-111623020D01*
X153567679Y-111583736D01*
X153614211Y-111552117D01*
X153698525Y-111494098D01*
X153798374Y-111425784D01*
X153898527Y-111357579D01*
X153952373Y-111321075D01*
X154134629Y-111197800D01*
X154287619Y-111280520D01*
X154357318Y-111316759D01*
X154416586Y-111344926D01*
X154456689Y-111360991D01*
X154466897Y-111363226D01*
X154479171Y-111346722D01*
X154503387Y-111300082D01*
X154537737Y-111227609D01*
X154580412Y-111133606D01*
X154629606Y-111022374D01*
X154683510Y-110898215D01*
X154740316Y-110765432D01*
X154798218Y-110628327D01*
X154855407Y-110491202D01*
X154910076Y-110358358D01*
X154960416Y-110234098D01*
X155004620Y-110122725D01*
X155040881Y-110028539D01*
X155067391Y-109955844D01*
X155082342Y-109908941D01*
X155084746Y-109892833D01*
X155065689Y-109872286D01*
X155023964Y-109838933D01*
X154968294Y-109799702D01*
X154963622Y-109796599D01*
X154819736Y-109681423D01*
X154703717Y-109547053D01*
X154616570Y-109397784D01*
X154559301Y-109237913D01*
X154532914Y-109071737D01*
X154538415Y-108903552D01*
X154576810Y-108737655D01*
X154649105Y-108578342D01*
X154670374Y-108543487D01*
X154781004Y-108402737D01*
X154911698Y-108289714D01*
X155057936Y-108205003D01*
X155215192Y-108149194D01*
X155378943Y-108122874D01*
X155544667Y-108126630D01*
X155707838Y-108161050D01*
X155863935Y-108226723D01*
X156008433Y-108324235D01*
X156053131Y-108363813D01*
X156166888Y-108487703D01*
X156249782Y-108618124D01*
X156306644Y-108764315D01*
X156338313Y-108909088D01*
X156346131Y-109071860D01*
X156320062Y-109235440D01*
X156262755Y-109394298D01*
X156176856Y-109542906D01*
X156065014Y-109675735D01*
X155929877Y-109787256D01*
X155912117Y-109799011D01*
X155855850Y-109837508D01*
X155813077Y-109870863D01*
X155792628Y-109892160D01*
X155792331Y-109892833D01*
X155796721Y-109915871D01*
X155814124Y-109968157D01*
X155842732Y-110045390D01*
X155880735Y-110143268D01*
X155926326Y-110257491D01*
X155977697Y-110383758D01*
X156033038Y-110517767D01*
X156090542Y-110655218D01*
X156148399Y-110791808D01*
X156204802Y-110923237D01*
X156257942Y-111045205D01*
X156306010Y-111153409D01*
X156347199Y-111243549D01*
X156379699Y-111311323D01*
X156401703Y-111352430D01*
X156410564Y-111363226D01*
X156437640Y-111354819D01*
X156488303Y-111332272D01*
X156553817Y-111299613D01*
X156589841Y-111280520D01*
X156742832Y-111197800D01*
X156925088Y-111321075D01*
X157018125Y-111384228D01*
X157119985Y-111453727D01*
X157215438Y-111519165D01*
X157263250Y-111552117D01*
X157330495Y-111597273D01*
X157387436Y-111633057D01*
X157426646Y-111654938D01*
X157439381Y-111659563D01*
X157457917Y-111647085D01*
X157498941Y-111612252D01*
X157558475Y-111558678D01*
X157632542Y-111489983D01*
X157717165Y-111409781D01*
X157770685Y-111358286D01*
X157864319Y-111266286D01*
X157945241Y-111183999D01*
X158010177Y-111114945D01*
X158055858Y-111062644D01*
X158079011Y-111030616D01*
X158081232Y-111024116D01*
X158070924Y-110999394D01*
X158042439Y-110949405D01*
X157998937Y-110879212D01*
X157943577Y-110793875D01*
X157879520Y-110698456D01*
X157861303Y-110671854D01*
X157794927Y-110575167D01*
X157735378Y-110488117D01*
X157685984Y-110415595D01*
X157650075Y-110362493D01*
X157630981Y-110333703D01*
X157629136Y-110330726D01*
X157631895Y-110307782D01*
X157646538Y-110257336D01*
X157670513Y-110186041D01*
X157701266Y-110100547D01*
X157736244Y-110007507D01*
X157772893Y-109913574D01*
X157808661Y-109825399D01*
X157840994Y-109749634D01*
X157867338Y-109692931D01*
X157885142Y-109661943D01*
X157886407Y-109660457D01*
X157897294Y-109651601D01*
X157915682Y-109642843D01*
X157945606Y-109633277D01*
X157991103Y-109621996D01*
X158056209Y-109608093D01*
X158144961Y-109590663D01*
X158261393Y-109568798D01*
X158409542Y-109541591D01*
X158441618Y-109535741D01*
X158536686Y-109517374D01*
X158619565Y-109499405D01*
X158682930Y-109483569D01*
X158719458Y-109471600D01*
X158724356Y-109468810D01*
X158732427Y-109444072D01*
X158738987Y-109388790D01*
X158744033Y-109309389D01*
X158747559Y-109212296D01*
X158749561Y-109103938D01*
X158750036Y-108990740D01*
X158748977Y-108879128D01*
X158746382Y-108775529D01*
X158742246Y-108686368D01*
X158736563Y-108618072D01*
X158729331Y-108577066D01*
X158724971Y-108568674D01*
X158700698Y-108560208D01*
X158645426Y-108546435D01*
X158564662Y-108528550D01*
X158463912Y-108507748D01*
X158348683Y-108485223D01*
X158285902Y-108473418D01*
X158166787Y-108451151D01*
X158060565Y-108430979D01*
X157972427Y-108413915D01*
X157907566Y-108400969D01*
X157871174Y-108393155D01*
X157865184Y-108391422D01*
X157855061Y-108371890D01*
X157833662Y-108324843D01*
X157803839Y-108257003D01*
X157768445Y-108175091D01*
X157730332Y-108085828D01*
X157692353Y-107995935D01*
X157657360Y-107912135D01*
X157628206Y-107841147D01*
X157607743Y-107789694D01*
X157598823Y-107764497D01*
X157598657Y-107763396D01*
X157608769Y-107743519D01*
X157637117Y-107697777D01*
X157680723Y-107630717D01*
X157736606Y-107546884D01*
X157801787Y-107450826D01*
X157839679Y-107395650D01*
X157908725Y-107294481D01*
X157970050Y-107202630D01*
X158020663Y-107124744D01*
X158057571Y-107065469D01*
X158077782Y-107029451D01*
X158080701Y-107021377D01*
X158068153Y-107002584D01*
X158033463Y-106962457D01*
X157981063Y-106905493D01*
X157915384Y-106836185D01*
X157840856Y-106759031D01*
X157761913Y-106678525D01*
X157682983Y-106599163D01*
X157608500Y-106525440D01*
X157542894Y-106461852D01*
X157490596Y-106412894D01*
X157456039Y-106383061D01*
X157444478Y-106375942D01*
X157425654Y-106385953D01*
X157380631Y-106414078D01*
X157313787Y-106457454D01*
X157229499Y-106513218D01*
X157132144Y-106578506D01*
X157058707Y-106628246D01*
X156687667Y-106880551D01*
X156069095Y-106625555D01*
X155985275Y-106180931D01*
X155901454Y-105736307D01*
X154976006Y-105736307D01*
X154892186Y-106180931D01*
G36*
X146606519Y-91609446D02*
X146564552Y-91688930D01*
X146500251Y-91726906D01*
X146442004Y-91757551D01*
X146416911Y-91791257D01*
X146416889Y-91792083D01*
X146394497Y-91849810D01*
X146340819Y-91874696D01*
X146279119Y-91858871D01*
X146241554Y-91842576D01*
X146204531Y-91851410D01*
X146153374Y-91891891D01*
X146109788Y-91934083D01*
X146050636Y-91997741D01*
X146014828Y-92045878D01*
X146009386Y-92063671D01*
X145995052Y-92088750D01*
X145945861Y-92132369D01*
X145906597Y-92161255D01*
X145821257Y-92237665D01*
X145752131Y-92330971D01*
X145708813Y-92424911D01*
X145700897Y-92503224D01*
X145701997Y-92508009D01*
X145688451Y-92567711D01*
X145623151Y-92638073D01*
X145548798Y-92689751D01*
X145479051Y-92705694D01*
X145425951Y-92701867D01*
X145354383Y-92698630D01*
X145301621Y-92719799D01*
X145243365Y-92775853D01*
X145236481Y-92783579D01*
X145179045Y-92841389D01*
X145133102Y-92875466D01*
X145121075Y-92879334D01*
X145091739Y-92898098D01*
X145090445Y-92905654D01*
X145067440Y-92935464D01*
X145041056Y-92948264D01*
X144991485Y-92981727D01*
X144938338Y-93040784D01*
X144935223Y-93045154D01*
X144883279Y-93112937D01*
X144812534Y-93197625D01*
X144769774Y-93246024D01*
X144696629Y-93315701D01*
X144648982Y-93335751D01*
X144627490Y-93306282D01*
X144632811Y-93227405D01*
X144633590Y-93223231D01*
X144640051Y-93172343D01*
X144625420Y-93167941D01*
X144601105Y-93186178D01*
X144560163Y-93247638D01*
X144561192Y-93315178D01*
X144581104Y-93346482D01*
X144593568Y-93389719D01*
X144592885Y-93469525D01*
X144587858Y-93514076D01*
X144564111Y-93613695D01*
X144527021Y-93658857D01*
X144473231Y-93650617D01*
X144424646Y-93610759D01*
X144356667Y-93610759D01*
X144339667Y-93639359D01*
X144279977Y-93667315D01*
X144279942Y-93667328D01*
X144282768Y-93647954D01*
X144285082Y-93641334D01*
X144187334Y-93641334D01*
X144177008Y-93664564D01*
X144168519Y-93660148D01*
X144165141Y-93626655D01*
X144168519Y-93622519D01*
X144185297Y-93626393D01*
X144187334Y-93641334D01*
X144285082Y-93641334D01*
X144290017Y-93627222D01*
X144317501Y-93591590D01*
X144346858Y-93587881D01*
X144356667Y-93610759D01*
X144424646Y-93610759D01*
X144399382Y-93590034D01*
X144387076Y-93577250D01*
X144319006Y-93515608D01*
X144260397Y-93492621D01*
X144216124Y-93494119D01*
X144155132Y-93492193D01*
X144095530Y-93460573D01*
X144031641Y-93402856D01*
X143973091Y-93334143D01*
X143944108Y-93278528D01*
X143943820Y-93259604D01*
X143935730Y-93214016D01*
X143906530Y-93182659D01*
X143860945Y-93141900D01*
X143795649Y-93073219D01*
X143736677Y-93005498D01*
X143672043Y-92923405D01*
X143663288Y-92907556D01*
X143256000Y-92907556D01*
X143246371Y-92935044D01*
X143243555Y-92935778D01*
X143219460Y-92916002D01*
X143213667Y-92907556D01*
X143215905Y-92881549D01*
X143226113Y-92879334D01*
X143254852Y-92899820D01*
X143256000Y-92907556D01*
X143663288Y-92907556D01*
X143639173Y-92863902D01*
X143630558Y-92809038D01*
X143635105Y-92762684D01*
X143636609Y-92677358D01*
X143603331Y-92623065D01*
X143526314Y-92589023D01*
X143482383Y-92578888D01*
X143405375Y-92547185D01*
X143375236Y-92505446D01*
X143349069Y-92473164D01*
X143106179Y-92473164D01*
X143101451Y-92483134D01*
X143072534Y-92499919D01*
X143040625Y-92481144D01*
X143016138Y-92441404D01*
X143029027Y-92417685D01*
X143067882Y-92406800D01*
X143100551Y-92431574D01*
X143106179Y-92473164D01*
X143349069Y-92473164D01*
X143342998Y-92465675D01*
X143274749Y-92417561D01*
X143187871Y-92371077D01*
X143099742Y-92336196D01*
X143064097Y-92326900D01*
X142999633Y-92294973D01*
X142957287Y-92240418D01*
X142944981Y-92180797D01*
X142970635Y-92133672D01*
X142975467Y-92130401D01*
X142981905Y-92110216D01*
X142568242Y-92110216D01*
X142559085Y-92127508D01*
X142517389Y-92143551D01*
X142484656Y-92105415D01*
X142483794Y-92103222D01*
X142487852Y-92066763D01*
X142507332Y-92060889D01*
X142552969Y-92076683D01*
X142568242Y-92110216D01*
X142981905Y-92110216D01*
X142984558Y-92101902D01*
X142963352Y-92079346D01*
X142926523Y-92026773D01*
X142912275Y-91978354D01*
X142878744Y-91911353D01*
X142820033Y-91863988D01*
X142745172Y-91804737D01*
X142690058Y-91734856D01*
X142646699Y-91677029D01*
X142590083Y-91655864D01*
X142541456Y-91654794D01*
X142468835Y-91649833D01*
X142429959Y-91621196D01*
X142412604Y-91584238D01*
X142393093Y-91545188D01*
X142383468Y-91554444D01*
X142383340Y-91556502D01*
X142359850Y-91606519D01*
X142322081Y-91641644D01*
X142273337Y-91702614D01*
X142240835Y-91802382D01*
X142240260Y-91805471D01*
X142217469Y-91930103D01*
X142489790Y-92221966D01*
X142613124Y-92350801D01*
X142708310Y-92441706D01*
X142782527Y-92500779D01*
X142842950Y-92534113D01*
X142866753Y-92542126D01*
X142956543Y-92575505D01*
X142992735Y-92614335D01*
X142978136Y-92662000D01*
X142972373Y-92669359D01*
X142962611Y-92695003D01*
X142975402Y-92730997D01*
X143016190Y-92785434D01*
X143090414Y-92866409D01*
X143137547Y-92915068D01*
X143232306Y-93013511D01*
X143320611Y-93107961D01*
X143389217Y-93184139D01*
X143412735Y-93211817D01*
X143477973Y-93275536D01*
X143531911Y-93289988D01*
X143539848Y-93288040D01*
X143597685Y-93296915D01*
X143681581Y-93353097D01*
X143711630Y-93378890D01*
X143806745Y-93464833D01*
X143870582Y-93527162D01*
X143914550Y-93579188D01*
X143950061Y-93634224D01*
X143983698Y-93696336D01*
X144048173Y-93819654D01*
X143973475Y-93897622D01*
X143926312Y-93951956D01*
X143914844Y-93992889D01*
X143934055Y-94046119D01*
X143941529Y-94061287D01*
X143967518Y-94123777D01*
X143963447Y-94160055D01*
X143945062Y-94179533D01*
X143889122Y-94198374D01*
X143836992Y-94194800D01*
X143782476Y-94193419D01*
X143730170Y-94226277D01*
X143688459Y-94270842D01*
X143622139Y-94330311D01*
X143527018Y-94382572D01*
X143393608Y-94431937D01*
X143235310Y-94476846D01*
X143213909Y-94502481D01*
X143224192Y-94541848D01*
X143256696Y-94570045D01*
X143271729Y-94572667D01*
X143316850Y-94550780D01*
X143333972Y-94529188D01*
X143377521Y-94499749D01*
X143405930Y-94503985D01*
X143449601Y-94538094D01*
X143446126Y-94582281D01*
X143402070Y-94629269D01*
X143323998Y-94671780D01*
X143228691Y-94700488D01*
X143139559Y-94736145D01*
X143060624Y-94793681D01*
X143059357Y-94794981D01*
X142982487Y-94851062D01*
X142909172Y-94859963D01*
X142859245Y-94863077D01*
X142806109Y-94889578D01*
X142737544Y-94947164D01*
X142678788Y-95005035D01*
X142602696Y-95083715D01*
X142560436Y-95135206D01*
X142546005Y-95172312D01*
X142553400Y-95207833D01*
X142568825Y-95239528D01*
X142594092Y-95298223D01*
X142585631Y-95335399D01*
X142546993Y-95371359D01*
X142476896Y-95406219D01*
X142424765Y-95408076D01*
X142381663Y-95412067D01*
X142320898Y-95445819D01*
X142234762Y-95514260D01*
X142173623Y-95568617D01*
X141981174Y-95743889D01*
X142083450Y-95862532D01*
X142158516Y-95938135D01*
X142213175Y-95965777D01*
X142231874Y-95963465D01*
X142264556Y-95960612D01*
X142260244Y-95992086D01*
X142251384Y-96041532D01*
X142269864Y-96053549D01*
X142303649Y-96031152D01*
X142340706Y-95977355D01*
X142343744Y-95971171D01*
X142391828Y-95896727D01*
X142438845Y-95871375D01*
X142479174Y-95898022D01*
X142480656Y-95900352D01*
X142479643Y-95942521D01*
X142451955Y-96001410D01*
X142421499Y-96073817D01*
X142428965Y-96128835D01*
X142472057Y-96152923D01*
X142477676Y-96153111D01*
X142562749Y-96133723D01*
X142637992Y-96085459D01*
X142680643Y-96023170D01*
X142681465Y-96020141D01*
X142718134Y-95961639D01*
X142787909Y-95906022D01*
X142800733Y-95898804D01*
X142894497Y-95839953D01*
X142981427Y-95770130D01*
X143027914Y-95722596D01*
X142685878Y-95722596D01*
X142672741Y-95739185D01*
X142627540Y-95758180D01*
X142588144Y-95741858D01*
X142578667Y-95715667D01*
X142592140Y-95695925D01*
X142347028Y-95695925D01*
X142324022Y-95737454D01*
X142288030Y-95774246D01*
X142237836Y-95827526D01*
X142212514Y-95867592D01*
X142211778Y-95872031D01*
X142188902Y-95896062D01*
X142169445Y-95899111D01*
X142133877Y-95876056D01*
X142127544Y-95849722D01*
X142146031Y-95775171D01*
X142206435Y-95722676D01*
X142251544Y-95702532D01*
X142322458Y-95683477D01*
X142347028Y-95695925D01*
X142592140Y-95695925D01*
X142602196Y-95681191D01*
X142635111Y-95673334D01*
X142684278Y-95687457D01*
X142685878Y-95722596D01*
X143027914Y-95722596D01*
X143048880Y-95701159D01*
X143084210Y-95644866D01*
X143086667Y-95631398D01*
X143095580Y-95609450D01*
X142942910Y-95609450D01*
X142934814Y-95636850D01*
X142904364Y-95661328D01*
X142839105Y-95691851D01*
X142794659Y-95675509D01*
X142784662Y-95656317D01*
X142792649Y-95614572D01*
X142816451Y-95573415D01*
X142849820Y-95535711D01*
X142878517Y-95541254D01*
X142908553Y-95569225D01*
X142942910Y-95609450D01*
X143095580Y-95609450D01*
X143102022Y-95593590D01*
X143115346Y-95588667D01*
X143144786Y-95565574D01*
X143181871Y-95508306D01*
X143190827Y-95490521D01*
X143238319Y-95418909D01*
X143309605Y-95371429D01*
X143368083Y-95349046D01*
X143392117Y-95337533D01*
X143052532Y-95337533D01*
X143043453Y-95382839D01*
X143024976Y-95418192D01*
X143013944Y-95400782D01*
X143009249Y-95381847D01*
X143006651Y-95330550D01*
X143012706Y-95315852D01*
X142823260Y-95315852D01*
X142819386Y-95332630D01*
X142804445Y-95334667D01*
X142781215Y-95324341D01*
X142785630Y-95315852D01*
X142819123Y-95312474D01*
X142823260Y-95315852D01*
X143012706Y-95315852D01*
X143013617Y-95313643D01*
X143040503Y-95306916D01*
X143052532Y-95337533D01*
X143392117Y-95337533D01*
X143433011Y-95317944D01*
X143510521Y-95267015D01*
X143591596Y-95204394D01*
X143667220Y-95138215D01*
X143668316Y-95137111D01*
X143213667Y-95137111D01*
X143211429Y-95163118D01*
X143201222Y-95165334D01*
X143172482Y-95144847D01*
X143171334Y-95137111D01*
X143180963Y-95109623D01*
X143183779Y-95108889D01*
X143207875Y-95128665D01*
X143213667Y-95137111D01*
X143668316Y-95137111D01*
X143728377Y-95076612D01*
X143766049Y-95027720D01*
X143771219Y-94999671D01*
X143759436Y-94996000D01*
X143704847Y-95016172D01*
X143678203Y-95039695D01*
X143626213Y-95070897D01*
X143566304Y-95070246D01*
X143523096Y-95040309D01*
X143516360Y-95022801D01*
X143526011Y-94973171D01*
X143560290Y-94903186D01*
X143574002Y-94881690D01*
X143631378Y-94814002D01*
X143692208Y-94786846D01*
X143727469Y-94784334D01*
X143808223Y-94766013D01*
X143891144Y-94705502D01*
X143911358Y-94685556D01*
X143988075Y-94615940D01*
X144066138Y-94558549D01*
X144090487Y-94544445D01*
X144159118Y-94501738D01*
X144206207Y-94459778D01*
X144249969Y-94402850D01*
X144281709Y-94361000D01*
X144312214Y-94325702D01*
X144331832Y-94332045D01*
X144355355Y-94385592D01*
X144356751Y-94389222D01*
X144389274Y-94473889D01*
X144441300Y-94410011D01*
X144483191Y-94352165D01*
X144504482Y-94312665D01*
X144532312Y-94301085D01*
X144587024Y-94321557D01*
X144655723Y-94366084D01*
X144725514Y-94426673D01*
X144770754Y-94477764D01*
X144812426Y-94537914D01*
X144820077Y-94574931D01*
X144797418Y-94607659D01*
X144796514Y-94608566D01*
X144770454Y-94644872D01*
X144786037Y-94678325D01*
X144807682Y-94699178D01*
X144858322Y-94729225D01*
X144891164Y-94728955D01*
X144921613Y-94737595D01*
X144947605Y-94779787D01*
X144991542Y-94849763D01*
X145038974Y-94894707D01*
X145086944Y-94940459D01*
X145104255Y-94977758D01*
X145122533Y-95014559D01*
X145170947Y-95079827D01*
X145240312Y-95161533D01*
X145266834Y-95190700D01*
X145345232Y-95273956D01*
X145393446Y-95319483D01*
X145418662Y-95331855D01*
X145428067Y-95315644D01*
X145429111Y-95293942D01*
X145440426Y-95234530D01*
X145472275Y-95227438D01*
X145514218Y-95264641D01*
X145534012Y-95306137D01*
X145510791Y-95350331D01*
X145502850Y-95359372D01*
X145471541Y-95401270D01*
X145480964Y-95430532D01*
X145503192Y-95450565D01*
X145554368Y-95485233D01*
X145634976Y-95532003D01*
X145693743Y-95563273D01*
X145780710Y-95613309D01*
X145830514Y-95661303D01*
X145859069Y-95724417D01*
X145865895Y-95748961D01*
X145896817Y-95822774D01*
X145958512Y-95915339D01*
X146055806Y-96033333D01*
X146134170Y-96120078D01*
X146226641Y-96218519D01*
X146305629Y-96299735D01*
X146363211Y-96355783D01*
X146391467Y-96378720D01*
X146392302Y-96378889D01*
X146420104Y-96359387D01*
X146470222Y-96309646D01*
X146503270Y-96273056D01*
X146551964Y-96222308D01*
X146438578Y-96222308D01*
X146403426Y-96238313D01*
X146367500Y-96243894D01*
X146298583Y-96246278D01*
X146261737Y-96221176D01*
X146238674Y-96154924D01*
X146236551Y-96146056D01*
X146235040Y-96085782D01*
X146265584Y-96068421D01*
X146323104Y-96094379D01*
X146373102Y-96135181D01*
X146428300Y-96191224D01*
X146438578Y-96222308D01*
X146551964Y-96222308D01*
X146566207Y-96207465D01*
X146621270Y-96161110D01*
X146640249Y-96150232D01*
X146666397Y-96134402D01*
X146641514Y-96118534D01*
X146628556Y-96113922D01*
X146581852Y-96082386D01*
X146532508Y-96027221D01*
X146491394Y-95964713D01*
X146469381Y-95911147D01*
X146475039Y-95883946D01*
X146500400Y-95841567D01*
X146477631Y-95774360D01*
X146406231Y-95680888D01*
X146402778Y-95677050D01*
X146346600Y-95609260D01*
X146310819Y-95555308D01*
X146304000Y-95536333D01*
X146280797Y-95507196D01*
X146221082Y-95465540D01*
X146166280Y-95435163D01*
X146085369Y-95390370D01*
X146041285Y-95348951D01*
X146019092Y-95291781D01*
X146008788Y-95233524D01*
X145989572Y-95123036D01*
X145972364Y-95065646D01*
X145683111Y-95065646D01*
X145664320Y-95102430D01*
X145620858Y-95103587D01*
X145572096Y-95068797D01*
X145571010Y-95067505D01*
X145546597Y-95020813D01*
X145546388Y-95000381D01*
X145575076Y-94986551D01*
X145622448Y-95000474D01*
X145665935Y-95031376D01*
X145683111Y-95065646D01*
X145972364Y-95065646D01*
X145970193Y-95058407D01*
X145946466Y-95029193D01*
X145924900Y-95024222D01*
X145880962Y-95003704D01*
X145826947Y-94955728D01*
X145782755Y-94900667D01*
X145767778Y-94863371D01*
X145746453Y-94827240D01*
X145701552Y-94789766D01*
X145642532Y-94731716D01*
X145600109Y-94661351D01*
X145551192Y-94592544D01*
X145480621Y-94545920D01*
X145406905Y-94529989D01*
X145354030Y-94548201D01*
X145330155Y-94589440D01*
X145351234Y-94623612D01*
X145405827Y-94641297D01*
X145462951Y-94637866D01*
X145519486Y-94629580D01*
X145538430Y-94645690D01*
X145531262Y-94700154D01*
X145527748Y-94716675D01*
X145509615Y-94792205D01*
X145491006Y-94819090D01*
X145459947Y-94803943D01*
X145425656Y-94773060D01*
X145373519Y-94731099D01*
X145337993Y-94713778D01*
X145306713Y-94694854D01*
X145251634Y-94646128D01*
X145206573Y-94600889D01*
X145136104Y-94537590D01*
X145070821Y-94496628D01*
X145039971Y-94488000D01*
X144978766Y-94463982D01*
X144924011Y-94406122D01*
X144894251Y-94335708D01*
X144892889Y-94319176D01*
X144914720Y-94271340D01*
X144949334Y-94240550D01*
X144993569Y-94200772D01*
X145005778Y-94173372D01*
X145026000Y-94132121D01*
X145037227Y-94121111D01*
X144765889Y-94121111D01*
X144759491Y-94145272D01*
X144739333Y-94149334D01*
X144700719Y-94134599D01*
X144695334Y-94121111D01*
X144715590Y-94093697D01*
X144721890Y-94092889D01*
X144760113Y-94113404D01*
X144765889Y-94121111D01*
X145037227Y-94121111D01*
X145055167Y-94103520D01*
X145086928Y-94073702D01*
X145070440Y-94056878D01*
X145039928Y-94047433D01*
X144995421Y-94029537D01*
X145000397Y-94002950D01*
X145019441Y-93980495D01*
X145048437Y-93926862D01*
X145048593Y-93892359D01*
X145063122Y-93860277D01*
X145113323Y-93797939D01*
X145136402Y-93772917D01*
X144990296Y-93772917D01*
X144989115Y-93849338D01*
X144954014Y-93908849D01*
X144898088Y-93937620D01*
X144843889Y-93927540D01*
X144798796Y-93914124D01*
X144768277Y-93943138D01*
X144756389Y-93967040D01*
X144725607Y-94012341D01*
X144690831Y-94038908D01*
X144668762Y-94035607D01*
X144667111Y-94026545D01*
X144677663Y-93980187D01*
X144702365Y-93918291D01*
X144730789Y-93863618D01*
X144752508Y-93838931D01*
X144753085Y-93838889D01*
X144787838Y-93821329D01*
X144842457Y-93778098D01*
X144853223Y-93768334D01*
X144917516Y-93714585D01*
X144955862Y-93703717D01*
X144979451Y-93736104D01*
X144990296Y-93772917D01*
X145136402Y-93772917D01*
X145192372Y-93712235D01*
X145293442Y-93610056D01*
X145409708Y-93498294D01*
X145534345Y-93383839D01*
X145609489Y-93318179D01*
X145316223Y-93318179D01*
X145296094Y-93379688D01*
X145248087Y-93449133D01*
X145190767Y-93502632D01*
X145161973Y-93516611D01*
X145095975Y-93552659D01*
X145046970Y-93604704D01*
X145007206Y-93651017D01*
X144975125Y-93649358D01*
X144968286Y-93643353D01*
X144952130Y-93604008D01*
X144974295Y-93543872D01*
X144977969Y-93537290D01*
X145027732Y-93472136D01*
X145075904Y-93432455D01*
X145139814Y-93383988D01*
X145169227Y-93352056D01*
X145210137Y-93320724D01*
X145262967Y-93302807D01*
X145305136Y-93303511D01*
X145316223Y-93318179D01*
X145609489Y-93318179D01*
X145660528Y-93273582D01*
X145666521Y-93268501D01*
X145748708Y-93198930D01*
X145695043Y-93145265D01*
X145419967Y-93145265D01*
X145389130Y-93161556D01*
X145350253Y-93138832D01*
X145344445Y-93116871D01*
X145360854Y-93083955D01*
X145377959Y-93083357D01*
X145415228Y-93111448D01*
X145419967Y-93145265D01*
X145695043Y-93145265D01*
X145687688Y-93137910D01*
X145651063Y-93094704D01*
X145657408Y-93077899D01*
X145669000Y-93076889D01*
X145706558Y-93061677D01*
X145711334Y-93048719D01*
X145733447Y-93019370D01*
X145790367Y-92973711D01*
X145842865Y-92938681D01*
X145974396Y-92856814D01*
X145899309Y-92787227D01*
X145842938Y-92730954D01*
X145831109Y-92699963D01*
X145864985Y-92683424D01*
X145911311Y-92675402D01*
X145976836Y-92674270D01*
X146012302Y-92704474D01*
X146025249Y-92733239D01*
X146036637Y-92805806D01*
X146022827Y-92833129D01*
X145996018Y-92873478D01*
X145993556Y-92884978D01*
X146009909Y-92907697D01*
X146059336Y-92886568D01*
X146142389Y-92821272D01*
X146207375Y-92761913D01*
X146294950Y-92672262D01*
X146339515Y-92608400D01*
X146345456Y-92566122D01*
X146349047Y-92492740D01*
X146398978Y-92424387D01*
X146485609Y-92373324D01*
X146501330Y-92367864D01*
X146585453Y-92328956D01*
X146666226Y-92272352D01*
X146728051Y-92211151D01*
X146755328Y-92158451D01*
X146755556Y-92154387D01*
X146768066Y-92129480D01*
X146398119Y-92129480D01*
X146390777Y-92177519D01*
X146366328Y-92200396D01*
X146302622Y-92227681D01*
X146276450Y-92213612D01*
X146275778Y-92206374D01*
X146294602Y-92171141D01*
X146328736Y-92134600D01*
X146369751Y-92103632D01*
X146390705Y-92113067D01*
X146398119Y-92129480D01*
X146768066Y-92129480D01*
X146772652Y-92120352D01*
X146783778Y-92117334D01*
X146810243Y-92100896D01*
X146803579Y-92071537D01*
X146776723Y-92058851D01*
X146738555Y-92037416D01*
X146683677Y-91985777D01*
X146659747Y-91958578D01*
X146578050Y-91860342D01*
X146766002Y-91666424D01*
X146697714Y-91593735D01*
X146629426Y-91521045D01*
X146606519Y-91609446D01*
X146606519Y-91609446D01*
G37*
X146606519Y-91609446D02*
X146564552Y-91688930D01*
X146500251Y-91726906D01*
X146442004Y-91757551D01*
X146416911Y-91791257D01*
X146416889Y-91792083D01*
X146394497Y-91849810D01*
X146340819Y-91874696D01*
X146279119Y-91858871D01*
X146241554Y-91842576D01*
X146204531Y-91851410D01*
X146153374Y-91891891D01*
X146109788Y-91934083D01*
X146050636Y-91997741D01*
X146014828Y-92045878D01*
X146009386Y-92063671D01*
X145995052Y-92088750D01*
X145945861Y-92132369D01*
X145906597Y-92161255D01*
X145821257Y-92237665D01*
X145752131Y-92330971D01*
X145708813Y-92424911D01*
X145700897Y-92503224D01*
X145701997Y-92508009D01*
X145688451Y-92567711D01*
X145623151Y-92638073D01*
X145548798Y-92689751D01*
X145479051Y-92705694D01*
X145425951Y-92701867D01*
X145354383Y-92698630D01*
X145301621Y-92719799D01*
X145243365Y-92775853D01*
X145236481Y-92783579D01*
X145179045Y-92841389D01*
X145133102Y-92875466D01*
X145121075Y-92879334D01*
X145091739Y-92898098D01*
X145090445Y-92905654D01*
X145067440Y-92935464D01*
X145041056Y-92948264D01*
X144991485Y-92981727D01*
X144938338Y-93040784D01*
X144935223Y-93045154D01*
X144883279Y-93112937D01*
X144812534Y-93197625D01*
X144769774Y-93246024D01*
X144696629Y-93315701D01*
X144648982Y-93335751D01*
X144627490Y-93306282D01*
X144632811Y-93227405D01*
X144633590Y-93223231D01*
X144640051Y-93172343D01*
X144625420Y-93167941D01*
X144601105Y-93186178D01*
X144560163Y-93247638D01*
X144561192Y-93315178D01*
X144581104Y-93346482D01*
X144593568Y-93389719D01*
X144592885Y-93469525D01*
X144587858Y-93514076D01*
X144564111Y-93613695D01*
X144527021Y-93658857D01*
X144473231Y-93650617D01*
X144424646Y-93610759D01*
X144356667Y-93610759D01*
X144339667Y-93639359D01*
X144279977Y-93667315D01*
X144279942Y-93667328D01*
X144282768Y-93647954D01*
X144285082Y-93641334D01*
X144187334Y-93641334D01*
X144177008Y-93664564D01*
X144168519Y-93660148D01*
X144165141Y-93626655D01*
X144168519Y-93622519D01*
X144185297Y-93626393D01*
X144187334Y-93641334D01*
X144285082Y-93641334D01*
X144290017Y-93627222D01*
X144317501Y-93591590D01*
X144346858Y-93587881D01*
X144356667Y-93610759D01*
X144424646Y-93610759D01*
X144399382Y-93590034D01*
X144387076Y-93577250D01*
X144319006Y-93515608D01*
X144260397Y-93492621D01*
X144216124Y-93494119D01*
X144155132Y-93492193D01*
X144095530Y-93460573D01*
X144031641Y-93402856D01*
X143973091Y-93334143D01*
X143944108Y-93278528D01*
X143943820Y-93259604D01*
X143935730Y-93214016D01*
X143906530Y-93182659D01*
X143860945Y-93141900D01*
X143795649Y-93073219D01*
X143736677Y-93005498D01*
X143672043Y-92923405D01*
X143663288Y-92907556D01*
X143256000Y-92907556D01*
X143246371Y-92935044D01*
X143243555Y-92935778D01*
X143219460Y-92916002D01*
X143213667Y-92907556D01*
X143215905Y-92881549D01*
X143226113Y-92879334D01*
X143254852Y-92899820D01*
X143256000Y-92907556D01*
X143663288Y-92907556D01*
X143639173Y-92863902D01*
X143630558Y-92809038D01*
X143635105Y-92762684D01*
X143636609Y-92677358D01*
X143603331Y-92623065D01*
X143526314Y-92589023D01*
X143482383Y-92578888D01*
X143405375Y-92547185D01*
X143375236Y-92505446D01*
X143349069Y-92473164D01*
X143106179Y-92473164D01*
X143101451Y-92483134D01*
X143072534Y-92499919D01*
X143040625Y-92481144D01*
X143016138Y-92441404D01*
X143029027Y-92417685D01*
X143067882Y-92406800D01*
X143100551Y-92431574D01*
X143106179Y-92473164D01*
X143349069Y-92473164D01*
X143342998Y-92465675D01*
X143274749Y-92417561D01*
X143187871Y-92371077D01*
X143099742Y-92336196D01*
X143064097Y-92326900D01*
X142999633Y-92294973D01*
X142957287Y-92240418D01*
X142944981Y-92180797D01*
X142970635Y-92133672D01*
X142975467Y-92130401D01*
X142981905Y-92110216D01*
X142568242Y-92110216D01*
X142559085Y-92127508D01*
X142517389Y-92143551D01*
X142484656Y-92105415D01*
X142483794Y-92103222D01*
X142487852Y-92066763D01*
X142507332Y-92060889D01*
X142552969Y-92076683D01*
X142568242Y-92110216D01*
X142981905Y-92110216D01*
X142984558Y-92101902D01*
X142963352Y-92079346D01*
X142926523Y-92026773D01*
X142912275Y-91978354D01*
X142878744Y-91911353D01*
X142820033Y-91863988D01*
X142745172Y-91804737D01*
X142690058Y-91734856D01*
X142646699Y-91677029D01*
X142590083Y-91655864D01*
X142541456Y-91654794D01*
X142468835Y-91649833D01*
X142429959Y-91621196D01*
X142412604Y-91584238D01*
X142393093Y-91545188D01*
X142383468Y-91554444D01*
X142383340Y-91556502D01*
X142359850Y-91606519D01*
X142322081Y-91641644D01*
X142273337Y-91702614D01*
X142240835Y-91802382D01*
X142240260Y-91805471D01*
X142217469Y-91930103D01*
X142489790Y-92221966D01*
X142613124Y-92350801D01*
X142708310Y-92441706D01*
X142782527Y-92500779D01*
X142842950Y-92534113D01*
X142866753Y-92542126D01*
X142956543Y-92575505D01*
X142992735Y-92614335D01*
X142978136Y-92662000D01*
X142972373Y-92669359D01*
X142962611Y-92695003D01*
X142975402Y-92730997D01*
X143016190Y-92785434D01*
X143090414Y-92866409D01*
X143137547Y-92915068D01*
X143232306Y-93013511D01*
X143320611Y-93107961D01*
X143389217Y-93184139D01*
X143412735Y-93211817D01*
X143477973Y-93275536D01*
X143531911Y-93289988D01*
X143539848Y-93288040D01*
X143597685Y-93296915D01*
X143681581Y-93353097D01*
X143711630Y-93378890D01*
X143806745Y-93464833D01*
X143870582Y-93527162D01*
X143914550Y-93579188D01*
X143950061Y-93634224D01*
X143983698Y-93696336D01*
X144048173Y-93819654D01*
X143973475Y-93897622D01*
X143926312Y-93951956D01*
X143914844Y-93992889D01*
X143934055Y-94046119D01*
X143941529Y-94061287D01*
X143967518Y-94123777D01*
X143963447Y-94160055D01*
X143945062Y-94179533D01*
X143889122Y-94198374D01*
X143836992Y-94194800D01*
X143782476Y-94193419D01*
X143730170Y-94226277D01*
X143688459Y-94270842D01*
X143622139Y-94330311D01*
X143527018Y-94382572D01*
X143393608Y-94431937D01*
X143235310Y-94476846D01*
X143213909Y-94502481D01*
X143224192Y-94541848D01*
X143256696Y-94570045D01*
X143271729Y-94572667D01*
X143316850Y-94550780D01*
X143333972Y-94529188D01*
X143377521Y-94499749D01*
X143405930Y-94503985D01*
X143449601Y-94538094D01*
X143446126Y-94582281D01*
X143402070Y-94629269D01*
X143323998Y-94671780D01*
X143228691Y-94700488D01*
X143139559Y-94736145D01*
X143060624Y-94793681D01*
X143059357Y-94794981D01*
X142982487Y-94851062D01*
X142909172Y-94859963D01*
X142859245Y-94863077D01*
X142806109Y-94889578D01*
X142737544Y-94947164D01*
X142678788Y-95005035D01*
X142602696Y-95083715D01*
X142560436Y-95135206D01*
X142546005Y-95172312D01*
X142553400Y-95207833D01*
X142568825Y-95239528D01*
X142594092Y-95298223D01*
X142585631Y-95335399D01*
X142546993Y-95371359D01*
X142476896Y-95406219D01*
X142424765Y-95408076D01*
X142381663Y-95412067D01*
X142320898Y-95445819D01*
X142234762Y-95514260D01*
X142173623Y-95568617D01*
X141981174Y-95743889D01*
X142083450Y-95862532D01*
X142158516Y-95938135D01*
X142213175Y-95965777D01*
X142231874Y-95963465D01*
X142264556Y-95960612D01*
X142260244Y-95992086D01*
X142251384Y-96041532D01*
X142269864Y-96053549D01*
X142303649Y-96031152D01*
X142340706Y-95977355D01*
X142343744Y-95971171D01*
X142391828Y-95896727D01*
X142438845Y-95871375D01*
X142479174Y-95898022D01*
X142480656Y-95900352D01*
X142479643Y-95942521D01*
X142451955Y-96001410D01*
X142421499Y-96073817D01*
X142428965Y-96128835D01*
X142472057Y-96152923D01*
X142477676Y-96153111D01*
X142562749Y-96133723D01*
X142637992Y-96085459D01*
X142680643Y-96023170D01*
X142681465Y-96020141D01*
X142718134Y-95961639D01*
X142787909Y-95906022D01*
X142800733Y-95898804D01*
X142894497Y-95839953D01*
X142981427Y-95770130D01*
X143027914Y-95722596D01*
X142685878Y-95722596D01*
X142672741Y-95739185D01*
X142627540Y-95758180D01*
X142588144Y-95741858D01*
X142578667Y-95715667D01*
X142592140Y-95695925D01*
X142347028Y-95695925D01*
X142324022Y-95737454D01*
X142288030Y-95774246D01*
X142237836Y-95827526D01*
X142212514Y-95867592D01*
X142211778Y-95872031D01*
X142188902Y-95896062D01*
X142169445Y-95899111D01*
X142133877Y-95876056D01*
X142127544Y-95849722D01*
X142146031Y-95775171D01*
X142206435Y-95722676D01*
X142251544Y-95702532D01*
X142322458Y-95683477D01*
X142347028Y-95695925D01*
X142592140Y-95695925D01*
X142602196Y-95681191D01*
X142635111Y-95673334D01*
X142684278Y-95687457D01*
X142685878Y-95722596D01*
X143027914Y-95722596D01*
X143048880Y-95701159D01*
X143084210Y-95644866D01*
X143086667Y-95631398D01*
X143095580Y-95609450D01*
X142942910Y-95609450D01*
X142934814Y-95636850D01*
X142904364Y-95661328D01*
X142839105Y-95691851D01*
X142794659Y-95675509D01*
X142784662Y-95656317D01*
X142792649Y-95614572D01*
X142816451Y-95573415D01*
X142849820Y-95535711D01*
X142878517Y-95541254D01*
X142908553Y-95569225D01*
X142942910Y-95609450D01*
X143095580Y-95609450D01*
X143102022Y-95593590D01*
X143115346Y-95588667D01*
X143144786Y-95565574D01*
X143181871Y-95508306D01*
X143190827Y-95490521D01*
X143238319Y-95418909D01*
X143309605Y-95371429D01*
X143368083Y-95349046D01*
X143392117Y-95337533D01*
X143052532Y-95337533D01*
X143043453Y-95382839D01*
X143024976Y-95418192D01*
X143013944Y-95400782D01*
X143009249Y-95381847D01*
X143006651Y-95330550D01*
X143012706Y-95315852D01*
X142823260Y-95315852D01*
X142819386Y-95332630D01*
X142804445Y-95334667D01*
X142781215Y-95324341D01*
X142785630Y-95315852D01*
X142819123Y-95312474D01*
X142823260Y-95315852D01*
X143012706Y-95315852D01*
X143013617Y-95313643D01*
X143040503Y-95306916D01*
X143052532Y-95337533D01*
X143392117Y-95337533D01*
X143433011Y-95317944D01*
X143510521Y-95267015D01*
X143591596Y-95204394D01*
X143667220Y-95138215D01*
X143668316Y-95137111D01*
X143213667Y-95137111D01*
X143211429Y-95163118D01*
X143201222Y-95165334D01*
X143172482Y-95144847D01*
X143171334Y-95137111D01*
X143180963Y-95109623D01*
X143183779Y-95108889D01*
X143207875Y-95128665D01*
X143213667Y-95137111D01*
X143668316Y-95137111D01*
X143728377Y-95076612D01*
X143766049Y-95027720D01*
X143771219Y-94999671D01*
X143759436Y-94996000D01*
X143704847Y-95016172D01*
X143678203Y-95039695D01*
X143626213Y-95070897D01*
X143566304Y-95070246D01*
X143523096Y-95040309D01*
X143516360Y-95022801D01*
X143526011Y-94973171D01*
X143560290Y-94903186D01*
X143574002Y-94881690D01*
X143631378Y-94814002D01*
X143692208Y-94786846D01*
X143727469Y-94784334D01*
X143808223Y-94766013D01*
X143891144Y-94705502D01*
X143911358Y-94685556D01*
X143988075Y-94615940D01*
X144066138Y-94558549D01*
X144090487Y-94544445D01*
X144159118Y-94501738D01*
X144206207Y-94459778D01*
X144249969Y-94402850D01*
X144281709Y-94361000D01*
X144312214Y-94325702D01*
X144331832Y-94332045D01*
X144355355Y-94385592D01*
X144356751Y-94389222D01*
X144389274Y-94473889D01*
X144441300Y-94410011D01*
X144483191Y-94352165D01*
X144504482Y-94312665D01*
X144532312Y-94301085D01*
X144587024Y-94321557D01*
X144655723Y-94366084D01*
X144725514Y-94426673D01*
X144770754Y-94477764D01*
X144812426Y-94537914D01*
X144820077Y-94574931D01*
X144797418Y-94607659D01*
X144796514Y-94608566D01*
X144770454Y-94644872D01*
X144786037Y-94678325D01*
X144807682Y-94699178D01*
X144858322Y-94729225D01*
X144891164Y-94728955D01*
X144921613Y-94737595D01*
X144947605Y-94779787D01*
X144991542Y-94849763D01*
X145038974Y-94894707D01*
X145086944Y-94940459D01*
X145104255Y-94977758D01*
X145122533Y-95014559D01*
X145170947Y-95079827D01*
X145240312Y-95161533D01*
X145266834Y-95190700D01*
X145345232Y-95273956D01*
X145393446Y-95319483D01*
X145418662Y-95331855D01*
X145428067Y-95315644D01*
X145429111Y-95293942D01*
X145440426Y-95234530D01*
X145472275Y-95227438D01*
X145514218Y-95264641D01*
X145534012Y-95306137D01*
X145510791Y-95350331D01*
X145502850Y-95359372D01*
X145471541Y-95401270D01*
X145480964Y-95430532D01*
X145503192Y-95450565D01*
X145554368Y-95485233D01*
X145634976Y-95532003D01*
X145693743Y-95563273D01*
X145780710Y-95613309D01*
X145830514Y-95661303D01*
X145859069Y-95724417D01*
X145865895Y-95748961D01*
X145896817Y-95822774D01*
X145958512Y-95915339D01*
X146055806Y-96033333D01*
X146134170Y-96120078D01*
X146226641Y-96218519D01*
X146305629Y-96299735D01*
X146363211Y-96355783D01*
X146391467Y-96378720D01*
X146392302Y-96378889D01*
X146420104Y-96359387D01*
X146470222Y-96309646D01*
X146503270Y-96273056D01*
X146551964Y-96222308D01*
X146438578Y-96222308D01*
X146403426Y-96238313D01*
X146367500Y-96243894D01*
X146298583Y-96246278D01*
X146261737Y-96221176D01*
X146238674Y-96154924D01*
X146236551Y-96146056D01*
X146235040Y-96085782D01*
X146265584Y-96068421D01*
X146323104Y-96094379D01*
X146373102Y-96135181D01*
X146428300Y-96191224D01*
X146438578Y-96222308D01*
X146551964Y-96222308D01*
X146566207Y-96207465D01*
X146621270Y-96161110D01*
X146640249Y-96150232D01*
X146666397Y-96134402D01*
X146641514Y-96118534D01*
X146628556Y-96113922D01*
X146581852Y-96082386D01*
X146532508Y-96027221D01*
X146491394Y-95964713D01*
X146469381Y-95911147D01*
X146475039Y-95883946D01*
X146500400Y-95841567D01*
X146477631Y-95774360D01*
X146406231Y-95680888D01*
X146402778Y-95677050D01*
X146346600Y-95609260D01*
X146310819Y-95555308D01*
X146304000Y-95536333D01*
X146280797Y-95507196D01*
X146221082Y-95465540D01*
X146166280Y-95435163D01*
X146085369Y-95390370D01*
X146041285Y-95348951D01*
X146019092Y-95291781D01*
X146008788Y-95233524D01*
X145989572Y-95123036D01*
X145972364Y-95065646D01*
X145683111Y-95065646D01*
X145664320Y-95102430D01*
X145620858Y-95103587D01*
X145572096Y-95068797D01*
X145571010Y-95067505D01*
X145546597Y-95020813D01*
X145546388Y-95000381D01*
X145575076Y-94986551D01*
X145622448Y-95000474D01*
X145665935Y-95031376D01*
X145683111Y-95065646D01*
X145972364Y-95065646D01*
X145970193Y-95058407D01*
X145946466Y-95029193D01*
X145924900Y-95024222D01*
X145880962Y-95003704D01*
X145826947Y-94955728D01*
X145782755Y-94900667D01*
X145767778Y-94863371D01*
X145746453Y-94827240D01*
X145701552Y-94789766D01*
X145642532Y-94731716D01*
X145600109Y-94661351D01*
X145551192Y-94592544D01*
X145480621Y-94545920D01*
X145406905Y-94529989D01*
X145354030Y-94548201D01*
X145330155Y-94589440D01*
X145351234Y-94623612D01*
X145405827Y-94641297D01*
X145462951Y-94637866D01*
X145519486Y-94629580D01*
X145538430Y-94645690D01*
X145531262Y-94700154D01*
X145527748Y-94716675D01*
X145509615Y-94792205D01*
X145491006Y-94819090D01*
X145459947Y-94803943D01*
X145425656Y-94773060D01*
X145373519Y-94731099D01*
X145337993Y-94713778D01*
X145306713Y-94694854D01*
X145251634Y-94646128D01*
X145206573Y-94600889D01*
X145136104Y-94537590D01*
X145070821Y-94496628D01*
X145039971Y-94488000D01*
X144978766Y-94463982D01*
X144924011Y-94406122D01*
X144894251Y-94335708D01*
X144892889Y-94319176D01*
X144914720Y-94271340D01*
X144949334Y-94240550D01*
X144993569Y-94200772D01*
X145005778Y-94173372D01*
X145026000Y-94132121D01*
X145037227Y-94121111D01*
X144765889Y-94121111D01*
X144759491Y-94145272D01*
X144739333Y-94149334D01*
X144700719Y-94134599D01*
X144695334Y-94121111D01*
X144715590Y-94093697D01*
X144721890Y-94092889D01*
X144760113Y-94113404D01*
X144765889Y-94121111D01*
X145037227Y-94121111D01*
X145055167Y-94103520D01*
X145086928Y-94073702D01*
X145070440Y-94056878D01*
X145039928Y-94047433D01*
X144995421Y-94029537D01*
X145000397Y-94002950D01*
X145019441Y-93980495D01*
X145048437Y-93926862D01*
X145048593Y-93892359D01*
X145063122Y-93860277D01*
X145113323Y-93797939D01*
X145136402Y-93772917D01*
X144990296Y-93772917D01*
X144989115Y-93849338D01*
X144954014Y-93908849D01*
X144898088Y-93937620D01*
X144843889Y-93927540D01*
X144798796Y-93914124D01*
X144768277Y-93943138D01*
X144756389Y-93967040D01*
X144725607Y-94012341D01*
X144690831Y-94038908D01*
X144668762Y-94035607D01*
X144667111Y-94026545D01*
X144677663Y-93980187D01*
X144702365Y-93918291D01*
X144730789Y-93863618D01*
X144752508Y-93838931D01*
X144753085Y-93838889D01*
X144787838Y-93821329D01*
X144842457Y-93778098D01*
X144853223Y-93768334D01*
X144917516Y-93714585D01*
X144955862Y-93703717D01*
X144979451Y-93736104D01*
X144990296Y-93772917D01*
X145136402Y-93772917D01*
X145192372Y-93712235D01*
X145293442Y-93610056D01*
X145409708Y-93498294D01*
X145534345Y-93383839D01*
X145609489Y-93318179D01*
X145316223Y-93318179D01*
X145296094Y-93379688D01*
X145248087Y-93449133D01*
X145190767Y-93502632D01*
X145161973Y-93516611D01*
X145095975Y-93552659D01*
X145046970Y-93604704D01*
X145007206Y-93651017D01*
X144975125Y-93649358D01*
X144968286Y-93643353D01*
X144952130Y-93604008D01*
X144974295Y-93543872D01*
X144977969Y-93537290D01*
X145027732Y-93472136D01*
X145075904Y-93432455D01*
X145139814Y-93383988D01*
X145169227Y-93352056D01*
X145210137Y-93320724D01*
X145262967Y-93302807D01*
X145305136Y-93303511D01*
X145316223Y-93318179D01*
X145609489Y-93318179D01*
X145660528Y-93273582D01*
X145666521Y-93268501D01*
X145748708Y-93198930D01*
X145695043Y-93145265D01*
X145419967Y-93145265D01*
X145389130Y-93161556D01*
X145350253Y-93138832D01*
X145344445Y-93116871D01*
X145360854Y-93083955D01*
X145377959Y-93083357D01*
X145415228Y-93111448D01*
X145419967Y-93145265D01*
X145695043Y-93145265D01*
X145687688Y-93137910D01*
X145651063Y-93094704D01*
X145657408Y-93077899D01*
X145669000Y-93076889D01*
X145706558Y-93061677D01*
X145711334Y-93048719D01*
X145733447Y-93019370D01*
X145790367Y-92973711D01*
X145842865Y-92938681D01*
X145974396Y-92856814D01*
X145899309Y-92787227D01*
X145842938Y-92730954D01*
X145831109Y-92699963D01*
X145864985Y-92683424D01*
X145911311Y-92675402D01*
X145976836Y-92674270D01*
X146012302Y-92704474D01*
X146025249Y-92733239D01*
X146036637Y-92805806D01*
X146022827Y-92833129D01*
X145996018Y-92873478D01*
X145993556Y-92884978D01*
X146009909Y-92907697D01*
X146059336Y-92886568D01*
X146142389Y-92821272D01*
X146207375Y-92761913D01*
X146294950Y-92672262D01*
X146339515Y-92608400D01*
X146345456Y-92566122D01*
X146349047Y-92492740D01*
X146398978Y-92424387D01*
X146485609Y-92373324D01*
X146501330Y-92367864D01*
X146585453Y-92328956D01*
X146666226Y-92272352D01*
X146728051Y-92211151D01*
X146755328Y-92158451D01*
X146755556Y-92154387D01*
X146768066Y-92129480D01*
X146398119Y-92129480D01*
X146390777Y-92177519D01*
X146366328Y-92200396D01*
X146302622Y-92227681D01*
X146276450Y-92213612D01*
X146275778Y-92206374D01*
X146294602Y-92171141D01*
X146328736Y-92134600D01*
X146369751Y-92103632D01*
X146390705Y-92113067D01*
X146398119Y-92129480D01*
X146768066Y-92129480D01*
X146772652Y-92120352D01*
X146783778Y-92117334D01*
X146810243Y-92100896D01*
X146803579Y-92071537D01*
X146776723Y-92058851D01*
X146738555Y-92037416D01*
X146683677Y-91985777D01*
X146659747Y-91958578D01*
X146578050Y-91860342D01*
X146766002Y-91666424D01*
X146697714Y-91593735D01*
X146629426Y-91521045D01*
X146606519Y-91609446D01*
G36*
X148138445Y-92568889D02*
X151695954Y-92568889D01*
X151680334Y-93401445D01*
X149916445Y-93407107D01*
X148152556Y-93412770D01*
X148144818Y-93879829D01*
X148137080Y-94346889D01*
X151694445Y-94346889D01*
X151694445Y-95165334D01*
X148138445Y-95165334D01*
X148138445Y-95627981D01*
X148139229Y-95804204D01*
X148142031Y-95931701D01*
X148147527Y-96018172D01*
X148156392Y-96071319D01*
X148169302Y-96098844D01*
X148180443Y-96106744D01*
X148215994Y-96109833D01*
X148302257Y-96112617D01*
X148433986Y-96115097D01*
X148605937Y-96117272D01*
X148812864Y-96119144D01*
X149049520Y-96120712D01*
X149310661Y-96121977D01*
X149591041Y-96122938D01*
X149885414Y-96123596D01*
X150188535Y-96123951D01*
X150495158Y-96124004D01*
X150800038Y-96123754D01*
X151097929Y-96123201D01*
X151383585Y-96122347D01*
X151651761Y-96121191D01*
X151897212Y-96119733D01*
X152114691Y-96117974D01*
X152298953Y-96115914D01*
X152444753Y-96113552D01*
X152546845Y-96110890D01*
X152599984Y-96107927D01*
X152606470Y-96106568D01*
X152609500Y-96075972D01*
X152612385Y-95993237D01*
X152615086Y-95862667D01*
X152617567Y-95688567D01*
X152619791Y-95475243D01*
X152621720Y-95226999D01*
X152623319Y-94948140D01*
X152624549Y-94642972D01*
X152625373Y-94315798D01*
X152625755Y-93970924D01*
X152625778Y-93862408D01*
X152625778Y-91637556D01*
X148138445Y-91637556D01*
X148138445Y-92568889D01*
X148138445Y-92568889D01*
G37*
X148138445Y-92568889D02*
X151695954Y-92568889D01*
X151680334Y-93401445D01*
X149916445Y-93407107D01*
X148152556Y-93412770D01*
X148144818Y-93879829D01*
X148137080Y-94346889D01*
X151694445Y-94346889D01*
X151694445Y-95165334D01*
X148138445Y-95165334D01*
X148138445Y-95627981D01*
X148139229Y-95804204D01*
X148142031Y-95931701D01*
X148147527Y-96018172D01*
X148156392Y-96071319D01*
X148169302Y-96098844D01*
X148180443Y-96106744D01*
X148215994Y-96109833D01*
X148302257Y-96112617D01*
X148433986Y-96115097D01*
X148605937Y-96117272D01*
X148812864Y-96119144D01*
X149049520Y-96120712D01*
X149310661Y-96121977D01*
X149591041Y-96122938D01*
X149885414Y-96123596D01*
X150188535Y-96123951D01*
X150495158Y-96124004D01*
X150800038Y-96123754D01*
X151097929Y-96123201D01*
X151383585Y-96122347D01*
X151651761Y-96121191D01*
X151897212Y-96119733D01*
X152114691Y-96117974D01*
X152298953Y-96115914D01*
X152444753Y-96113552D01*
X152546845Y-96110890D01*
X152599984Y-96107927D01*
X152606470Y-96106568D01*
X152609500Y-96075972D01*
X152612385Y-95993237D01*
X152615086Y-95862667D01*
X152617567Y-95688567D01*
X152619791Y-95475243D01*
X152621720Y-95226999D01*
X152623319Y-94948140D01*
X152624549Y-94642972D01*
X152625373Y-94315798D01*
X152625755Y-93970924D01*
X152625778Y-93862408D01*
X152625778Y-91637556D01*
X148138445Y-91637556D01*
X148138445Y-92568889D01*
G36*
X146680131Y-95803961D02*
X146676299Y-95812328D01*
X146689922Y-95838062D01*
X146713223Y-95842667D01*
X146748347Y-95828347D01*
X146750147Y-95812328D01*
X146721011Y-95783170D01*
X146713223Y-95781989D01*
X146680131Y-95803961D01*
X146680131Y-95803961D01*
G37*
X146680131Y-95803961D02*
X146676299Y-95812328D01*
X146689922Y-95838062D01*
X146713223Y-95842667D01*
X146748347Y-95828347D01*
X146750147Y-95812328D01*
X146721011Y-95783170D01*
X146713223Y-95781989D01*
X146680131Y-95803961D01*
G36*
X146204272Y-95194726D02*
X146207596Y-95203675D01*
X146232978Y-95238354D01*
X146263036Y-95253051D01*
X146275778Y-95239345D01*
X146257055Y-95215023D01*
X146232799Y-95193020D01*
X146202202Y-95172428D01*
X146204272Y-95194726D01*
X146204272Y-95194726D01*
G37*
X146204272Y-95194726D02*
X146207596Y-95203675D01*
X146232978Y-95238354D01*
X146263036Y-95253051D01*
X146275778Y-95239345D01*
X146257055Y-95215023D01*
X146232799Y-95193020D01*
X146202202Y-95172428D01*
X146204272Y-95194726D01*
G36*
X144619521Y-94506230D02*
X144624778Y-94516222D01*
X144651370Y-94543175D01*
X144656332Y-94544445D01*
X144658257Y-94526215D01*
X144653000Y-94516222D01*
X144626409Y-94489270D01*
X144621447Y-94488000D01*
X144619521Y-94506230D01*
X144619521Y-94506230D01*
G37*
X144619521Y-94506230D02*
X144624778Y-94516222D01*
X144651370Y-94543175D01*
X144656332Y-94544445D01*
X144658257Y-94526215D01*
X144653000Y-94516222D01*
X144626409Y-94489270D01*
X144621447Y-94488000D01*
X144619521Y-94506230D01*
G36*
X145091772Y-94141809D02*
X145096061Y-94188923D01*
X145121924Y-94239986D01*
X145131579Y-94250944D01*
X145158500Y-94302672D01*
X145156782Y-94333595D01*
X145161268Y-94365928D01*
X145209722Y-94375111D01*
X145270162Y-94368126D01*
X145297408Y-94356296D01*
X145316168Y-94314344D01*
X145316223Y-94312372D01*
X145296638Y-94279278D01*
X145249186Y-94227783D01*
X145190822Y-94173795D01*
X145138500Y-94133222D01*
X145112377Y-94121111D01*
X145091772Y-94141809D01*
X145091772Y-94141809D01*
G37*
X145091772Y-94141809D02*
X145096061Y-94188923D01*
X145121924Y-94239986D01*
X145131579Y-94250944D01*
X145158500Y-94302672D01*
X145156782Y-94333595D01*
X145161268Y-94365928D01*
X145209722Y-94375111D01*
X145270162Y-94368126D01*
X145297408Y-94356296D01*
X145316168Y-94314344D01*
X145316223Y-94312372D01*
X145296638Y-94279278D01*
X145249186Y-94227783D01*
X145190822Y-94173795D01*
X145138500Y-94133222D01*
X145112377Y-94121111D01*
X145091772Y-94141809D01*
G36*
X143913966Y-93744230D02*
X143919223Y-93754222D01*
X143945814Y-93781175D01*
X143950776Y-93782445D01*
X143952702Y-93764215D01*
X143947445Y-93754222D01*
X143920853Y-93727270D01*
X143915891Y-93726000D01*
X143913966Y-93744230D01*
X143913966Y-93744230D01*
G37*
X143913966Y-93744230D02*
X143919223Y-93754222D01*
X143945814Y-93781175D01*
X143950776Y-93782445D01*
X143952702Y-93764215D01*
X143947445Y-93754222D01*
X143920853Y-93727270D01*
X143915891Y-93726000D01*
X143913966Y-93744230D01*
G36*
X143801077Y-93631341D02*
X143806334Y-93641334D01*
X143832925Y-93668286D01*
X143837887Y-93669556D01*
X143839813Y-93651326D01*
X143834556Y-93641334D01*
X143807965Y-93614381D01*
X143803003Y-93613111D01*
X143801077Y-93631341D01*
X143801077Y-93631341D01*
G37*
X143801077Y-93631341D02*
X143806334Y-93641334D01*
X143832925Y-93668286D01*
X143837887Y-93669556D01*
X143839813Y-93651326D01*
X143834556Y-93641334D01*
X143807965Y-93614381D01*
X143803003Y-93613111D01*
X143801077Y-93631341D01*
G36*
X144262380Y-93160605D02*
X144239592Y-93179456D01*
X144195947Y-93237867D01*
X144192128Y-93288964D01*
X144222611Y-93315465D01*
X144301997Y-93334354D01*
X144385451Y-93345682D01*
X144451941Y-93347398D01*
X144478811Y-93340449D01*
X144471195Y-93312283D01*
X144430473Y-93261580D01*
X144394996Y-93226641D01*
X144332016Y-93171800D01*
X144293222Y-93151431D01*
X144262380Y-93160605D01*
X144262380Y-93160605D01*
G37*
X144262380Y-93160605D02*
X144239592Y-93179456D01*
X144195947Y-93237867D01*
X144192128Y-93288964D01*
X144222611Y-93315465D01*
X144301997Y-93334354D01*
X144385451Y-93345682D01*
X144451941Y-93347398D01*
X144478811Y-93340449D01*
X144471195Y-93312283D01*
X144430473Y-93261580D01*
X144394996Y-93226641D01*
X144332016Y-93171800D01*
X144293222Y-93151431D01*
X144262380Y-93160605D01*
G36*
X143934570Y-92920903D02*
X143909802Y-92961423D01*
X143905111Y-92993888D01*
X143922550Y-93037097D01*
X143975667Y-93048667D01*
X144030550Y-93035182D01*
X144046223Y-93009789D01*
X144026704Y-92960128D01*
X143983228Y-92923823D01*
X143938414Y-92918880D01*
X143934570Y-92920903D01*
X143934570Y-92920903D01*
G37*
X143934570Y-92920903D02*
X143909802Y-92961423D01*
X143905111Y-92993888D01*
X143922550Y-93037097D01*
X143975667Y-93048667D01*
X144030550Y-93035182D01*
X144046223Y-93009789D01*
X144026704Y-92960128D01*
X143983228Y-92923823D01*
X143938414Y-92918880D01*
X143934570Y-92920903D01*
G36*
X143825830Y-92809402D02*
X143820445Y-92822889D01*
X143840701Y-92850303D01*
X143847001Y-92851111D01*
X143885224Y-92830597D01*
X143891000Y-92822889D01*
X143884602Y-92798728D01*
X143864444Y-92794667D01*
X143825830Y-92809402D01*
X143825830Y-92809402D01*
G37*
X143825830Y-92809402D02*
X143820445Y-92822889D01*
X143840701Y-92850303D01*
X143847001Y-92851111D01*
X143885224Y-92830597D01*
X143891000Y-92822889D01*
X143884602Y-92798728D01*
X143864444Y-92794667D01*
X143825830Y-92809402D01*
G36*
X145586086Y-92277010D02*
X145525749Y-92324520D01*
X145457620Y-92388698D01*
X145393694Y-92457266D01*
X145345962Y-92517945D01*
X145326418Y-92558458D01*
X145327646Y-92564540D01*
X145373869Y-92595109D01*
X145437247Y-92578969D01*
X145483462Y-92542761D01*
X145522134Y-92477173D01*
X145523109Y-92432187D01*
X145525299Y-92386521D01*
X145571828Y-92366956D01*
X145574304Y-92366593D01*
X145619302Y-92345387D01*
X145648559Y-92308134D01*
X145653243Y-92273083D01*
X145626638Y-92258445D01*
X145586086Y-92277010D01*
X145586086Y-92277010D01*
G37*
X145586086Y-92277010D02*
X145525749Y-92324520D01*
X145457620Y-92388698D01*
X145393694Y-92457266D01*
X145345962Y-92517945D01*
X145326418Y-92558458D01*
X145327646Y-92564540D01*
X145373869Y-92595109D01*
X145437247Y-92578969D01*
X145483462Y-92542761D01*
X145522134Y-92477173D01*
X145523109Y-92432187D01*
X145525299Y-92386521D01*
X145571828Y-92366956D01*
X145574304Y-92366593D01*
X145619302Y-92345387D01*
X145648559Y-92308134D01*
X145653243Y-92273083D01*
X145626638Y-92258445D01*
X145586086Y-92277010D01*
G36*
X146308969Y-91598116D02*
X146318111Y-91637556D01*
X146357252Y-91664595D01*
X146395883Y-91648021D01*
X146398150Y-91644611D01*
X146391394Y-91610550D01*
X146373086Y-91588448D01*
X146332140Y-91573688D01*
X146308969Y-91598116D01*
X146308969Y-91598116D01*
G37*
X146308969Y-91598116D02*
X146318111Y-91637556D01*
X146357252Y-91664595D01*
X146395883Y-91648021D01*
X146398150Y-91644611D01*
X146391394Y-91610550D01*
X146373086Y-91588448D01*
X146332140Y-91573688D01*
X146308969Y-91598116D01*
G36*
X142691556Y-91425889D02*
X142664632Y-91451250D01*
X142663334Y-91455777D01*
X142685169Y-91467899D01*
X142691556Y-91468222D01*
X142718694Y-91446526D01*
X142719778Y-91438335D01*
X142702488Y-91421479D01*
X142691556Y-91425889D01*
X142691556Y-91425889D01*
G37*
X142691556Y-91425889D02*
X142664632Y-91451250D01*
X142663334Y-91455777D01*
X142685169Y-91467899D01*
X142691556Y-91468222D01*
X142718694Y-91446526D01*
X142719778Y-91438335D01*
X142702488Y-91421479D01*
X142691556Y-91425889D01*
M02*
