M48
;DRILL file {KiCad 4.0.7-e2-6376~61~ubuntu18.04.1} date Thu Dec  5 21:04:36 2019
;FORMAT={-:-/ absolute / inch / decimal}
FMAT,2
INCH,TZ
T1C0.010
T2C0.018
T3C0.039
T4C0.055
T5C0.083
T6C0.035
T7C0.126
%
G90
G05
M72
T1
X0.19Y-0.74
X0.23Y-0.74
X0.23Y-1.03
X0.26Y-1.14
X0.62Y-0.5
X0.65Y-0.48
X0.67Y-0.41
X0.67Y-0.45
X0.72Y-0.35
X0.78Y-0.27
X0.82Y-0.27
X0.86Y-0.28
X0.91Y-0.56
X0.92Y-0.52
X0.94Y-0.39
X0.95Y-0.49
X0.96Y-0.6
X0.98Y-0.46
X0.98Y-0.94
X1.Y-0.43
X1.01Y-0.96
X1.04Y-0.94
T2
X0.23Y-1.19
X0.35Y-1.2
X0.35Y-1.29
X0.52Y-1.1
X0.56Y-0.83
X0.835Y-0.6
X0.85Y-1.7454
X0.86Y-0.4
X0.9Y-0.9
X0.92Y-0.6
X0.95Y-0.76
X0.97Y-1.9
X1.28Y-1.14
T3
X0.8858Y-1.6732
X0.9843Y-1.6732
X1.0827Y-1.6732
X1.711Y-0.5236
X1.711Y-0.6236
X1.711Y-0.7236
X1.711Y-0.8236
X1.711Y-0.9236
X1.711Y-1.0236
X1.711Y-1.1236
X1.711Y-1.2236
X1.711Y-1.3236
X1.711Y-1.4236
X1.811Y-0.5236
X1.811Y-0.6236
X1.811Y-0.7236
X1.811Y-0.8236
X1.811Y-0.9236
X1.811Y-1.0236
X1.811Y-1.1236
X1.811Y-1.2236
X1.811Y-1.3236
X1.811Y-1.4236
T4
X0.6673Y-2.1654
X0.6673Y-2.6378
X1.0138Y-2.1654
X1.0138Y-2.6378
X1.3012Y-2.1654
X1.3012Y-2.6378
T5
X0.7638Y-1.378
X1.2047Y-1.378
T6
X0.1934Y-2.5921
X0.3666Y-2.5921
T7
X0.1575Y-0.1575
X0.1575Y-1.811
X1.811Y-0.1575
X1.811Y-1.811
T0
M30
