G04 #@! TF.FileFunction,Soldermask,Top*
%FSLAX46Y46*%
G04 Gerber Fmt 4.6, Leading zero omitted, Abs format (unit mm)*
G04 Created by KiCad (PCBNEW 4.0.7-e2-6376~61~ubuntu18.04.1) date Thu Dec  5 21:04:39 2019*
%MOMM*%
%LPD*%
G01*
G04 APERTURE LIST*
%ADD10C,0.100000*%
%ADD11C,2.000000*%
%ADD12R,0.900000X3.200000*%
%ADD13R,2.400000X2.900000*%
%ADD14C,1.300000*%
%ADD15C,3.600000*%
%ADD16R,1.650000X1.400000*%
%ADD17R,1.400000X1.650000*%
%ADD18R,1.700000X1.900000*%
%ADD19R,1.900000X1.700000*%
%ADD20R,2.150000X0.850000*%
%ADD21R,0.950000X2.000000*%
%ADD22R,2.000000X0.950000*%
%ADD23R,2.400000X4.900000*%
%ADD24R,1.600000X1.600000*%
%ADD25R,2.100000X2.100000*%
%ADD26O,2.100000X2.100000*%
%ADD27C,3.400000*%
%ADD28C,1.924000*%
G04 APERTURE END LIST*
D10*
D11*
X11176000Y-37084000D03*
X16256000Y-16764000D03*
X9000000Y-4000000D03*
X41000000Y-68000000D03*
D12*
X5512000Y-62990000D03*
X6312000Y-62990000D03*
X7112000Y-62990000D03*
X7912000Y-62990000D03*
X8712000Y-62990000D03*
D13*
X2662000Y-63340000D03*
X2662000Y-68840000D03*
X11562000Y-63340000D03*
X11562000Y-68840000D03*
D14*
X4912000Y-65840000D03*
X9312000Y-65840000D03*
D15*
X4000000Y-46000000D03*
X46000000Y-46000000D03*
X46000000Y-4000000D03*
D16*
X1524000Y-58150000D03*
X1524000Y-56150000D03*
X13716000Y-34052000D03*
X13716000Y-36052000D03*
X1524000Y-27956000D03*
X1524000Y-29956000D03*
X13716000Y-31988000D03*
X13716000Y-29988000D03*
X4064000Y-23352000D03*
X4064000Y-21352000D03*
X24892000Y-6080000D03*
X24892000Y-4080000D03*
X22860000Y-19320000D03*
X22860000Y-21320000D03*
X33020000Y-22876000D03*
X33020000Y-24876000D03*
X33020000Y-14716000D03*
X33020000Y-12716000D03*
X34036000Y-30972000D03*
X34036000Y-28972000D03*
D17*
X31004000Y-50292000D03*
X33004000Y-50292000D03*
D16*
X16256000Y-30972000D03*
X16256000Y-28972000D03*
D17*
X31004000Y-62484000D03*
X33004000Y-62484000D03*
D18*
X3810000Y-58500000D03*
X3810000Y-55800000D03*
X1524000Y-23702000D03*
X1524000Y-21002000D03*
X33020000Y-20146000D03*
X33020000Y-17446000D03*
D19*
X26082000Y-48260000D03*
X28782000Y-48260000D03*
X26082000Y-50292000D03*
X28782000Y-50292000D03*
D18*
X16256000Y-35894000D03*
X16256000Y-33194000D03*
X34036000Y-35894000D03*
X34036000Y-33194000D03*
X34036000Y-40974000D03*
X34036000Y-38274000D03*
X16256000Y-40974000D03*
X16256000Y-38274000D03*
D19*
X26082000Y-60452000D03*
X28782000Y-60452000D03*
X26082000Y-62484000D03*
X28782000Y-62484000D03*
D20*
X4020000Y-26255000D03*
X4020000Y-26905000D03*
X4020000Y-27555000D03*
X4020000Y-28205000D03*
X4020000Y-28855000D03*
X4020000Y-29505000D03*
X4020000Y-30155000D03*
X4020000Y-30805000D03*
X4020000Y-31455000D03*
X4020000Y-32105000D03*
X4020000Y-32755000D03*
X4020000Y-33405000D03*
X4020000Y-34055000D03*
X4020000Y-34705000D03*
X11220000Y-34705000D03*
X11220000Y-34055000D03*
X11220000Y-33405000D03*
X11220000Y-32755000D03*
X11220000Y-32105000D03*
X11220000Y-31455000D03*
X11220000Y-30805000D03*
X11220000Y-30155000D03*
X11220000Y-29505000D03*
X11220000Y-28855000D03*
X11220000Y-28205000D03*
X11220000Y-27555000D03*
X11220000Y-26905000D03*
X11220000Y-26255000D03*
D21*
X19912000Y-16968000D03*
X20712000Y-16968000D03*
X21512000Y-16968000D03*
X22312000Y-16968000D03*
X23112000Y-16968000D03*
X23912000Y-16968000D03*
X24712000Y-16968000D03*
X25512000Y-16968000D03*
D22*
X26962000Y-15518000D03*
X26962000Y-14718000D03*
X26962000Y-13918000D03*
X26962000Y-13118000D03*
X26962000Y-12318000D03*
X26962000Y-11518000D03*
X26962000Y-10718000D03*
X26962000Y-9918000D03*
D21*
X25512000Y-8468000D03*
X24712000Y-8468000D03*
X23912000Y-8468000D03*
X23112000Y-8468000D03*
X22312000Y-8468000D03*
X21512000Y-8468000D03*
X20712000Y-8468000D03*
X19912000Y-8468000D03*
D22*
X18462000Y-9918000D03*
X18462000Y-10718000D03*
X18462000Y-11518000D03*
X18462000Y-12318000D03*
X18462000Y-13118000D03*
X18462000Y-13918000D03*
X18462000Y-14718000D03*
X18462000Y-15518000D03*
D23*
X37084000Y-14546000D03*
X37084000Y-23046000D03*
D15*
X4000000Y-4000000D03*
D24*
X10668000Y-21252000D03*
X10668000Y-23452000D03*
X8636000Y-21252000D03*
X8636000Y-23452000D03*
X45212000Y-56812000D03*
X45212000Y-59012000D03*
X42672000Y-56812000D03*
X42672000Y-59012000D03*
D18*
X12700000Y-21002000D03*
X12700000Y-23702000D03*
X6604000Y-21002000D03*
X6604000Y-23702000D03*
X45212000Y-61134000D03*
X45212000Y-63834000D03*
X42672000Y-61134000D03*
X42672000Y-63834000D03*
D25*
X43460000Y-13300000D03*
D26*
X46000000Y-13300000D03*
X43460000Y-15840000D03*
X46000000Y-15840000D03*
X43460000Y-18380000D03*
X46000000Y-18380000D03*
X43460000Y-20920000D03*
X46000000Y-20920000D03*
X43460000Y-23460000D03*
X46000000Y-23460000D03*
X43460000Y-26000000D03*
X46000000Y-26000000D03*
X43460000Y-28540000D03*
X46000000Y-28540000D03*
X43460000Y-31080000D03*
X46000000Y-31080000D03*
X43460000Y-33620000D03*
X46000000Y-33620000D03*
X43460000Y-36160000D03*
X46000000Y-36160000D03*
D27*
X33050000Y-55000000D03*
X16950000Y-55000000D03*
X25750000Y-55000000D03*
X33050000Y-67000000D03*
X16950000Y-67000000D03*
X25750000Y-67000000D03*
D28*
X22500000Y-42500000D03*
X25000000Y-42500000D03*
X27500000Y-42500000D03*
D27*
X19400000Y-35000000D03*
X30600000Y-35000000D03*
D11*
X41000000Y-4000000D03*
M02*
