G04 #@! TF.FileFunction,Legend,Top*
%FSLAX46Y46*%
G04 Gerber Fmt 4.6, Leading zero omitted, Abs format (unit mm)*
G04 Created by KiCad (PCBNEW 4.0.7-e2-6376~61~ubuntu18.04.1) date Thu Dec  5 21:04:39 2019*
%MOMM*%
%LPD*%
G01*
G04 APERTURE LIST*
%ADD10C,0.100000*%
%ADD11C,0.254000*%
%ADD12C,0.120000*%
%ADD13C,0.150000*%
%ADD14C,0.152400*%
G04 APERTURE END LIST*
D10*
D11*
X9095619Y-15917333D02*
X8611810Y-16255999D01*
X9095619Y-16497904D02*
X8079619Y-16497904D01*
X8079619Y-16110857D01*
X8128000Y-16014095D01*
X8176381Y-15965714D01*
X8273143Y-15917333D01*
X8418286Y-15917333D01*
X8515048Y-15965714D01*
X8563429Y-16014095D01*
X8611810Y-16110857D01*
X8611810Y-16497904D01*
X8079619Y-15578666D02*
X9095619Y-14901333D01*
X8079619Y-14901333D02*
X9095619Y-15578666D01*
X10111619Y-16522095D02*
X10111619Y-15941524D01*
X11127619Y-16231809D02*
X10111619Y-16231809D01*
X10111619Y-15699619D02*
X11127619Y-15022286D01*
X10111619Y-15022286D02*
X11127619Y-15699619D01*
D12*
X3262000Y-70290000D02*
X10962000Y-70290000D01*
X3262000Y-71290000D02*
X10962000Y-71290000D01*
X10962000Y-71290000D02*
X10962000Y-62090000D01*
X10962000Y-62090000D02*
X3262000Y-62090000D01*
X3262000Y-62090000D02*
X3262000Y-71290000D01*
X674000Y-56650000D02*
X674000Y-57650000D01*
X2374000Y-57650000D02*
X2374000Y-56650000D01*
X14566000Y-35552000D02*
X14566000Y-34552000D01*
X12866000Y-34552000D02*
X12866000Y-35552000D01*
X2374000Y-29456000D02*
X2374000Y-28456000D01*
X674000Y-28456000D02*
X674000Y-29456000D01*
X12866000Y-30488000D02*
X12866000Y-31488000D01*
X14566000Y-31488000D02*
X14566000Y-30488000D01*
X3214000Y-21852000D02*
X3214000Y-22852000D01*
X4914000Y-22852000D02*
X4914000Y-21852000D01*
X24042000Y-4580000D02*
X24042000Y-5580000D01*
X25742000Y-5580000D02*
X25742000Y-4580000D01*
X23710000Y-20820000D02*
X23710000Y-19820000D01*
X22010000Y-19820000D02*
X22010000Y-20820000D01*
X33870000Y-24376000D02*
X33870000Y-23376000D01*
X32170000Y-23376000D02*
X32170000Y-24376000D01*
X32170000Y-13216000D02*
X32170000Y-14216000D01*
X33870000Y-14216000D02*
X33870000Y-13216000D01*
X33186000Y-29472000D02*
X33186000Y-30472000D01*
X34886000Y-30472000D02*
X34886000Y-29472000D01*
X32504000Y-49442000D02*
X31504000Y-49442000D01*
X31504000Y-51142000D02*
X32504000Y-51142000D01*
X15406000Y-29472000D02*
X15406000Y-30472000D01*
X17106000Y-30472000D02*
X17106000Y-29472000D01*
X32504000Y-61634000D02*
X31504000Y-61634000D01*
X31504000Y-63334000D02*
X32504000Y-63334000D01*
X4690000Y-56550000D02*
X4690000Y-57750000D01*
X2930000Y-57750000D02*
X2930000Y-56550000D01*
X2404000Y-21752000D02*
X2404000Y-22952000D01*
X644000Y-22952000D02*
X644000Y-21752000D01*
X33900000Y-18196000D02*
X33900000Y-19396000D01*
X32140000Y-19396000D02*
X32140000Y-18196000D01*
X28032000Y-49140000D02*
X26832000Y-49140000D01*
X26832000Y-47380000D02*
X28032000Y-47380000D01*
X28032000Y-51172000D02*
X26832000Y-51172000D01*
X26832000Y-49412000D02*
X28032000Y-49412000D01*
X17136000Y-33944000D02*
X17136000Y-35144000D01*
X15376000Y-35144000D02*
X15376000Y-33944000D01*
X34916000Y-33944000D02*
X34916000Y-35144000D01*
X33156000Y-35144000D02*
X33156000Y-33944000D01*
X34916000Y-39024000D02*
X34916000Y-40224000D01*
X33156000Y-40224000D02*
X33156000Y-39024000D01*
X17136000Y-39024000D02*
X17136000Y-40224000D01*
X15376000Y-40224000D02*
X15376000Y-39024000D01*
X28032000Y-61332000D02*
X26832000Y-61332000D01*
X26832000Y-59572000D02*
X28032000Y-59572000D01*
X28032000Y-63364000D02*
X26832000Y-63364000D01*
X26832000Y-61604000D02*
X28032000Y-61604000D01*
D13*
X4745000Y-25155000D02*
X4745000Y-25730000D01*
X10495000Y-25155000D02*
X10495000Y-25805000D01*
X10495000Y-35805000D02*
X10495000Y-35155000D01*
X4745000Y-35805000D02*
X4745000Y-35155000D01*
X4745000Y-25155000D02*
X10495000Y-25155000D01*
X4745000Y-35805000D02*
X10495000Y-35805000D01*
X4745000Y-25730000D02*
X3145000Y-25730000D01*
X19087000Y-16343000D02*
X19312000Y-16343000D01*
X19087000Y-9093000D02*
X19412000Y-9093000D01*
X26337000Y-9093000D02*
X26012000Y-9093000D01*
X26337000Y-16343000D02*
X26012000Y-16343000D01*
X19087000Y-16343000D02*
X19087000Y-16018000D01*
X26337000Y-16343000D02*
X26337000Y-16018000D01*
X26337000Y-9093000D02*
X26337000Y-9418000D01*
X19087000Y-9093000D02*
X19087000Y-9418000D01*
X19312000Y-16343000D02*
X19312000Y-17768000D01*
D12*
X39634000Y-24696000D02*
X39634000Y-12096000D01*
X39634000Y-12096000D02*
X34534000Y-12096000D01*
X34534000Y-12096000D02*
X34534000Y-24696000D01*
X9968000Y-24152000D02*
X11368000Y-24152000D01*
X11368000Y-24152000D02*
X11368000Y-21352000D01*
X9968000Y-24152000D02*
X9968000Y-21352000D01*
X7936000Y-24152000D02*
X9336000Y-24152000D01*
X9336000Y-24152000D02*
X9336000Y-21352000D01*
X7936000Y-24152000D02*
X7936000Y-21352000D01*
X44512000Y-59712000D02*
X45912000Y-59712000D01*
X45912000Y-59712000D02*
X45912000Y-56912000D01*
X44512000Y-59712000D02*
X44512000Y-56912000D01*
X41972000Y-59712000D02*
X43372000Y-59712000D01*
X43372000Y-59712000D02*
X43372000Y-56912000D01*
X41972000Y-59712000D02*
X41972000Y-56912000D01*
X11820000Y-22952000D02*
X11820000Y-21752000D01*
X13580000Y-21752000D02*
X13580000Y-22952000D01*
X5724000Y-22952000D02*
X5724000Y-21752000D01*
X7484000Y-21752000D02*
X7484000Y-22952000D01*
X44332000Y-63084000D02*
X44332000Y-61884000D01*
X46092000Y-61884000D02*
X46092000Y-63084000D01*
X41792000Y-63084000D02*
X41792000Y-61884000D01*
X43552000Y-61884000D02*
X43552000Y-63084000D01*
X42130000Y-37490000D02*
X47330000Y-37490000D01*
X42130000Y-14570000D02*
X42130000Y-37490000D01*
X47330000Y-11970000D02*
X47330000Y-37490000D01*
X42130000Y-14570000D02*
X44730000Y-14570000D01*
X44730000Y-14570000D02*
X44730000Y-11970000D01*
X44730000Y-11970000D02*
X47330000Y-11970000D01*
X42130000Y-13300000D02*
X42130000Y-11970000D01*
X42130000Y-11970000D02*
X43460000Y-11970000D01*
D13*
X15100000Y-51800000D02*
X15100000Y-58200000D01*
X34900000Y-51800000D02*
X34900000Y-58200000D01*
X15100000Y-58200000D02*
X34900000Y-58200000D01*
X15100000Y-51800000D02*
X34900000Y-51800000D01*
X15100000Y-63800000D02*
X15100000Y-70200000D01*
X34900000Y-63800000D02*
X34900000Y-70200000D01*
X15100000Y-70200000D02*
X34900000Y-70200000D01*
X15100000Y-63800000D02*
X34900000Y-63800000D01*
X31200000Y-28300000D02*
X31200000Y-41700000D01*
X18800000Y-28300000D02*
X18800000Y-41700000D01*
X18800000Y-41700000D02*
X31200000Y-41700000D01*
X18800000Y-28300000D02*
X31200000Y-28300000D01*
D14*
X3285067Y-60514895D02*
X3285067Y-61095467D01*
X3246363Y-61211581D01*
X3168953Y-61288990D01*
X3052839Y-61327695D01*
X2975429Y-61327695D01*
X4097867Y-61327695D02*
X3633410Y-61327695D01*
X3865639Y-61327695D02*
X3865639Y-60514895D01*
X3788229Y-60631010D01*
X3710820Y-60708419D01*
X3633410Y-60747124D01*
X1814286Y-53983466D02*
X1852990Y-54022171D01*
X1891695Y-54138285D01*
X1891695Y-54215695D01*
X1852990Y-54331809D01*
X1775581Y-54409218D01*
X1698171Y-54447923D01*
X1543352Y-54486628D01*
X1427238Y-54486628D01*
X1272419Y-54447923D01*
X1195010Y-54409218D01*
X1117600Y-54331809D01*
X1078895Y-54215695D01*
X1078895Y-54138285D01*
X1117600Y-54022171D01*
X1156305Y-53983466D01*
X1891695Y-53209371D02*
X1891695Y-53673828D01*
X1891695Y-53441599D02*
X1078895Y-53441599D01*
X1195010Y-53519009D01*
X1272419Y-53596418D01*
X1311124Y-53673828D01*
X14006286Y-37727466D02*
X14044990Y-37766171D01*
X14083695Y-37882285D01*
X14083695Y-37959695D01*
X14044990Y-38075809D01*
X13967581Y-38153218D01*
X13890171Y-38191923D01*
X13735352Y-38230628D01*
X13619238Y-38230628D01*
X13464419Y-38191923D01*
X13387010Y-38153218D01*
X13309600Y-38075809D01*
X13270895Y-37959695D01*
X13270895Y-37882285D01*
X13309600Y-37766171D01*
X13348305Y-37727466D01*
X13348305Y-37417828D02*
X13309600Y-37379123D01*
X13270895Y-37301714D01*
X13270895Y-37108190D01*
X13309600Y-37030780D01*
X13348305Y-36992076D01*
X13425714Y-36953371D01*
X13503124Y-36953371D01*
X13619238Y-36992076D01*
X14083695Y-37456533D01*
X14083695Y-36953371D01*
X1814286Y-32139466D02*
X1852990Y-32178171D01*
X1891695Y-32294285D01*
X1891695Y-32371695D01*
X1852990Y-32487809D01*
X1775581Y-32565218D01*
X1698171Y-32603923D01*
X1543352Y-32642628D01*
X1427238Y-32642628D01*
X1272419Y-32603923D01*
X1195010Y-32565218D01*
X1117600Y-32487809D01*
X1078895Y-32371695D01*
X1078895Y-32294285D01*
X1117600Y-32178171D01*
X1156305Y-32139466D01*
X1078895Y-31868533D02*
X1078895Y-31365371D01*
X1388533Y-31636304D01*
X1388533Y-31520190D01*
X1427238Y-31442780D01*
X1465943Y-31404076D01*
X1543352Y-31365371D01*
X1736876Y-31365371D01*
X1814286Y-31404076D01*
X1852990Y-31442780D01*
X1891695Y-31520190D01*
X1891695Y-31752418D01*
X1852990Y-31829828D01*
X1814286Y-31868533D01*
X14006286Y-28583466D02*
X14044990Y-28622171D01*
X14083695Y-28738285D01*
X14083695Y-28815695D01*
X14044990Y-28931809D01*
X13967581Y-29009218D01*
X13890171Y-29047923D01*
X13735352Y-29086628D01*
X13619238Y-29086628D01*
X13464419Y-29047923D01*
X13387010Y-29009218D01*
X13309600Y-28931809D01*
X13270895Y-28815695D01*
X13270895Y-28738285D01*
X13309600Y-28622171D01*
X13348305Y-28583466D01*
X13541829Y-27886780D02*
X14083695Y-27886780D01*
X13232190Y-28080304D02*
X13812762Y-28273828D01*
X13812762Y-27770666D01*
X4354286Y-18931466D02*
X4392990Y-18970171D01*
X4431695Y-19086285D01*
X4431695Y-19163695D01*
X4392990Y-19279809D01*
X4315581Y-19357218D01*
X4238171Y-19395923D01*
X4083352Y-19434628D01*
X3967238Y-19434628D01*
X3812419Y-19395923D01*
X3735010Y-19357218D01*
X3657600Y-19279809D01*
X3618895Y-19163695D01*
X3618895Y-19086285D01*
X3657600Y-18970171D01*
X3696305Y-18931466D01*
X3618895Y-18196076D02*
X3618895Y-18583123D01*
X4005943Y-18621828D01*
X3967238Y-18583123D01*
X3928533Y-18505714D01*
X3928533Y-18312190D01*
X3967238Y-18234780D01*
X4005943Y-18196076D01*
X4083352Y-18157371D01*
X4276876Y-18157371D01*
X4354286Y-18196076D01*
X4392990Y-18234780D01*
X4431695Y-18312190D01*
X4431695Y-18505714D01*
X4392990Y-18583123D01*
X4354286Y-18621828D01*
X23682286Y-5215466D02*
X23720990Y-5254171D01*
X23759695Y-5370285D01*
X23759695Y-5447695D01*
X23720990Y-5563809D01*
X23643581Y-5641218D01*
X23566171Y-5679923D01*
X23411352Y-5718628D01*
X23295238Y-5718628D01*
X23140419Y-5679923D01*
X23063010Y-5641218D01*
X22985600Y-5563809D01*
X22946895Y-5447695D01*
X22946895Y-5370285D01*
X22985600Y-5254171D01*
X23024305Y-5215466D01*
X22946895Y-4518780D02*
X22946895Y-4673599D01*
X22985600Y-4751009D01*
X23024305Y-4789714D01*
X23140419Y-4867123D01*
X23295238Y-4905828D01*
X23604876Y-4905828D01*
X23682286Y-4867123D01*
X23720990Y-4828418D01*
X23759695Y-4751009D01*
X23759695Y-4596190D01*
X23720990Y-4518780D01*
X23682286Y-4480076D01*
X23604876Y-4441371D01*
X23411352Y-4441371D01*
X23333943Y-4480076D01*
X23295238Y-4518780D01*
X23256533Y-4596190D01*
X23256533Y-4751009D01*
X23295238Y-4828418D01*
X23333943Y-4867123D01*
X23411352Y-4905828D01*
X21626286Y-20455466D02*
X21664990Y-20494171D01*
X21703695Y-20610285D01*
X21703695Y-20687695D01*
X21664990Y-20803809D01*
X21587581Y-20881218D01*
X21510171Y-20919923D01*
X21355352Y-20958628D01*
X21239238Y-20958628D01*
X21084419Y-20919923D01*
X21007010Y-20881218D01*
X20929600Y-20803809D01*
X20890895Y-20687695D01*
X20890895Y-20610285D01*
X20929600Y-20494171D01*
X20968305Y-20455466D01*
X20890895Y-20184533D02*
X20890895Y-19642666D01*
X21703695Y-19991009D01*
X31786286Y-24011466D02*
X31824990Y-24050171D01*
X31863695Y-24166285D01*
X31863695Y-24243695D01*
X31824990Y-24359809D01*
X31747581Y-24437218D01*
X31670171Y-24475923D01*
X31515352Y-24514628D01*
X31399238Y-24514628D01*
X31244419Y-24475923D01*
X31167010Y-24437218D01*
X31089600Y-24359809D01*
X31050895Y-24243695D01*
X31050895Y-24166285D01*
X31089600Y-24050171D01*
X31128305Y-24011466D01*
X31399238Y-23547009D02*
X31360533Y-23624418D01*
X31321829Y-23663123D01*
X31244419Y-23701828D01*
X31205714Y-23701828D01*
X31128305Y-23663123D01*
X31089600Y-23624418D01*
X31050895Y-23547009D01*
X31050895Y-23392190D01*
X31089600Y-23314780D01*
X31128305Y-23276076D01*
X31205714Y-23237371D01*
X31244419Y-23237371D01*
X31321829Y-23276076D01*
X31360533Y-23314780D01*
X31399238Y-23392190D01*
X31399238Y-23547009D01*
X31437943Y-23624418D01*
X31476648Y-23663123D01*
X31554057Y-23701828D01*
X31708876Y-23701828D01*
X31786286Y-23663123D01*
X31824990Y-23624418D01*
X31863695Y-23547009D01*
X31863695Y-23392190D01*
X31824990Y-23314780D01*
X31786286Y-23276076D01*
X31708876Y-23237371D01*
X31554057Y-23237371D01*
X31476648Y-23276076D01*
X31437943Y-23314780D01*
X31399238Y-23392190D01*
X31786286Y-13851466D02*
X31824990Y-13890171D01*
X31863695Y-14006285D01*
X31863695Y-14083695D01*
X31824990Y-14199809D01*
X31747581Y-14277218D01*
X31670171Y-14315923D01*
X31515352Y-14354628D01*
X31399238Y-14354628D01*
X31244419Y-14315923D01*
X31167010Y-14277218D01*
X31089600Y-14199809D01*
X31050895Y-14083695D01*
X31050895Y-14006285D01*
X31089600Y-13890171D01*
X31128305Y-13851466D01*
X31863695Y-13464418D02*
X31863695Y-13309599D01*
X31824990Y-13232190D01*
X31786286Y-13193485D01*
X31670171Y-13116076D01*
X31515352Y-13077371D01*
X31205714Y-13077371D01*
X31128305Y-13116076D01*
X31089600Y-13154780D01*
X31050895Y-13232190D01*
X31050895Y-13387009D01*
X31089600Y-13464418D01*
X31128305Y-13503123D01*
X31205714Y-13541828D01*
X31399238Y-13541828D01*
X31476648Y-13503123D01*
X31515352Y-13464418D01*
X31554057Y-13387009D01*
X31554057Y-13232190D01*
X31515352Y-13154780D01*
X31476648Y-13116076D01*
X31399238Y-13077371D01*
X35850286Y-30494514D02*
X35888990Y-30533219D01*
X35927695Y-30649333D01*
X35927695Y-30726743D01*
X35888990Y-30842857D01*
X35811581Y-30920266D01*
X35734171Y-30958971D01*
X35579352Y-30997676D01*
X35463238Y-30997676D01*
X35308419Y-30958971D01*
X35231010Y-30920266D01*
X35153600Y-30842857D01*
X35114895Y-30726743D01*
X35114895Y-30649333D01*
X35153600Y-30533219D01*
X35192305Y-30494514D01*
X35927695Y-29720419D02*
X35927695Y-30184876D01*
X35927695Y-29952647D02*
X35114895Y-29952647D01*
X35231010Y-30030057D01*
X35308419Y-30107466D01*
X35347124Y-30184876D01*
X35114895Y-29217257D02*
X35114895Y-29139848D01*
X35153600Y-29062438D01*
X35192305Y-29023733D01*
X35269714Y-28985029D01*
X35424533Y-28946324D01*
X35618057Y-28946324D01*
X35772876Y-28985029D01*
X35850286Y-29023733D01*
X35888990Y-29062438D01*
X35927695Y-29139848D01*
X35927695Y-29217257D01*
X35888990Y-29294667D01*
X35850286Y-29333371D01*
X35772876Y-29372076D01*
X35618057Y-29410781D01*
X35424533Y-29410781D01*
X35269714Y-29372076D01*
X35192305Y-29333371D01*
X35153600Y-29294667D01*
X35114895Y-29217257D01*
X31481486Y-49082286D02*
X31442781Y-49120990D01*
X31326667Y-49159695D01*
X31249257Y-49159695D01*
X31133143Y-49120990D01*
X31055734Y-49043581D01*
X31017029Y-48966171D01*
X30978324Y-48811352D01*
X30978324Y-48695238D01*
X31017029Y-48540419D01*
X31055734Y-48463010D01*
X31133143Y-48385600D01*
X31249257Y-48346895D01*
X31326667Y-48346895D01*
X31442781Y-48385600D01*
X31481486Y-48424305D01*
X32255581Y-49159695D02*
X31791124Y-49159695D01*
X32023353Y-49159695D02*
X32023353Y-48346895D01*
X31945943Y-48463010D01*
X31868534Y-48540419D01*
X31791124Y-48579124D01*
X33029676Y-49159695D02*
X32565219Y-49159695D01*
X32797448Y-49159695D02*
X32797448Y-48346895D01*
X32720038Y-48463010D01*
X32642629Y-48540419D01*
X32565219Y-48579124D01*
X18070286Y-32526514D02*
X18108990Y-32565219D01*
X18147695Y-32681333D01*
X18147695Y-32758743D01*
X18108990Y-32874857D01*
X18031581Y-32952266D01*
X17954171Y-32990971D01*
X17799352Y-33029676D01*
X17683238Y-33029676D01*
X17528419Y-32990971D01*
X17451010Y-32952266D01*
X17373600Y-32874857D01*
X17334895Y-32758743D01*
X17334895Y-32681333D01*
X17373600Y-32565219D01*
X17412305Y-32526514D01*
X18147695Y-31752419D02*
X18147695Y-32216876D01*
X18147695Y-31984647D02*
X17334895Y-31984647D01*
X17451010Y-32062057D01*
X17528419Y-32139466D01*
X17567124Y-32216876D01*
X17412305Y-31442781D02*
X17373600Y-31404076D01*
X17334895Y-31326667D01*
X17334895Y-31133143D01*
X17373600Y-31055733D01*
X17412305Y-31017029D01*
X17489714Y-30978324D01*
X17567124Y-30978324D01*
X17683238Y-31017029D01*
X18147695Y-31481486D01*
X18147695Y-30978324D01*
X31481486Y-61250286D02*
X31442781Y-61288990D01*
X31326667Y-61327695D01*
X31249257Y-61327695D01*
X31133143Y-61288990D01*
X31055734Y-61211581D01*
X31017029Y-61134171D01*
X30978324Y-60979352D01*
X30978324Y-60863238D01*
X31017029Y-60708419D01*
X31055734Y-60631010D01*
X31133143Y-60553600D01*
X31249257Y-60514895D01*
X31326667Y-60514895D01*
X31442781Y-60553600D01*
X31481486Y-60592305D01*
X32255581Y-61327695D02*
X31791124Y-61327695D01*
X32023353Y-61327695D02*
X32023353Y-60514895D01*
X31945943Y-60631010D01*
X31868534Y-60708419D01*
X31791124Y-60747124D01*
X32526514Y-60514895D02*
X33029676Y-60514895D01*
X32758743Y-60824533D01*
X32874857Y-60824533D01*
X32952267Y-60863238D01*
X32990971Y-60901943D01*
X33029676Y-60979352D01*
X33029676Y-61172876D01*
X32990971Y-61250286D01*
X32952267Y-61288990D01*
X32874857Y-61327695D01*
X32642629Y-61327695D01*
X32565219Y-61288990D01*
X32526514Y-61250286D01*
X4177695Y-53983467D02*
X4177695Y-54370514D01*
X3364895Y-54370514D01*
X4177695Y-53286781D02*
X4177695Y-53751238D01*
X4177695Y-53519009D02*
X3364895Y-53519009D01*
X3481010Y-53596419D01*
X3558419Y-53673828D01*
X3597124Y-53751238D01*
X1891695Y-18931466D02*
X1504648Y-19202399D01*
X1891695Y-19395923D02*
X1078895Y-19395923D01*
X1078895Y-19086285D01*
X1117600Y-19008876D01*
X1156305Y-18970171D01*
X1233714Y-18931466D01*
X1349829Y-18931466D01*
X1427238Y-18970171D01*
X1465943Y-19008876D01*
X1504648Y-19086285D01*
X1504648Y-19395923D01*
X1078895Y-18660533D02*
X1078895Y-18157371D01*
X1388533Y-18428304D01*
X1388533Y-18312190D01*
X1427238Y-18234780D01*
X1465943Y-18196076D01*
X1543352Y-18157371D01*
X1736876Y-18157371D01*
X1814286Y-18196076D01*
X1852990Y-18234780D01*
X1891695Y-18312190D01*
X1891695Y-18544418D01*
X1852990Y-18621828D01*
X1814286Y-18660533D01*
X31863695Y-18931466D02*
X31476648Y-19202399D01*
X31863695Y-19395923D02*
X31050895Y-19395923D01*
X31050895Y-19086285D01*
X31089600Y-19008876D01*
X31128305Y-18970171D01*
X31205714Y-18931466D01*
X31321829Y-18931466D01*
X31399238Y-18970171D01*
X31437943Y-19008876D01*
X31476648Y-19086285D01*
X31476648Y-19395923D01*
X31050895Y-18234780D02*
X31050895Y-18389599D01*
X31089600Y-18467009D01*
X31128305Y-18505714D01*
X31244419Y-18583123D01*
X31399238Y-18621828D01*
X31708876Y-18621828D01*
X31786286Y-18583123D01*
X31824990Y-18544418D01*
X31863695Y-18467009D01*
X31863695Y-18312190D01*
X31824990Y-18234780D01*
X31786286Y-18196076D01*
X31708876Y-18157371D01*
X31515352Y-18157371D01*
X31437943Y-18196076D01*
X31399238Y-18234780D01*
X31360533Y-18312190D01*
X31360533Y-18467009D01*
X31399238Y-18544418D01*
X31437943Y-18583123D01*
X31515352Y-18621828D01*
X23740534Y-48627695D02*
X23469601Y-48240648D01*
X23276077Y-48627695D02*
X23276077Y-47814895D01*
X23585715Y-47814895D01*
X23663124Y-47853600D01*
X23701829Y-47892305D01*
X23740534Y-47969714D01*
X23740534Y-48085829D01*
X23701829Y-48163238D01*
X23663124Y-48201943D01*
X23585715Y-48240648D01*
X23276077Y-48240648D01*
X24011467Y-47814895D02*
X24553334Y-47814895D01*
X24204991Y-48627695D01*
X23740534Y-50659695D02*
X23469601Y-50272648D01*
X23276077Y-50659695D02*
X23276077Y-49846895D01*
X23585715Y-49846895D01*
X23663124Y-49885600D01*
X23701829Y-49924305D01*
X23740534Y-50001714D01*
X23740534Y-50117829D01*
X23701829Y-50195238D01*
X23663124Y-50233943D01*
X23585715Y-50272648D01*
X23276077Y-50272648D01*
X24204991Y-50195238D02*
X24127582Y-50156533D01*
X24088877Y-50117829D01*
X24050172Y-50040419D01*
X24050172Y-50001714D01*
X24088877Y-49924305D01*
X24127582Y-49885600D01*
X24204991Y-49846895D01*
X24359810Y-49846895D01*
X24437220Y-49885600D01*
X24475924Y-49924305D01*
X24514629Y-50001714D01*
X24514629Y-50040419D01*
X24475924Y-50117829D01*
X24437220Y-50156533D01*
X24359810Y-50195238D01*
X24204991Y-50195238D01*
X24127582Y-50233943D01*
X24088877Y-50272648D01*
X24050172Y-50350057D01*
X24050172Y-50504876D01*
X24088877Y-50582286D01*
X24127582Y-50620990D01*
X24204991Y-50659695D01*
X24359810Y-50659695D01*
X24437220Y-50620990D01*
X24475924Y-50582286D01*
X24514629Y-50504876D01*
X24514629Y-50350057D01*
X24475924Y-50272648D01*
X24437220Y-50233943D01*
X24359810Y-50195238D01*
X18147695Y-37219466D02*
X17760648Y-37490399D01*
X18147695Y-37683923D02*
X17334895Y-37683923D01*
X17334895Y-37374285D01*
X17373600Y-37296876D01*
X17412305Y-37258171D01*
X17489714Y-37219466D01*
X17605829Y-37219466D01*
X17683238Y-37258171D01*
X17721943Y-37296876D01*
X17760648Y-37374285D01*
X17760648Y-37683923D01*
X18147695Y-36832418D02*
X18147695Y-36677599D01*
X18108990Y-36600190D01*
X18070286Y-36561485D01*
X17954171Y-36484076D01*
X17799352Y-36445371D01*
X17489714Y-36445371D01*
X17412305Y-36484076D01*
X17373600Y-36522780D01*
X17334895Y-36600190D01*
X17334895Y-36755009D01*
X17373600Y-36832418D01*
X17412305Y-36871123D01*
X17489714Y-36909828D01*
X17683238Y-36909828D01*
X17760648Y-36871123D01*
X17799352Y-36832418D01*
X17838057Y-36755009D01*
X17838057Y-36600190D01*
X17799352Y-36522780D01*
X17760648Y-36484076D01*
X17683238Y-36445371D01*
X35927695Y-35066514D02*
X35540648Y-35337447D01*
X35927695Y-35530971D02*
X35114895Y-35530971D01*
X35114895Y-35221333D01*
X35153600Y-35143924D01*
X35192305Y-35105219D01*
X35269714Y-35066514D01*
X35385829Y-35066514D01*
X35463238Y-35105219D01*
X35501943Y-35143924D01*
X35540648Y-35221333D01*
X35540648Y-35530971D01*
X35927695Y-34292419D02*
X35927695Y-34756876D01*
X35927695Y-34524647D02*
X35114895Y-34524647D01*
X35231010Y-34602057D01*
X35308419Y-34679466D01*
X35347124Y-34756876D01*
X35114895Y-33789257D02*
X35114895Y-33711848D01*
X35153600Y-33634438D01*
X35192305Y-33595733D01*
X35269714Y-33557029D01*
X35424533Y-33518324D01*
X35618057Y-33518324D01*
X35772876Y-33557029D01*
X35850286Y-33595733D01*
X35888990Y-33634438D01*
X35927695Y-33711848D01*
X35927695Y-33789257D01*
X35888990Y-33866667D01*
X35850286Y-33905371D01*
X35772876Y-33944076D01*
X35618057Y-33982781D01*
X35424533Y-33982781D01*
X35269714Y-33944076D01*
X35192305Y-33905371D01*
X35153600Y-33866667D01*
X35114895Y-33789257D01*
D13*
X36012381Y-40266857D02*
X35536190Y-40600191D01*
X36012381Y-40838286D02*
X35012381Y-40838286D01*
X35012381Y-40457333D01*
X35060000Y-40362095D01*
X35107619Y-40314476D01*
X35202857Y-40266857D01*
X35345714Y-40266857D01*
X35440952Y-40314476D01*
X35488571Y-40362095D01*
X35536190Y-40457333D01*
X35536190Y-40838286D01*
X36012381Y-39314476D02*
X36012381Y-39885905D01*
X36012381Y-39600191D02*
X35012381Y-39600191D01*
X35155238Y-39695429D01*
X35250476Y-39790667D01*
X35298095Y-39885905D01*
X36012381Y-38362095D02*
X36012381Y-38933524D01*
X36012381Y-38647810D02*
X35012381Y-38647810D01*
X35155238Y-38743048D01*
X35250476Y-38838286D01*
X35298095Y-38933524D01*
D14*
X18147695Y-42686514D02*
X17760648Y-42957447D01*
X18147695Y-43150971D02*
X17334895Y-43150971D01*
X17334895Y-42841333D01*
X17373600Y-42763924D01*
X17412305Y-42725219D01*
X17489714Y-42686514D01*
X17605829Y-42686514D01*
X17683238Y-42725219D01*
X17721943Y-42763924D01*
X17760648Y-42841333D01*
X17760648Y-43150971D01*
X18147695Y-41912419D02*
X18147695Y-42376876D01*
X18147695Y-42144647D02*
X17334895Y-42144647D01*
X17451010Y-42222057D01*
X17528419Y-42299466D01*
X17567124Y-42376876D01*
X17412305Y-41602781D02*
X17373600Y-41564076D01*
X17334895Y-41486667D01*
X17334895Y-41293143D01*
X17373600Y-41215733D01*
X17412305Y-41177029D01*
X17489714Y-41138324D01*
X17567124Y-41138324D01*
X17683238Y-41177029D01*
X18147695Y-41641486D01*
X18147695Y-41138324D01*
X23353486Y-60819695D02*
X23082553Y-60432648D01*
X22889029Y-60819695D02*
X22889029Y-60006895D01*
X23198667Y-60006895D01*
X23276076Y-60045600D01*
X23314781Y-60084305D01*
X23353486Y-60161714D01*
X23353486Y-60277829D01*
X23314781Y-60355238D01*
X23276076Y-60393943D01*
X23198667Y-60432648D01*
X22889029Y-60432648D01*
X24127581Y-60819695D02*
X23663124Y-60819695D01*
X23895353Y-60819695D02*
X23895353Y-60006895D01*
X23817943Y-60123010D01*
X23740534Y-60200419D01*
X23663124Y-60239124D01*
X24398514Y-60006895D02*
X24901676Y-60006895D01*
X24630743Y-60316533D01*
X24746857Y-60316533D01*
X24824267Y-60355238D01*
X24862971Y-60393943D01*
X24901676Y-60471352D01*
X24901676Y-60664876D01*
X24862971Y-60742286D01*
X24824267Y-60780990D01*
X24746857Y-60819695D01*
X24514629Y-60819695D01*
X24437219Y-60780990D01*
X24398514Y-60742286D01*
X23353486Y-62851695D02*
X23082553Y-62464648D01*
X22889029Y-62851695D02*
X22889029Y-62038895D01*
X23198667Y-62038895D01*
X23276076Y-62077600D01*
X23314781Y-62116305D01*
X23353486Y-62193714D01*
X23353486Y-62309829D01*
X23314781Y-62387238D01*
X23276076Y-62425943D01*
X23198667Y-62464648D01*
X22889029Y-62464648D01*
X24127581Y-62851695D02*
X23663124Y-62851695D01*
X23895353Y-62851695D02*
X23895353Y-62038895D01*
X23817943Y-62155010D01*
X23740534Y-62232419D01*
X23663124Y-62271124D01*
X24824267Y-62309829D02*
X24824267Y-62851695D01*
X24630743Y-62000190D02*
X24437219Y-62580762D01*
X24940381Y-62580762D01*
X2936724Y-24446895D02*
X2936724Y-25104876D01*
X2975429Y-25182286D01*
X3014133Y-25220990D01*
X3091543Y-25259695D01*
X3246362Y-25259695D01*
X3323771Y-25220990D01*
X3362476Y-25182286D01*
X3401181Y-25104876D01*
X3401181Y-24446895D01*
X4213981Y-25259695D02*
X3749524Y-25259695D01*
X3981753Y-25259695D02*
X3981753Y-24446895D01*
X3904343Y-24563010D01*
X3826934Y-24640419D01*
X3749524Y-24679124D01*
X17668724Y-16826895D02*
X17668724Y-17484876D01*
X17707429Y-17562286D01*
X17746133Y-17600990D01*
X17823543Y-17639695D01*
X17978362Y-17639695D01*
X18055771Y-17600990D01*
X18094476Y-17562286D01*
X18133181Y-17484876D01*
X18133181Y-16826895D01*
X18481524Y-16904305D02*
X18520229Y-16865600D01*
X18597638Y-16826895D01*
X18791162Y-16826895D01*
X18868572Y-16865600D01*
X18907276Y-16904305D01*
X18945981Y-16981714D01*
X18945981Y-17059124D01*
X18907276Y-17175238D01*
X18442819Y-17639695D01*
X18945981Y-17639695D01*
X35032648Y-25787047D02*
X35419695Y-25787047D01*
X34606895Y-26057980D02*
X35032648Y-25787047D01*
X34606895Y-25516114D01*
X35419695Y-24819428D02*
X35419695Y-25283885D01*
X35419695Y-25051656D02*
X34606895Y-25051656D01*
X34723010Y-25129066D01*
X34800419Y-25206475D01*
X34839124Y-25283885D01*
X11035695Y-19395923D02*
X10222895Y-19395923D01*
X10222895Y-19202399D01*
X10261600Y-19086285D01*
X10339010Y-19008876D01*
X10416419Y-18970171D01*
X10571238Y-18931466D01*
X10687352Y-18931466D01*
X10842171Y-18970171D01*
X10919581Y-19008876D01*
X10996990Y-19086285D01*
X11035695Y-19202399D01*
X11035695Y-19395923D01*
X11035695Y-18157371D02*
X11035695Y-18621828D01*
X11035695Y-18389599D02*
X10222895Y-18389599D01*
X10339010Y-18467009D01*
X10416419Y-18544418D01*
X10455124Y-18621828D01*
X9003695Y-19395923D02*
X8190895Y-19395923D01*
X8190895Y-19202399D01*
X8229600Y-19086285D01*
X8307010Y-19008876D01*
X8384419Y-18970171D01*
X8539238Y-18931466D01*
X8655352Y-18931466D01*
X8810171Y-18970171D01*
X8887581Y-19008876D01*
X8964990Y-19086285D01*
X9003695Y-19202399D01*
X9003695Y-19395923D01*
X8268305Y-18621828D02*
X8229600Y-18583123D01*
X8190895Y-18505714D01*
X8190895Y-18312190D01*
X8229600Y-18234780D01*
X8268305Y-18196076D01*
X8345714Y-18157371D01*
X8423124Y-18157371D01*
X8539238Y-18196076D01*
X9003695Y-18660533D01*
X9003695Y-18157371D01*
X47103695Y-58511923D02*
X46290895Y-58511923D01*
X46290895Y-58318399D01*
X46329600Y-58202285D01*
X46407010Y-58124876D01*
X46484419Y-58086171D01*
X46639238Y-58047466D01*
X46755352Y-58047466D01*
X46910171Y-58086171D01*
X46987581Y-58124876D01*
X47064990Y-58202285D01*
X47103695Y-58318399D01*
X47103695Y-58511923D01*
X46290895Y-57776533D02*
X46290895Y-57273371D01*
X46600533Y-57544304D01*
X46600533Y-57428190D01*
X46639238Y-57350780D01*
X46677943Y-57312076D01*
X46755352Y-57273371D01*
X46948876Y-57273371D01*
X47026286Y-57312076D01*
X47064990Y-57350780D01*
X47103695Y-57428190D01*
X47103695Y-57660418D01*
X47064990Y-57737828D01*
X47026286Y-57776533D01*
X41589695Y-58511923D02*
X40776895Y-58511923D01*
X40776895Y-58318399D01*
X40815600Y-58202285D01*
X40893010Y-58124876D01*
X40970419Y-58086171D01*
X41125238Y-58047466D01*
X41241352Y-58047466D01*
X41396171Y-58086171D01*
X41473581Y-58124876D01*
X41550990Y-58202285D01*
X41589695Y-58318399D01*
X41589695Y-58511923D01*
X41047829Y-57350780D02*
X41589695Y-57350780D01*
X40738190Y-57544304D02*
X41318762Y-57737828D01*
X41318762Y-57234666D01*
X13067695Y-18931466D02*
X12680648Y-19202399D01*
X13067695Y-19395923D02*
X12254895Y-19395923D01*
X12254895Y-19086285D01*
X12293600Y-19008876D01*
X12332305Y-18970171D01*
X12409714Y-18931466D01*
X12525829Y-18931466D01*
X12603238Y-18970171D01*
X12641943Y-19008876D01*
X12680648Y-19086285D01*
X12680648Y-19395923D01*
X13067695Y-18157371D02*
X13067695Y-18621828D01*
X13067695Y-18389599D02*
X12254895Y-18389599D01*
X12371010Y-18467009D01*
X12448419Y-18544418D01*
X12487124Y-18621828D01*
X6971695Y-18931466D02*
X6584648Y-19202399D01*
X6971695Y-19395923D02*
X6158895Y-19395923D01*
X6158895Y-19086285D01*
X6197600Y-19008876D01*
X6236305Y-18970171D01*
X6313714Y-18931466D01*
X6429829Y-18931466D01*
X6507238Y-18970171D01*
X6545943Y-19008876D01*
X6584648Y-19086285D01*
X6584648Y-19395923D01*
X6236305Y-18621828D02*
X6197600Y-18583123D01*
X6158895Y-18505714D01*
X6158895Y-18312190D01*
X6197600Y-18234780D01*
X6236305Y-18196076D01*
X6313714Y-18157371D01*
X6391124Y-18157371D01*
X6507238Y-18196076D01*
X6971695Y-18660533D01*
X6971695Y-18157371D01*
X47103695Y-62619466D02*
X46716648Y-62890399D01*
X47103695Y-63083923D02*
X46290895Y-63083923D01*
X46290895Y-62774285D01*
X46329600Y-62696876D01*
X46368305Y-62658171D01*
X46445714Y-62619466D01*
X46561829Y-62619466D01*
X46639238Y-62658171D01*
X46677943Y-62696876D01*
X46716648Y-62774285D01*
X46716648Y-63083923D01*
X46561829Y-61922780D02*
X47103695Y-61922780D01*
X46252190Y-62116304D02*
X46832762Y-62309828D01*
X46832762Y-61806666D01*
X41515695Y-62619466D02*
X41128648Y-62890399D01*
X41515695Y-63083923D02*
X40702895Y-63083923D01*
X40702895Y-62774285D01*
X40741600Y-62696876D01*
X40780305Y-62658171D01*
X40857714Y-62619466D01*
X40973829Y-62619466D01*
X41051238Y-62658171D01*
X41089943Y-62696876D01*
X41128648Y-62774285D01*
X41128648Y-63083923D01*
X40702895Y-61884076D02*
X40702895Y-62271123D01*
X41089943Y-62309828D01*
X41051238Y-62271123D01*
X41012533Y-62193714D01*
X41012533Y-62000190D01*
X41051238Y-61922780D01*
X41089943Y-61884076D01*
X41167352Y-61845371D01*
X41360876Y-61845371D01*
X41438286Y-61884076D01*
X41476990Y-61922780D01*
X41515695Y-62000190D01*
X41515695Y-62193714D01*
X41476990Y-62271123D01*
X41438286Y-62309828D01*
X42401067Y-10730895D02*
X42401067Y-11311467D01*
X42362363Y-11427581D01*
X42284953Y-11504990D01*
X42168839Y-11543695D01*
X42091429Y-11543695D01*
X42749410Y-10808305D02*
X42788115Y-10769600D01*
X42865524Y-10730895D01*
X43059048Y-10730895D01*
X43136458Y-10769600D01*
X43175162Y-10808305D01*
X43213867Y-10885714D01*
X43213867Y-10963124D01*
X43175162Y-11079238D01*
X42710705Y-11543695D01*
X43213867Y-11543695D01*
X15172267Y-51382990D02*
X15288381Y-51421695D01*
X15481905Y-51421695D01*
X15559315Y-51382990D01*
X15598019Y-51344286D01*
X15636724Y-51266876D01*
X15636724Y-51189467D01*
X15598019Y-51112057D01*
X15559315Y-51073352D01*
X15481905Y-51034648D01*
X15327086Y-50995943D01*
X15249677Y-50957238D01*
X15210972Y-50918533D01*
X15172267Y-50841124D01*
X15172267Y-50763714D01*
X15210972Y-50686305D01*
X15249677Y-50647600D01*
X15327086Y-50608895D01*
X15520610Y-50608895D01*
X15636724Y-50647600D01*
X15907657Y-50608895D02*
X16101181Y-51421695D01*
X16256000Y-50841124D01*
X16410819Y-51421695D01*
X16604343Y-50608895D01*
X17339733Y-51421695D02*
X16875276Y-51421695D01*
X17107505Y-51421695D02*
X17107505Y-50608895D01*
X17030095Y-50725010D01*
X16952686Y-50802419D01*
X16875276Y-50841124D01*
X15172267Y-63320990D02*
X15288381Y-63359695D01*
X15481905Y-63359695D01*
X15559315Y-63320990D01*
X15598019Y-63282286D01*
X15636724Y-63204876D01*
X15636724Y-63127467D01*
X15598019Y-63050057D01*
X15559315Y-63011352D01*
X15481905Y-62972648D01*
X15327086Y-62933943D01*
X15249677Y-62895238D01*
X15210972Y-62856533D01*
X15172267Y-62779124D01*
X15172267Y-62701714D01*
X15210972Y-62624305D01*
X15249677Y-62585600D01*
X15327086Y-62546895D01*
X15520610Y-62546895D01*
X15636724Y-62585600D01*
X15907657Y-62546895D02*
X16101181Y-63359695D01*
X16256000Y-62779124D01*
X16410819Y-63359695D01*
X16604343Y-62546895D01*
X16836571Y-62546895D02*
X17339733Y-62546895D01*
X17068800Y-62856533D01*
X17184914Y-62856533D01*
X17262324Y-62895238D01*
X17301028Y-62933943D01*
X17339733Y-63011352D01*
X17339733Y-63204876D01*
X17301028Y-63282286D01*
X17262324Y-63320990D01*
X17184914Y-63359695D01*
X16952686Y-63359695D01*
X16875276Y-63320990D01*
X16836571Y-63282286D01*
X18728267Y-27760990D02*
X18844381Y-27799695D01*
X19037905Y-27799695D01*
X19115315Y-27760990D01*
X19154019Y-27722286D01*
X19192724Y-27644876D01*
X19192724Y-27567467D01*
X19154019Y-27490057D01*
X19115315Y-27451352D01*
X19037905Y-27412648D01*
X18883086Y-27373943D01*
X18805677Y-27335238D01*
X18766972Y-27296533D01*
X18728267Y-27219124D01*
X18728267Y-27141714D01*
X18766972Y-27064305D01*
X18805677Y-27025600D01*
X18883086Y-26986895D01*
X19076610Y-26986895D01*
X19192724Y-27025600D01*
X19463657Y-26986895D02*
X19657181Y-27799695D01*
X19812000Y-27219124D01*
X19966819Y-27799695D01*
X20160343Y-26986895D01*
X20431276Y-27064305D02*
X20469981Y-27025600D01*
X20547390Y-26986895D01*
X20740914Y-26986895D01*
X20818324Y-27025600D01*
X20857028Y-27064305D01*
X20895733Y-27141714D01*
X20895733Y-27219124D01*
X20857028Y-27335238D01*
X20392571Y-27799695D01*
X20895733Y-27799695D01*
M02*
