G04 #@! TF.FileFunction,Copper,L2,Bot,Signal*
%FSLAX46Y46*%
G04 Gerber Fmt 4.6, Leading zero omitted, Abs format (unit mm)*
G04 Created by KiCad (PCBNEW 4.0.7-e2-6376~61~ubuntu18.04.1) date Sat Nov 30 19:21:56 2019*
%MOMM*%
%LPD*%
G01*
G04 APERTURE LIST*
%ADD10C,0.100000*%
%ADD11R,1.700000X1.700000*%
%ADD12O,1.700000X1.700000*%
%ADD13C,3.000000*%
%ADD14C,1.524000*%
%ADD15C,0.812800*%
%ADD16C,0.609600*%
%ADD17C,0.406400*%
%ADD18C,0.203200*%
G04 APERTURE END LIST*
D10*
D11*
X165888000Y-76800000D03*
D12*
X168428000Y-76800000D03*
X165888000Y-79340000D03*
X168428000Y-79340000D03*
X165888000Y-81880000D03*
X168428000Y-81880000D03*
X165888000Y-84420000D03*
X168428000Y-84420000D03*
X165888000Y-86960000D03*
X168428000Y-86960000D03*
X165888000Y-89500000D03*
X168428000Y-89500000D03*
X165888000Y-92040000D03*
X168428000Y-92040000D03*
X165888000Y-94580000D03*
X168428000Y-94580000D03*
X165888000Y-97120000D03*
X168428000Y-97120000D03*
X165888000Y-99660000D03*
X168428000Y-99660000D03*
D13*
X155478000Y-118500000D03*
X139378000Y-118500000D03*
X148178000Y-118500000D03*
X155478000Y-130500000D03*
X139378000Y-130500000D03*
X148178000Y-130500000D03*
D14*
X144928000Y-106000000D03*
X147428000Y-106000000D03*
X149928000Y-106000000D03*
D13*
X141828000Y-98500000D03*
X153028000Y-98500000D03*
D15*
X154940000Y-92456000D03*
X144272000Y-73660000D03*
X145796000Y-78740000D03*
X143637000Y-78740000D03*
X145288000Y-86360000D03*
X131318000Y-96266000D03*
X131318000Y-93980000D03*
X128270000Y-93726000D03*
X135636000Y-91440000D03*
X136652000Y-84582000D03*
X146558000Y-82804000D03*
X147066000Y-111760000D03*
X144018000Y-107831952D03*
D16*
X138176000Y-76200000D03*
X147320000Y-87376000D03*
X146812000Y-78740000D03*
X146558000Y-75946000D03*
X147320000Y-75184000D03*
X147828000Y-74422000D03*
X143256000Y-70358000D03*
X142240000Y-70358000D03*
X140716000Y-72390000D03*
X139446000Y-73914000D03*
X139446000Y-74930000D03*
X138938000Y-75692000D03*
X146304000Y-73406000D03*
X144272000Y-70612000D03*
X128270000Y-89662000D03*
X127254000Y-82296000D03*
X129032000Y-92456000D03*
X128270000Y-82296000D03*
X145796000Y-76708000D03*
X148844000Y-87376000D03*
X148082000Y-87884000D03*
X145542000Y-77724000D03*
D17*
X146558000Y-82804000D02*
X142850001Y-82804000D01*
X142850001Y-82804000D02*
X141072001Y-84582000D01*
X141072001Y-84582000D02*
X136652000Y-84582000D01*
X147066000Y-111760000D02*
X144922089Y-111760000D01*
X144922089Y-111760000D02*
X144018000Y-110855911D01*
X144018000Y-110855911D02*
X144018000Y-107831952D01*
X165888000Y-99660000D02*
X166024000Y-99660000D01*
D18*
X138176000Y-76200000D02*
X138176000Y-75084937D01*
X155400619Y-84241435D02*
X155995184Y-84836000D01*
X138176000Y-75084937D02*
X138001502Y-74910439D01*
X138001502Y-74910439D02*
X138001502Y-68450003D01*
X155995184Y-84836000D02*
X163620169Y-84836000D01*
X163620169Y-84836000D02*
X165002531Y-83453638D01*
X138001502Y-68450003D02*
X139529794Y-66921711D01*
X153902320Y-66921711D02*
X155400619Y-68420010D01*
X165002531Y-82765469D02*
X165888000Y-81880000D01*
X139529794Y-66921711D02*
X153902320Y-66921711D01*
X155400619Y-68420010D02*
X155400619Y-84241435D01*
X165002531Y-83453638D02*
X165002531Y-82765469D01*
X148007307Y-86434693D02*
X147320000Y-87122000D01*
X147320000Y-87122000D02*
X147320000Y-87376000D01*
X148007307Y-86331179D02*
X148007307Y-86434693D01*
X146812000Y-78740000D02*
X147234979Y-78740000D01*
X147234979Y-78740000D02*
X148007307Y-79512328D01*
X148007307Y-79512328D02*
X148007307Y-86331179D01*
X146558000Y-75946000D02*
X146558000Y-76308194D01*
X146558000Y-76308194D02*
X149255230Y-79005424D01*
X149255230Y-79005424D02*
X149255230Y-86924932D01*
X149255230Y-86924932D02*
X149606000Y-87275702D01*
X149606000Y-87275702D02*
X149606000Y-92486132D01*
X149606000Y-92486132D02*
X151665266Y-94545398D01*
X151665266Y-94545398D02*
X163215679Y-94545398D01*
X163215679Y-94545398D02*
X165698281Y-97028000D01*
X165698281Y-97028000D02*
X165796000Y-97028000D01*
X165796000Y-97028000D02*
X165888000Y-97120000D01*
X147320000Y-75184000D02*
X147320000Y-76492123D01*
X147320000Y-76492123D02*
X149663762Y-78835885D01*
X149663762Y-78835885D02*
X149663762Y-86753624D01*
X149663762Y-86753624D02*
X150012516Y-87102378D01*
X150012516Y-87102378D02*
X150012516Y-92308385D01*
X150012516Y-92308385D02*
X151841006Y-94136875D01*
X165105254Y-95859798D02*
X167147655Y-95859798D01*
X168427453Y-94580000D02*
X168428000Y-94580000D01*
X151841006Y-94136875D02*
X163382331Y-94136875D01*
X163382331Y-94136875D02*
X165105254Y-95859798D01*
X167147655Y-95859798D02*
X168427453Y-94580000D01*
X147828000Y-74422000D02*
X147828000Y-74676000D01*
X150420553Y-86930576D02*
X150420553Y-92132160D01*
X147828000Y-74676000D02*
X147929669Y-74777669D01*
X147929669Y-74777669D02*
X147929669Y-76518604D01*
X150420553Y-92132160D02*
X152016746Y-93728353D01*
X163550946Y-93728353D02*
X164402593Y-94580000D01*
X147929669Y-76518604D02*
X150072294Y-78661229D01*
X150072294Y-78661229D02*
X150072294Y-86582317D01*
X150072294Y-86582317D02*
X150420553Y-86930576D01*
X152016746Y-93728353D02*
X163550946Y-93728353D01*
X164402593Y-94580000D02*
X165888000Y-94580000D01*
X143256000Y-70358000D02*
X143654325Y-70358000D01*
X143654325Y-70358000D02*
X144011452Y-70000873D01*
X152283886Y-89381948D02*
X153666024Y-90764086D01*
X167155149Y-90764086D02*
X168419235Y-89500000D01*
X144011452Y-70000873D02*
X151299232Y-70000873D01*
X151299232Y-70000873D02*
X152283886Y-70985527D01*
X152283886Y-70985527D02*
X152283886Y-89381948D01*
X153666024Y-90764086D02*
X167155149Y-90764086D01*
X168419235Y-89500000D02*
X168428000Y-89500000D01*
X142240000Y-70358000D02*
X142389144Y-70358000D01*
X151467601Y-69593448D02*
X152691010Y-70816857D01*
X142389144Y-70358000D02*
X143153696Y-69593448D01*
X143153696Y-69593448D02*
X151467601Y-69593448D01*
X152691010Y-89209821D02*
X153827654Y-90346465D01*
X152691010Y-70816857D02*
X152691010Y-89209821D01*
X153827654Y-90346465D02*
X163679223Y-90346465D01*
X163679223Y-90346465D02*
X164525688Y-89500000D01*
X164525688Y-89500000D02*
X165888000Y-89500000D01*
X140716000Y-72390000D02*
X140085551Y-72390000D01*
X140085551Y-72390000D02*
X139642045Y-71946494D01*
X139642045Y-69120131D02*
X140200077Y-68562099D01*
X163563076Y-86498033D02*
X165289380Y-88224337D01*
X139642045Y-71946494D02*
X139642045Y-69120131D01*
X153238188Y-68562099D02*
X153766433Y-69090344D01*
X165289380Y-88224337D02*
X167152892Y-88224337D01*
X140200077Y-68562099D02*
X153238188Y-68562099D01*
X168417229Y-86960000D02*
X168428000Y-86960000D01*
X153766433Y-69090344D02*
X153766433Y-84926861D01*
X153766433Y-84926861D02*
X155337605Y-86498033D01*
X155337605Y-86498033D02*
X163563076Y-86498033D01*
X167152892Y-88224337D02*
X168417229Y-86960000D01*
X139446000Y-73914000D02*
X139234712Y-73702712D01*
X139234712Y-73702712D02*
X139234712Y-68952200D01*
X139234712Y-68952200D02*
X140037049Y-68149863D01*
X164603372Y-86960000D02*
X165888000Y-86960000D01*
X140037049Y-68149863D02*
X153400998Y-68149863D01*
X153400998Y-68149863D02*
X154174048Y-68922913D01*
X154174048Y-68922913D02*
X154174048Y-84756051D01*
X154174048Y-84756051D02*
X155504806Y-86086809D01*
X155504806Y-86086809D02*
X163730181Y-86086809D01*
X163730181Y-86086809D02*
X164603372Y-86960000D01*
X139446000Y-74930000D02*
X138827297Y-74311297D01*
X138827297Y-68781711D02*
X139867177Y-67741831D01*
X139867177Y-67741831D02*
X153572014Y-67741831D01*
X167169272Y-85679586D02*
X168428000Y-84420858D01*
X168428000Y-84420858D02*
X168428000Y-84420000D01*
X138827297Y-74311297D02*
X138827297Y-68781711D01*
X153572014Y-67741831D02*
X154584024Y-68753841D01*
X154584024Y-68753841D02*
X154584024Y-84587603D01*
X155676007Y-85679586D02*
X167169272Y-85679586D01*
X154584024Y-84587603D02*
X155676007Y-85679586D01*
X138938000Y-75692000D02*
X138938000Y-75270900D01*
X138938000Y-75270900D02*
X138413579Y-74746479D01*
X139695217Y-67333608D02*
X153739004Y-67333608D01*
X154991476Y-84415514D02*
X155832120Y-85256158D01*
X138413579Y-74746479D02*
X138413579Y-68615246D01*
X138413579Y-68615246D02*
X139695217Y-67333608D01*
X154991476Y-68586080D02*
X154991476Y-84415514D01*
X153739004Y-67333608D02*
X154991476Y-68586080D01*
X155832120Y-85256158D02*
X163787228Y-85256158D01*
X163787228Y-85256158D02*
X164623386Y-84420000D01*
X164623386Y-84420000D02*
X165888000Y-84420000D01*
X168428000Y-92040000D02*
X168428000Y-92045930D01*
X150480826Y-86411010D02*
X150480826Y-78491689D01*
X147674731Y-73406000D02*
X146304000Y-73406000D01*
X168428000Y-92045930D02*
X167159770Y-93314160D01*
X167159770Y-93314160D02*
X152206798Y-93314160D01*
X152206798Y-93314160D02*
X150828590Y-91935952D01*
X150828590Y-91935952D02*
X150828590Y-86758774D01*
X148437874Y-76448737D02*
X148437874Y-74169143D01*
X150828590Y-86758774D02*
X150480826Y-86411010D01*
X150480826Y-78491689D02*
X148437874Y-76448737D01*
X148437874Y-74169143D02*
X147674731Y-73406000D01*
X165888000Y-92040000D02*
X164551653Y-92040000D01*
X164551653Y-92040000D02*
X163689285Y-91177632D01*
X163689285Y-91177632D02*
X153501025Y-91177632D01*
X153501025Y-91177632D02*
X151877460Y-89554067D01*
X151126910Y-70410779D02*
X144850056Y-70410779D01*
X151877460Y-89554067D02*
X151877460Y-71161329D01*
X151877460Y-71161329D02*
X151126910Y-70410779D01*
X144850056Y-70410779D02*
X144648835Y-70612000D01*
X144648835Y-70612000D02*
X144272000Y-70612000D01*
X127254000Y-82296000D02*
X127857081Y-82899081D01*
X127857081Y-82899081D02*
X127857081Y-89249081D01*
X127857081Y-89249081D02*
X128270000Y-89662000D01*
X128270000Y-82296000D02*
X128270000Y-88794021D01*
X128883230Y-89407251D02*
X128883230Y-92307230D01*
X128270000Y-88794021D02*
X128883230Y-89407251D01*
X128883230Y-92307230D02*
X129032000Y-92456000D01*
X148844000Y-87376000D02*
X148843388Y-87375388D01*
X148843388Y-87375388D02*
X148843388Y-79176770D01*
X148843388Y-79176770D02*
X146982215Y-77315597D01*
X146982215Y-77315597D02*
X146403597Y-77315597D01*
X146403597Y-77315597D02*
X145796000Y-76708000D01*
X148082000Y-87122000D02*
X148082000Y-87884000D01*
X148427745Y-86776255D02*
X148082000Y-87122000D01*
X145796000Y-77724000D02*
X146812000Y-77724000D01*
X146812000Y-77724000D02*
X148427745Y-79339745D01*
X148427745Y-79339745D02*
X148427745Y-86776255D01*
G36*
X171997400Y-134069400D02*
X122858600Y-134069400D01*
X122858600Y-131994749D01*
X138098777Y-131994749D01*
X138258527Y-132300102D01*
X138631220Y-132483912D01*
X139032610Y-132591481D01*
X139447275Y-132618676D01*
X139859277Y-132564452D01*
X140252784Y-132430892D01*
X140497473Y-132300102D01*
X140657223Y-131994749D01*
X139378000Y-130715526D01*
X138098777Y-131994749D01*
X122858600Y-131994749D01*
X122858600Y-130569275D01*
X137259324Y-130569275D01*
X137313548Y-130981277D01*
X137447108Y-131374784D01*
X137577898Y-131619473D01*
X137883251Y-131779223D01*
X139162474Y-130500000D01*
X139593526Y-130500000D01*
X140872749Y-131779223D01*
X141178102Y-131619473D01*
X141361912Y-131246780D01*
X141469481Y-130845390D01*
X141481900Y-130656024D01*
X146319961Y-130656024D01*
X146385653Y-131013947D01*
X146519614Y-131352295D01*
X146716742Y-131658178D01*
X146969530Y-131919948D01*
X147268348Y-132127631D01*
X147601814Y-132273319D01*
X147957227Y-132351462D01*
X148321049Y-132359083D01*
X148679422Y-132295892D01*
X149018696Y-132164296D01*
X149325949Y-131969308D01*
X149589476Y-131718354D01*
X149799241Y-131420993D01*
X149947253Y-131088552D01*
X150027875Y-130733694D01*
X150028959Y-130656024D01*
X153619961Y-130656024D01*
X153685653Y-131013947D01*
X153819614Y-131352295D01*
X154016742Y-131658178D01*
X154269530Y-131919948D01*
X154568348Y-132127631D01*
X154901814Y-132273319D01*
X155257227Y-132351462D01*
X155621049Y-132359083D01*
X155979422Y-132295892D01*
X156318696Y-132164296D01*
X156625949Y-131969308D01*
X156889476Y-131718354D01*
X157099241Y-131420993D01*
X157247253Y-131088552D01*
X157327875Y-130733694D01*
X157333679Y-130318049D01*
X157262997Y-129961078D01*
X157124325Y-129624634D01*
X156922944Y-129321532D01*
X156666527Y-129063318D01*
X156364838Y-128859827D01*
X156029371Y-128718809D01*
X155672901Y-128645636D01*
X155309008Y-128643096D01*
X154951552Y-128711284D01*
X154614148Y-128847604D01*
X154309648Y-129046864D01*
X154049650Y-129301472D01*
X153844058Y-129601733D01*
X153700702Y-129936208D01*
X153625042Y-130292157D01*
X153619961Y-130656024D01*
X150028959Y-130656024D01*
X150033679Y-130318049D01*
X149962997Y-129961078D01*
X149824325Y-129624634D01*
X149622944Y-129321532D01*
X149366527Y-129063318D01*
X149064838Y-128859827D01*
X148729371Y-128718809D01*
X148372901Y-128645636D01*
X148009008Y-128643096D01*
X147651552Y-128711284D01*
X147314148Y-128847604D01*
X147009648Y-129046864D01*
X146749650Y-129301472D01*
X146544058Y-129601733D01*
X146400702Y-129936208D01*
X146325042Y-130292157D01*
X146319961Y-130656024D01*
X141481900Y-130656024D01*
X141496676Y-130430725D01*
X141442452Y-130018723D01*
X141308892Y-129625216D01*
X141178102Y-129380527D01*
X140872749Y-129220777D01*
X139593526Y-130500000D01*
X139162474Y-130500000D01*
X137883251Y-129220777D01*
X137577898Y-129380527D01*
X137394088Y-129753220D01*
X137286519Y-130154610D01*
X137259324Y-130569275D01*
X122858600Y-130569275D01*
X122858600Y-129407737D01*
X126533341Y-129407737D01*
X126561861Y-129563128D01*
X126620019Y-129710020D01*
X126705602Y-129842818D01*
X126815348Y-129956464D01*
X126945079Y-130046629D01*
X127089851Y-130109878D01*
X127244152Y-130143804D01*
X127402104Y-130147112D01*
X127557690Y-130119678D01*
X127704984Y-130062546D01*
X127838377Y-129977893D01*
X127952786Y-129868943D01*
X128043854Y-129739845D01*
X128108113Y-129595517D01*
X128143115Y-129441457D01*
X128143585Y-129407737D01*
X130933341Y-129407737D01*
X130961861Y-129563128D01*
X131020019Y-129710020D01*
X131105602Y-129842818D01*
X131215348Y-129956464D01*
X131345079Y-130046629D01*
X131489851Y-130109878D01*
X131644152Y-130143804D01*
X131802104Y-130147112D01*
X131957690Y-130119678D01*
X132104984Y-130062546D01*
X132238377Y-129977893D01*
X132352786Y-129868943D01*
X132443854Y-129739845D01*
X132508113Y-129595517D01*
X132543115Y-129441457D01*
X132545635Y-129261007D01*
X132514948Y-129106029D01*
X132473411Y-129005251D01*
X138098777Y-129005251D01*
X139378000Y-130284474D01*
X140657223Y-129005251D01*
X140497473Y-128699898D01*
X140124780Y-128516088D01*
X139723390Y-128408519D01*
X139308725Y-128381324D01*
X138896723Y-128435548D01*
X138503216Y-128569108D01*
X138258527Y-128699898D01*
X138098777Y-129005251D01*
X132473411Y-129005251D01*
X132454744Y-128959964D01*
X132367316Y-128828374D01*
X132255993Y-128716271D01*
X132125017Y-128627926D01*
X131979375Y-128566704D01*
X131824616Y-128534937D01*
X131666633Y-128533834D01*
X131511445Y-128563437D01*
X131364963Y-128622620D01*
X131232765Y-128709127D01*
X131119889Y-128819665D01*
X131030631Y-128950021D01*
X130968394Y-129095232D01*
X130935547Y-129249766D01*
X130933341Y-129407737D01*
X128143585Y-129407737D01*
X128145635Y-129261007D01*
X128114948Y-129106029D01*
X128054744Y-128959964D01*
X127967316Y-128828374D01*
X127855993Y-128716271D01*
X127725017Y-128627926D01*
X127579375Y-128566704D01*
X127424616Y-128534937D01*
X127266633Y-128533834D01*
X127111445Y-128563437D01*
X126964963Y-128622620D01*
X126832765Y-128709127D01*
X126719889Y-128819665D01*
X126630631Y-128950021D01*
X126568394Y-129095232D01*
X126535547Y-129249766D01*
X126533341Y-129407737D01*
X122858600Y-129407737D01*
X122858600Y-119994749D01*
X138098777Y-119994749D01*
X138258527Y-120300102D01*
X138631220Y-120483912D01*
X139032610Y-120591481D01*
X139447275Y-120618676D01*
X139859277Y-120564452D01*
X140252784Y-120430892D01*
X140497473Y-120300102D01*
X140657223Y-119994749D01*
X139378000Y-118715526D01*
X138098777Y-119994749D01*
X122858600Y-119994749D01*
X122858600Y-118569275D01*
X137259324Y-118569275D01*
X137313548Y-118981277D01*
X137447108Y-119374784D01*
X137577898Y-119619473D01*
X137883251Y-119779223D01*
X139162474Y-118500000D01*
X139593526Y-118500000D01*
X140872749Y-119779223D01*
X141178102Y-119619473D01*
X141361912Y-119246780D01*
X141469481Y-118845390D01*
X141481900Y-118656024D01*
X146319961Y-118656024D01*
X146385653Y-119013947D01*
X146519614Y-119352295D01*
X146716742Y-119658178D01*
X146969530Y-119919948D01*
X147268348Y-120127631D01*
X147601814Y-120273319D01*
X147957227Y-120351462D01*
X148321049Y-120359083D01*
X148679422Y-120295892D01*
X149018696Y-120164296D01*
X149325949Y-119969308D01*
X149589476Y-119718354D01*
X149799241Y-119420993D01*
X149947253Y-119088552D01*
X150027875Y-118733694D01*
X150028959Y-118656024D01*
X153619961Y-118656024D01*
X153685653Y-119013947D01*
X153819614Y-119352295D01*
X154016742Y-119658178D01*
X154269530Y-119919948D01*
X154568348Y-120127631D01*
X154901814Y-120273319D01*
X155257227Y-120351462D01*
X155621049Y-120359083D01*
X155979422Y-120295892D01*
X156318696Y-120164296D01*
X156625949Y-119969308D01*
X156889476Y-119718354D01*
X157099241Y-119420993D01*
X157247253Y-119088552D01*
X157327875Y-118733694D01*
X157333679Y-118318049D01*
X157262997Y-117961078D01*
X157124325Y-117624634D01*
X156922944Y-117321532D01*
X156666527Y-117063318D01*
X156364838Y-116859827D01*
X156029371Y-116718809D01*
X155672901Y-116645636D01*
X155309008Y-116643096D01*
X154951552Y-116711284D01*
X154614148Y-116847604D01*
X154309648Y-117046864D01*
X154049650Y-117301472D01*
X153844058Y-117601733D01*
X153700702Y-117936208D01*
X153625042Y-118292157D01*
X153619961Y-118656024D01*
X150028959Y-118656024D01*
X150033679Y-118318049D01*
X149962997Y-117961078D01*
X149824325Y-117624634D01*
X149622944Y-117321532D01*
X149366527Y-117063318D01*
X149064838Y-116859827D01*
X148729371Y-116718809D01*
X148372901Y-116645636D01*
X148009008Y-116643096D01*
X147651552Y-116711284D01*
X147314148Y-116847604D01*
X147009648Y-117046864D01*
X146749650Y-117301472D01*
X146544058Y-117601733D01*
X146400702Y-117936208D01*
X146325042Y-118292157D01*
X146319961Y-118656024D01*
X141481900Y-118656024D01*
X141496676Y-118430725D01*
X141442452Y-118018723D01*
X141308892Y-117625216D01*
X141178102Y-117380527D01*
X140872749Y-117220777D01*
X139593526Y-118500000D01*
X139162474Y-118500000D01*
X137883251Y-117220777D01*
X137577898Y-117380527D01*
X137394088Y-117753220D01*
X137286519Y-118154610D01*
X137259324Y-118569275D01*
X122858600Y-118569275D01*
X122858600Y-117005251D01*
X138098777Y-117005251D01*
X139378000Y-118284474D01*
X140657223Y-117005251D01*
X140497473Y-116699898D01*
X140124780Y-116516088D01*
X139723390Y-116408519D01*
X139308725Y-116381324D01*
X138896723Y-116435548D01*
X138503216Y-116569108D01*
X138258527Y-116699898D01*
X138098777Y-117005251D01*
X122858600Y-117005251D01*
X122858600Y-109664432D01*
X124469830Y-109664432D01*
X124539061Y-110041644D01*
X124680242Y-110398226D01*
X124887994Y-110720594D01*
X125154404Y-110996470D01*
X125469326Y-111215346D01*
X125820762Y-111368885D01*
X126195329Y-111451239D01*
X126578758Y-111459270D01*
X126956444Y-111392674D01*
X127314002Y-111253986D01*
X127637813Y-111048490D01*
X127915542Y-110784012D01*
X128136611Y-110470626D01*
X128292600Y-110120270D01*
X128377567Y-109746288D01*
X128383684Y-109308244D01*
X128309192Y-108932035D01*
X128163047Y-108577459D01*
X127950814Y-108258023D01*
X127680578Y-107985894D01*
X127547339Y-107896023D01*
X143254998Y-107896023D01*
X143281974Y-108043004D01*
X143336985Y-108181946D01*
X143417936Y-108307557D01*
X143459200Y-108350287D01*
X143459200Y-110855911D01*
X143464241Y-110907325D01*
X143468736Y-110958702D01*
X143469555Y-110961521D01*
X143469842Y-110964449D01*
X143484767Y-111013881D01*
X143499162Y-111063431D01*
X143500515Y-111066041D01*
X143501364Y-111068853D01*
X143525586Y-111114408D01*
X143549351Y-111160255D01*
X143551185Y-111162552D01*
X143552564Y-111165146D01*
X143585175Y-111205131D01*
X143617390Y-111245487D01*
X143621421Y-111249574D01*
X143621492Y-111249661D01*
X143621573Y-111249728D01*
X143622869Y-111251042D01*
X144526958Y-112155131D01*
X144566832Y-112187884D01*
X144606385Y-112221073D01*
X144608960Y-112222489D01*
X144611231Y-112224354D01*
X144656711Y-112248740D01*
X144701954Y-112273613D01*
X144704756Y-112274502D01*
X144707345Y-112275890D01*
X144756673Y-112290971D01*
X144805908Y-112306589D01*
X144808831Y-112306917D01*
X144811638Y-112307775D01*
X144862952Y-112312988D01*
X144914287Y-112318746D01*
X144920028Y-112318786D01*
X144920139Y-112318797D01*
X144920242Y-112318787D01*
X144922089Y-112318800D01*
X146546277Y-112318800D01*
X146569743Y-112343100D01*
X146692452Y-112428385D01*
X146829390Y-112488212D01*
X146975340Y-112520301D01*
X147124743Y-112523430D01*
X147271908Y-112497481D01*
X147411231Y-112443441D01*
X147537404Y-112363370D01*
X147645621Y-112260316D01*
X147731761Y-112138205D01*
X147792542Y-112001688D01*
X147825649Y-111855966D01*
X147828033Y-111685282D01*
X147799007Y-111538692D01*
X147742061Y-111400532D01*
X147659365Y-111276063D01*
X147554067Y-111170028D01*
X147430179Y-111086465D01*
X147292420Y-111028556D01*
X147146036Y-110998508D01*
X146996604Y-110997464D01*
X146849815Y-111025466D01*
X146711260Y-111081445D01*
X146586218Y-111163271D01*
X146547486Y-111201200D01*
X145153551Y-111201200D01*
X144576800Y-110624449D01*
X144576800Y-109664432D01*
X166469830Y-109664432D01*
X166539061Y-110041644D01*
X166680242Y-110398226D01*
X166887994Y-110720594D01*
X167154404Y-110996470D01*
X167469326Y-111215346D01*
X167820762Y-111368885D01*
X168195329Y-111451239D01*
X168578758Y-111459270D01*
X168956444Y-111392674D01*
X169314002Y-111253986D01*
X169637813Y-111048490D01*
X169915542Y-110784012D01*
X170136611Y-110470626D01*
X170292600Y-110120270D01*
X170377567Y-109746288D01*
X170383684Y-109308244D01*
X170309192Y-108932035D01*
X170163047Y-108577459D01*
X169950814Y-108258023D01*
X169680578Y-107985894D01*
X169362631Y-107771436D01*
X169009085Y-107622819D01*
X168633405Y-107545703D01*
X168249901Y-107543025D01*
X167873182Y-107614889D01*
X167517595Y-107758555D01*
X167196685Y-107968553D01*
X166922675Y-108236882D01*
X166706003Y-108553324D01*
X166554921Y-108905824D01*
X166475184Y-109280957D01*
X166469830Y-109664432D01*
X144576800Y-109664432D01*
X144576800Y-108352096D01*
X144597621Y-108332268D01*
X144683761Y-108210157D01*
X144744542Y-108073640D01*
X144777649Y-107927918D01*
X144780033Y-107757234D01*
X144751007Y-107610644D01*
X144694061Y-107472484D01*
X144611365Y-107348015D01*
X144506067Y-107241980D01*
X144382179Y-107158417D01*
X144244420Y-107100508D01*
X144098036Y-107070460D01*
X143948604Y-107069416D01*
X143801815Y-107097418D01*
X143663260Y-107153397D01*
X143538218Y-107235223D01*
X143431450Y-107339778D01*
X143347023Y-107463079D01*
X143288154Y-107600431D01*
X143257085Y-107746602D01*
X143254998Y-107896023D01*
X127547339Y-107896023D01*
X127362631Y-107771436D01*
X127009085Y-107622819D01*
X126633405Y-107545703D01*
X126249901Y-107543025D01*
X125873182Y-107614889D01*
X125517595Y-107758555D01*
X125196685Y-107968553D01*
X124922675Y-108236882D01*
X124706003Y-108553324D01*
X124554921Y-108905824D01*
X124475184Y-109280957D01*
X124469830Y-109664432D01*
X122858600Y-109664432D01*
X122858600Y-106093971D01*
X143808931Y-106093971D01*
X143848495Y-106309543D01*
X143929178Y-106513325D01*
X144047906Y-106697554D01*
X144200156Y-106855214D01*
X144380130Y-106980298D01*
X144580971Y-107068044D01*
X144795031Y-107115108D01*
X145014156Y-107119698D01*
X145229999Y-107081639D01*
X145434339Y-107002381D01*
X145488773Y-106967836D01*
X146675690Y-106967836D01*
X146746155Y-107197758D01*
X146992927Y-107307764D01*
X147256419Y-107367515D01*
X147526505Y-107374712D01*
X147792806Y-107329080D01*
X148045086Y-107232373D01*
X148109845Y-107197758D01*
X148180310Y-106967836D01*
X147428000Y-106215526D01*
X146675690Y-106967836D01*
X145488773Y-106967836D01*
X145619393Y-106884942D01*
X145778112Y-106733797D01*
X145904450Y-106554701D01*
X145993595Y-106354476D01*
X146042153Y-106140750D01*
X146042742Y-106098505D01*
X146053288Y-106098505D01*
X146098920Y-106364806D01*
X146195627Y-106617086D01*
X146230242Y-106681845D01*
X146460164Y-106752310D01*
X147212474Y-106000000D01*
X147643526Y-106000000D01*
X148395836Y-106752310D01*
X148625758Y-106681845D01*
X148735764Y-106435073D01*
X148795515Y-106171581D01*
X148797583Y-106093971D01*
X148808931Y-106093971D01*
X148848495Y-106309543D01*
X148929178Y-106513325D01*
X149047906Y-106697554D01*
X149200156Y-106855214D01*
X149380130Y-106980298D01*
X149580971Y-107068044D01*
X149795031Y-107115108D01*
X150014156Y-107119698D01*
X150229999Y-107081639D01*
X150434339Y-107002381D01*
X150619393Y-106884942D01*
X150778112Y-106733797D01*
X150904450Y-106554701D01*
X150993595Y-106354476D01*
X151042153Y-106140750D01*
X151045648Y-105890414D01*
X151003077Y-105675415D01*
X150919557Y-105472780D01*
X150798269Y-105290226D01*
X150643832Y-105134707D01*
X150462130Y-105012148D01*
X150260083Y-104927215D01*
X150045386Y-104883144D01*
X149826219Y-104881614D01*
X149610928Y-104922683D01*
X149407715Y-105004786D01*
X149224319Y-105124797D01*
X149067726Y-105278144D01*
X148943901Y-105458987D01*
X148857559Y-105660436D01*
X148811991Y-105874819D01*
X148808931Y-106093971D01*
X148797583Y-106093971D01*
X148802712Y-105901495D01*
X148757080Y-105635194D01*
X148660373Y-105382914D01*
X148625758Y-105318155D01*
X148395836Y-105247690D01*
X147643526Y-106000000D01*
X147212474Y-106000000D01*
X146460164Y-105247690D01*
X146230242Y-105318155D01*
X146120236Y-105564927D01*
X146060485Y-105828419D01*
X146053288Y-106098505D01*
X146042742Y-106098505D01*
X146045648Y-105890414D01*
X146003077Y-105675415D01*
X145919557Y-105472780D01*
X145798269Y-105290226D01*
X145643832Y-105134707D01*
X145491806Y-105032164D01*
X146675690Y-105032164D01*
X147428000Y-105784474D01*
X148180310Y-105032164D01*
X148109845Y-104802242D01*
X147863073Y-104692236D01*
X147599581Y-104632485D01*
X147329495Y-104625288D01*
X147063194Y-104670920D01*
X146810914Y-104767627D01*
X146746155Y-104802242D01*
X146675690Y-105032164D01*
X145491806Y-105032164D01*
X145462130Y-105012148D01*
X145260083Y-104927215D01*
X145045386Y-104883144D01*
X144826219Y-104881614D01*
X144610928Y-104922683D01*
X144407715Y-105004786D01*
X144224319Y-105124797D01*
X144067726Y-105278144D01*
X143943901Y-105458987D01*
X143857559Y-105660436D01*
X143811991Y-105874819D01*
X143808931Y-106093971D01*
X122858600Y-106093971D01*
X122858600Y-98656024D01*
X139969961Y-98656024D01*
X140035653Y-99013947D01*
X140169614Y-99352295D01*
X140366742Y-99658178D01*
X140619530Y-99919948D01*
X140918348Y-100127631D01*
X141251814Y-100273319D01*
X141607227Y-100351462D01*
X141971049Y-100359083D01*
X142329422Y-100295892D01*
X142668696Y-100164296D01*
X142975949Y-99969308D01*
X143239476Y-99718354D01*
X143449241Y-99420993D01*
X143597253Y-99088552D01*
X143677875Y-98733694D01*
X143678959Y-98656024D01*
X151169961Y-98656024D01*
X151235653Y-99013947D01*
X151369614Y-99352295D01*
X151566742Y-99658178D01*
X151819530Y-99919948D01*
X152118348Y-100127631D01*
X152451814Y-100273319D01*
X152807227Y-100351462D01*
X153171049Y-100359083D01*
X153529422Y-100295892D01*
X153868696Y-100164296D01*
X154175949Y-99969308D01*
X154439476Y-99718354D01*
X154649241Y-99420993D01*
X154797253Y-99088552D01*
X154877875Y-98733694D01*
X154883679Y-98318049D01*
X154812997Y-97961078D01*
X154674325Y-97624634D01*
X154472944Y-97321532D01*
X154216527Y-97063318D01*
X153914838Y-96859827D01*
X153579371Y-96718809D01*
X153222901Y-96645636D01*
X152859008Y-96643096D01*
X152501552Y-96711284D01*
X152164148Y-96847604D01*
X151859648Y-97046864D01*
X151599650Y-97301472D01*
X151394058Y-97601733D01*
X151250702Y-97936208D01*
X151175042Y-98292157D01*
X151169961Y-98656024D01*
X143678959Y-98656024D01*
X143683679Y-98318049D01*
X143612997Y-97961078D01*
X143474325Y-97624634D01*
X143272944Y-97321532D01*
X143016527Y-97063318D01*
X142714838Y-96859827D01*
X142379371Y-96718809D01*
X142022901Y-96645636D01*
X141659008Y-96643096D01*
X141301552Y-96711284D01*
X140964148Y-96847604D01*
X140659648Y-97046864D01*
X140399650Y-97301472D01*
X140194058Y-97601733D01*
X140050702Y-97936208D01*
X139975042Y-98292157D01*
X139969961Y-98656024D01*
X122858600Y-98656024D01*
X122858600Y-82351528D01*
X126592732Y-82351528D01*
X126616112Y-82478912D01*
X126663788Y-82599328D01*
X126733945Y-82708191D01*
X126823911Y-82801353D01*
X126930259Y-82875267D01*
X127048938Y-82927116D01*
X127175428Y-82954927D01*
X127268294Y-82956872D01*
X127399881Y-83088459D01*
X127399881Y-89249081D01*
X127404003Y-89291124D01*
X127407683Y-89333184D01*
X127408353Y-89335491D01*
X127408588Y-89337885D01*
X127420785Y-89378281D01*
X127432577Y-89418871D01*
X127433686Y-89421010D01*
X127434379Y-89423306D01*
X127454193Y-89460571D01*
X127473641Y-89498090D01*
X127475139Y-89499966D01*
X127476269Y-89502092D01*
X127502998Y-89534865D01*
X127529309Y-89567824D01*
X127532604Y-89571166D01*
X127532665Y-89571240D01*
X127532734Y-89571297D01*
X127533792Y-89572370D01*
X127609699Y-89648277D01*
X127608732Y-89717528D01*
X127632112Y-89844912D01*
X127679788Y-89965328D01*
X127749945Y-90074191D01*
X127839911Y-90167353D01*
X127946259Y-90241267D01*
X128064938Y-90293116D01*
X128191428Y-90320927D01*
X128320910Y-90323639D01*
X128426030Y-90305104D01*
X128426030Y-92193373D01*
X128399467Y-92255349D01*
X128372541Y-92382030D01*
X128370732Y-92511528D01*
X128394112Y-92638912D01*
X128441788Y-92759328D01*
X128511945Y-92868191D01*
X128601911Y-92961353D01*
X128708259Y-93035267D01*
X128826938Y-93087116D01*
X128953428Y-93114927D01*
X129082910Y-93117639D01*
X129210454Y-93095150D01*
X129331200Y-93048315D01*
X129440550Y-92978920D01*
X129534338Y-92889607D01*
X129608992Y-92783777D01*
X129661669Y-92665463D01*
X129690362Y-92539171D01*
X129692428Y-92391244D01*
X129667272Y-92264200D01*
X129617920Y-92144461D01*
X129546249Y-92036589D01*
X129454991Y-91944691D01*
X129347622Y-91872270D01*
X129340430Y-91869247D01*
X129340430Y-89407251D01*
X129336308Y-89365208D01*
X129332628Y-89323148D01*
X129331958Y-89320841D01*
X129331723Y-89318447D01*
X129319526Y-89278051D01*
X129307734Y-89237461D01*
X129306625Y-89235322D01*
X129305932Y-89233026D01*
X129286115Y-89195755D01*
X129266670Y-89158242D01*
X129265172Y-89156366D01*
X129264042Y-89154240D01*
X129237288Y-89121436D01*
X129211001Y-89088508D01*
X129207708Y-89085168D01*
X129207646Y-89085092D01*
X129207576Y-89085034D01*
X129206519Y-89083962D01*
X128727200Y-88604643D01*
X128727200Y-84646071D01*
X135888998Y-84646071D01*
X135915974Y-84793052D01*
X135970985Y-84931994D01*
X136051936Y-85057605D01*
X136155743Y-85165100D01*
X136278452Y-85250385D01*
X136415390Y-85310212D01*
X136561340Y-85342301D01*
X136710743Y-85345430D01*
X136857908Y-85319481D01*
X136997231Y-85265441D01*
X137123404Y-85185370D01*
X137170207Y-85140800D01*
X141072001Y-85140800D01*
X141123415Y-85135759D01*
X141174792Y-85131264D01*
X141177611Y-85130445D01*
X141180539Y-85130158D01*
X141229971Y-85115233D01*
X141279521Y-85100838D01*
X141282131Y-85099485D01*
X141284943Y-85098636D01*
X141330498Y-85074414D01*
X141376345Y-85050649D01*
X141378642Y-85048815D01*
X141381236Y-85047436D01*
X141421221Y-85014825D01*
X141461577Y-84982610D01*
X141465664Y-84978579D01*
X141465751Y-84978508D01*
X141465818Y-84978427D01*
X141467132Y-84977131D01*
X143081463Y-83362800D01*
X146038277Y-83362800D01*
X146061743Y-83387100D01*
X146184452Y-83472385D01*
X146321390Y-83532212D01*
X146467340Y-83564301D01*
X146616743Y-83567430D01*
X146763908Y-83541481D01*
X146903231Y-83487441D01*
X147029404Y-83407370D01*
X147137621Y-83304316D01*
X147223761Y-83182205D01*
X147284542Y-83045688D01*
X147317649Y-82899966D01*
X147320033Y-82729282D01*
X147291007Y-82582692D01*
X147234061Y-82444532D01*
X147151365Y-82320063D01*
X147046067Y-82214028D01*
X146922179Y-82130465D01*
X146784420Y-82072556D01*
X146638036Y-82042508D01*
X146488604Y-82041464D01*
X146341815Y-82069466D01*
X146203260Y-82125445D01*
X146078218Y-82207271D01*
X146039486Y-82245200D01*
X142850001Y-82245200D01*
X142798583Y-82250241D01*
X142747210Y-82254736D01*
X142744391Y-82255555D01*
X142741463Y-82255842D01*
X142692031Y-82270767D01*
X142642481Y-82285162D01*
X142639871Y-82286515D01*
X142637059Y-82287364D01*
X142591504Y-82311586D01*
X142545657Y-82335351D01*
X142543360Y-82337185D01*
X142540766Y-82338564D01*
X142500781Y-82371175D01*
X142460425Y-82403390D01*
X142456338Y-82407421D01*
X142456251Y-82407492D01*
X142456184Y-82407573D01*
X142454870Y-82408869D01*
X140840539Y-84023200D01*
X137171022Y-84023200D01*
X137140067Y-83992028D01*
X137016179Y-83908465D01*
X136878420Y-83850556D01*
X136732036Y-83820508D01*
X136582604Y-83819464D01*
X136435815Y-83847466D01*
X136297260Y-83903445D01*
X136172218Y-83985271D01*
X136065450Y-84089826D01*
X135981023Y-84213127D01*
X135922154Y-84350479D01*
X135891085Y-84496650D01*
X135888998Y-84646071D01*
X128727200Y-84646071D01*
X128727200Y-82772591D01*
X128772338Y-82729607D01*
X128846992Y-82623777D01*
X128899669Y-82505463D01*
X128928362Y-82379171D01*
X128930428Y-82231244D01*
X128905272Y-82104200D01*
X128855920Y-81984461D01*
X128784249Y-81876589D01*
X128692991Y-81784691D01*
X128585622Y-81712270D01*
X128466230Y-81662082D01*
X128339365Y-81636040D01*
X128209857Y-81635136D01*
X128082640Y-81659404D01*
X127962559Y-81707920D01*
X127854189Y-81778835D01*
X127761657Y-81869449D01*
X127761454Y-81869746D01*
X127676991Y-81784691D01*
X127569622Y-81712270D01*
X127450230Y-81662082D01*
X127323365Y-81636040D01*
X127193857Y-81635136D01*
X127066640Y-81659404D01*
X126946559Y-81707920D01*
X126838189Y-81778835D01*
X126745657Y-81869449D01*
X126672487Y-81976311D01*
X126621467Y-82095349D01*
X126594541Y-82222030D01*
X126592732Y-82351528D01*
X122858600Y-82351528D01*
X122858600Y-76255528D01*
X137514732Y-76255528D01*
X137538112Y-76382912D01*
X137585788Y-76503328D01*
X137655945Y-76612191D01*
X137745911Y-76705353D01*
X137852259Y-76779267D01*
X137970938Y-76831116D01*
X138097428Y-76858927D01*
X138226910Y-76861639D01*
X138354454Y-76839150D01*
X138475200Y-76792315D01*
X138584550Y-76722920D01*
X138678338Y-76633607D01*
X138752992Y-76527777D01*
X138805669Y-76409463D01*
X138820893Y-76342454D01*
X138859428Y-76350927D01*
X138988910Y-76353639D01*
X139116454Y-76331150D01*
X139237200Y-76284315D01*
X139346550Y-76214920D01*
X139440338Y-76125607D01*
X139514992Y-76019777D01*
X139567669Y-75901463D01*
X139596362Y-75775171D01*
X139598428Y-75627244D01*
X139588191Y-75575544D01*
X139624454Y-75569150D01*
X139745200Y-75522315D01*
X139854550Y-75452920D01*
X139948338Y-75363607D01*
X140022992Y-75257777D01*
X140075669Y-75139463D01*
X140104362Y-75013171D01*
X140106428Y-74865244D01*
X140081272Y-74738200D01*
X140031920Y-74618461D01*
X139960249Y-74510589D01*
X139871276Y-74420992D01*
X139948338Y-74347607D01*
X140022992Y-74241777D01*
X140075669Y-74123463D01*
X140104362Y-73997171D01*
X140106428Y-73849244D01*
X140081272Y-73722200D01*
X140031920Y-73602461D01*
X139960249Y-73494589D01*
X139868991Y-73402691D01*
X139761622Y-73330270D01*
X139691912Y-73300966D01*
X139691912Y-72642939D01*
X139762262Y-72713289D01*
X139794890Y-72740091D01*
X139827248Y-72767242D01*
X139829354Y-72768400D01*
X139831212Y-72769926D01*
X139868407Y-72789870D01*
X139905441Y-72810229D01*
X139907736Y-72810957D01*
X139909851Y-72812091D01*
X139950207Y-72824429D01*
X139990494Y-72837209D01*
X139992882Y-72837477D01*
X139995182Y-72838180D01*
X140037214Y-72842449D01*
X140079167Y-72847155D01*
X140083868Y-72847188D01*
X140083955Y-72847197D01*
X140084036Y-72847189D01*
X140085551Y-72847200D01*
X140239410Y-72847200D01*
X140285911Y-72895353D01*
X140392259Y-72969267D01*
X140510938Y-73021116D01*
X140637428Y-73048927D01*
X140766910Y-73051639D01*
X140894454Y-73029150D01*
X141015200Y-72982315D01*
X141124550Y-72912920D01*
X141218338Y-72823607D01*
X141292992Y-72717777D01*
X141345669Y-72599463D01*
X141374362Y-72473171D01*
X141376428Y-72325244D01*
X141351272Y-72198200D01*
X141301920Y-72078461D01*
X141230249Y-71970589D01*
X141138991Y-71878691D01*
X141031622Y-71806270D01*
X140912230Y-71756082D01*
X140785365Y-71730040D01*
X140655857Y-71729136D01*
X140528640Y-71753404D01*
X140408559Y-71801920D01*
X140300189Y-71872835D01*
X140257130Y-71915001D01*
X140099245Y-71757116D01*
X140099245Y-69309509D01*
X140389456Y-69019299D01*
X153048810Y-69019299D01*
X153309233Y-69279722D01*
X153309233Y-84926861D01*
X153313355Y-84968904D01*
X153317035Y-85010964D01*
X153317705Y-85013271D01*
X153317940Y-85015665D01*
X153330137Y-85056061D01*
X153341929Y-85096651D01*
X153343038Y-85098790D01*
X153343731Y-85101086D01*
X153363548Y-85138357D01*
X153382993Y-85175870D01*
X153384491Y-85177746D01*
X153385621Y-85179872D01*
X153412350Y-85212645D01*
X153438661Y-85245604D01*
X153441956Y-85248946D01*
X153442017Y-85249020D01*
X153442086Y-85249077D01*
X153443144Y-85250150D01*
X155014316Y-86821322D01*
X155046949Y-86848128D01*
X155079302Y-86875275D01*
X155081407Y-86876432D01*
X155083267Y-86877960D01*
X155120479Y-86897913D01*
X155157495Y-86918262D01*
X155159790Y-86918990D01*
X155161905Y-86920124D01*
X155202302Y-86932475D01*
X155242548Y-86945242D01*
X155244931Y-86945509D01*
X155247236Y-86946214D01*
X155289362Y-86950493D01*
X155331221Y-86955188D01*
X155335911Y-86955221D01*
X155336009Y-86955231D01*
X155336100Y-86955222D01*
X155337605Y-86955233D01*
X163373698Y-86955233D01*
X164966091Y-88547627D01*
X164998754Y-88574457D01*
X165031077Y-88601579D01*
X165033182Y-88602736D01*
X165035042Y-88604264D01*
X165063402Y-88619470D01*
X165032660Y-88644542D01*
X164882679Y-88825837D01*
X164770769Y-89032811D01*
X164767677Y-89042800D01*
X164525688Y-89042800D01*
X164483645Y-89046922D01*
X164441585Y-89050602D01*
X164439278Y-89051272D01*
X164436884Y-89051507D01*
X164396488Y-89063704D01*
X164355898Y-89075496D01*
X164353759Y-89076605D01*
X164351463Y-89077298D01*
X164314192Y-89097115D01*
X164276679Y-89116560D01*
X164274803Y-89118058D01*
X164272677Y-89119188D01*
X164239873Y-89145942D01*
X164206945Y-89172229D01*
X164203605Y-89175522D01*
X164203529Y-89175584D01*
X164203471Y-89175654D01*
X164202399Y-89176711D01*
X163489845Y-89889265D01*
X154017032Y-89889265D01*
X153148210Y-89020443D01*
X153148210Y-70816857D01*
X153144087Y-70774810D01*
X153140408Y-70732755D01*
X153139738Y-70730448D01*
X153139503Y-70728053D01*
X153127298Y-70687631D01*
X153115514Y-70647068D01*
X153114406Y-70644930D01*
X153113712Y-70642632D01*
X153093886Y-70605343D01*
X153074450Y-70567848D01*
X153072952Y-70565972D01*
X153071822Y-70563846D01*
X153045093Y-70531073D01*
X153018782Y-70498114D01*
X153015483Y-70494768D01*
X153015426Y-70494698D01*
X153015361Y-70494645D01*
X153014300Y-70493568D01*
X151790890Y-69270159D01*
X151758262Y-69243357D01*
X151725904Y-69216206D01*
X151723798Y-69215048D01*
X151721940Y-69213522D01*
X151684745Y-69193578D01*
X151647711Y-69173219D01*
X151645416Y-69172491D01*
X151643301Y-69171357D01*
X151602904Y-69159006D01*
X151562658Y-69146239D01*
X151560275Y-69145972D01*
X151557970Y-69145267D01*
X151515844Y-69140988D01*
X151473985Y-69136293D01*
X151469295Y-69136260D01*
X151469197Y-69136250D01*
X151469106Y-69136259D01*
X151467601Y-69136248D01*
X143153696Y-69136248D01*
X143111649Y-69140371D01*
X143069594Y-69144050D01*
X143067287Y-69144720D01*
X143064892Y-69144955D01*
X143024483Y-69157155D01*
X142983906Y-69168944D01*
X142981767Y-69170053D01*
X142979471Y-69170746D01*
X142942200Y-69190563D01*
X142904687Y-69210008D01*
X142902811Y-69211506D01*
X142900685Y-69212636D01*
X142867912Y-69239365D01*
X142834953Y-69265676D01*
X142831611Y-69268971D01*
X142831537Y-69269032D01*
X142831480Y-69269101D01*
X142830407Y-69270159D01*
X142386660Y-69713906D01*
X142309365Y-69698040D01*
X142179857Y-69697136D01*
X142052640Y-69721404D01*
X141932559Y-69769920D01*
X141824189Y-69840835D01*
X141731657Y-69931449D01*
X141658487Y-70038311D01*
X141607467Y-70157349D01*
X141580541Y-70284030D01*
X141578732Y-70413528D01*
X141602112Y-70540912D01*
X141649788Y-70661328D01*
X141719945Y-70770191D01*
X141809911Y-70863353D01*
X141916259Y-70937267D01*
X142034938Y-70989116D01*
X142161428Y-71016927D01*
X142290910Y-71019639D01*
X142418454Y-70997150D01*
X142539200Y-70950315D01*
X142648550Y-70880920D01*
X142742338Y-70791607D01*
X142748369Y-70783057D01*
X142825911Y-70863353D01*
X142932259Y-70937267D01*
X143050938Y-70989116D01*
X143177428Y-71016927D01*
X143306910Y-71019639D01*
X143434454Y-70997150D01*
X143555200Y-70950315D01*
X143664550Y-70880920D01*
X143667175Y-70878420D01*
X143681788Y-70915328D01*
X143751945Y-71024191D01*
X143841911Y-71117353D01*
X143948259Y-71191267D01*
X144066938Y-71243116D01*
X144193428Y-71270927D01*
X144322910Y-71273639D01*
X144450454Y-71251150D01*
X144571200Y-71204315D01*
X144680550Y-71134920D01*
X144768487Y-71051179D01*
X144778035Y-71048296D01*
X144818625Y-71036504D01*
X144820764Y-71035395D01*
X144823060Y-71034702D01*
X144860331Y-71014885D01*
X144897844Y-70995440D01*
X144899720Y-70993942D01*
X144901846Y-70992812D01*
X144934619Y-70966083D01*
X144967578Y-70939772D01*
X144970920Y-70936477D01*
X144970994Y-70936416D01*
X144971051Y-70936347D01*
X144972124Y-70935289D01*
X145039434Y-70867979D01*
X150937532Y-70867979D01*
X151420260Y-71350707D01*
X151420260Y-89554067D01*
X151424382Y-89596110D01*
X151428062Y-89638170D01*
X151428732Y-89640477D01*
X151428967Y-89642871D01*
X151441164Y-89683267D01*
X151452956Y-89723857D01*
X151454065Y-89725996D01*
X151454758Y-89728292D01*
X151474575Y-89765563D01*
X151494020Y-89803076D01*
X151495518Y-89804952D01*
X151496648Y-89807078D01*
X151523377Y-89839851D01*
X151549688Y-89872810D01*
X151552983Y-89876152D01*
X151553044Y-89876226D01*
X151553113Y-89876283D01*
X151554171Y-89877356D01*
X153177736Y-91500921D01*
X153210369Y-91527727D01*
X153242722Y-91554874D01*
X153244827Y-91556031D01*
X153246687Y-91557559D01*
X153283899Y-91577512D01*
X153320915Y-91597861D01*
X153323210Y-91598589D01*
X153325325Y-91599723D01*
X153365722Y-91612074D01*
X153405968Y-91624841D01*
X153408351Y-91625108D01*
X153410656Y-91625813D01*
X153452782Y-91630092D01*
X153494641Y-91634787D01*
X153499331Y-91634820D01*
X153499429Y-91634830D01*
X153499520Y-91634821D01*
X153501025Y-91634832D01*
X163499907Y-91634832D01*
X164228364Y-92363290D01*
X164261027Y-92390120D01*
X164293350Y-92417242D01*
X164295455Y-92418399D01*
X164297315Y-92419927D01*
X164334509Y-92439869D01*
X164371543Y-92460229D01*
X164373840Y-92460958D01*
X164375954Y-92462091D01*
X164416336Y-92474438D01*
X164456596Y-92487209D01*
X164458979Y-92487476D01*
X164461284Y-92488181D01*
X164503410Y-92492460D01*
X164545269Y-92497155D01*
X164549959Y-92497188D01*
X164550057Y-92497198D01*
X164550148Y-92497189D01*
X164551653Y-92497200D01*
X164767268Y-92497200D01*
X164873364Y-92700142D01*
X164999449Y-92856960D01*
X152396177Y-92856960D01*
X151285790Y-91746574D01*
X151285790Y-86758774D01*
X151281667Y-86716727D01*
X151277988Y-86674672D01*
X151277318Y-86672365D01*
X151277083Y-86669970D01*
X151264878Y-86629548D01*
X151253094Y-86588985D01*
X151251986Y-86586847D01*
X151251292Y-86584549D01*
X151231466Y-86547260D01*
X151212030Y-86509765D01*
X151210532Y-86507889D01*
X151209402Y-86505763D01*
X151182673Y-86472990D01*
X151156362Y-86440031D01*
X151153063Y-86436685D01*
X151153006Y-86436615D01*
X151152941Y-86436562D01*
X151151880Y-86435485D01*
X150938026Y-86221632D01*
X150938026Y-78491689D01*
X150933904Y-78449646D01*
X150930224Y-78407586D01*
X150929554Y-78405279D01*
X150929319Y-78402885D01*
X150917108Y-78362442D01*
X150905329Y-78321899D01*
X150904223Y-78319764D01*
X150903528Y-78317464D01*
X150883693Y-78280158D01*
X150864266Y-78242680D01*
X150862768Y-78240804D01*
X150861638Y-78238678D01*
X150834904Y-78205899D01*
X150808597Y-78172945D01*
X150805299Y-78169600D01*
X150805242Y-78169530D01*
X150805177Y-78169477D01*
X150804115Y-78168399D01*
X148895074Y-76259359D01*
X148895074Y-74169143D01*
X148890952Y-74127100D01*
X148887272Y-74085040D01*
X148886602Y-74082733D01*
X148886367Y-74080339D01*
X148874170Y-74039943D01*
X148862378Y-73999353D01*
X148861269Y-73997214D01*
X148860576Y-73994918D01*
X148840759Y-73957647D01*
X148821314Y-73920134D01*
X148819816Y-73918258D01*
X148818686Y-73916132D01*
X148791932Y-73883328D01*
X148765645Y-73850400D01*
X148762352Y-73847060D01*
X148762290Y-73846984D01*
X148762220Y-73846926D01*
X148761163Y-73845854D01*
X147998020Y-73082711D01*
X147965392Y-73055909D01*
X147933034Y-73028758D01*
X147930928Y-73027600D01*
X147929070Y-73026074D01*
X147891875Y-73006130D01*
X147854841Y-72985771D01*
X147852546Y-72985043D01*
X147850431Y-72983909D01*
X147810034Y-72971558D01*
X147769788Y-72958791D01*
X147767405Y-72958524D01*
X147765100Y-72957819D01*
X147722974Y-72953540D01*
X147681115Y-72948845D01*
X147676425Y-72948812D01*
X147676327Y-72948802D01*
X147676236Y-72948811D01*
X147674731Y-72948800D01*
X146780723Y-72948800D01*
X146726991Y-72894691D01*
X146619622Y-72822270D01*
X146500230Y-72772082D01*
X146373365Y-72746040D01*
X146243857Y-72745136D01*
X146116640Y-72769404D01*
X145996559Y-72817920D01*
X145888189Y-72888835D01*
X145795657Y-72979449D01*
X145722487Y-73086311D01*
X145671467Y-73205349D01*
X145644541Y-73332030D01*
X145642732Y-73461528D01*
X145666112Y-73588912D01*
X145713788Y-73709328D01*
X145783945Y-73818191D01*
X145873911Y-73911353D01*
X145980259Y-73985267D01*
X146098938Y-74037116D01*
X146225428Y-74064927D01*
X146354910Y-74067639D01*
X146482454Y-74045150D01*
X146603200Y-73998315D01*
X146712550Y-73928920D01*
X146781563Y-73863200D01*
X147475814Y-73863200D01*
X147412189Y-73904835D01*
X147319657Y-73995449D01*
X147246487Y-74102311D01*
X147195467Y-74221349D01*
X147168541Y-74348030D01*
X147166732Y-74477528D01*
X147177970Y-74538757D01*
X147132640Y-74547404D01*
X147012559Y-74595920D01*
X146904189Y-74666835D01*
X146811657Y-74757449D01*
X146738487Y-74864311D01*
X146687467Y-74983349D01*
X146660541Y-75110030D01*
X146658732Y-75239528D01*
X146668831Y-75294552D01*
X146627365Y-75286040D01*
X146497857Y-75285136D01*
X146370640Y-75309404D01*
X146250559Y-75357920D01*
X146142189Y-75428835D01*
X146049657Y-75519449D01*
X145976487Y-75626311D01*
X145925467Y-75745349D01*
X145898541Y-75872030D01*
X145896732Y-76001528D01*
X145906831Y-76056552D01*
X145865365Y-76048040D01*
X145735857Y-76047136D01*
X145608640Y-76071404D01*
X145488559Y-76119920D01*
X145380189Y-76190835D01*
X145287657Y-76281449D01*
X145214487Y-76388311D01*
X145163467Y-76507349D01*
X145136541Y-76634030D01*
X145134732Y-76763528D01*
X145158112Y-76890912D01*
X145205788Y-77011328D01*
X145275438Y-77119404D01*
X145234559Y-77135920D01*
X145126189Y-77206835D01*
X145033657Y-77297449D01*
X144960487Y-77404311D01*
X144909467Y-77523349D01*
X144882541Y-77650030D01*
X144880732Y-77779528D01*
X144904112Y-77906912D01*
X144951788Y-78027328D01*
X145021945Y-78136191D01*
X145111911Y-78229353D01*
X145218259Y-78303267D01*
X145336938Y-78355116D01*
X145463428Y-78382927D01*
X145592910Y-78385639D01*
X145720454Y-78363150D01*
X145841200Y-78316315D01*
X145950550Y-78246920D01*
X146019563Y-78181200D01*
X146459814Y-78181200D01*
X146396189Y-78222835D01*
X146303657Y-78313449D01*
X146230487Y-78420311D01*
X146179467Y-78539349D01*
X146152541Y-78666030D01*
X146150732Y-78795528D01*
X146174112Y-78922912D01*
X146221788Y-79043328D01*
X146291945Y-79152191D01*
X146381911Y-79245353D01*
X146488259Y-79319267D01*
X146606938Y-79371116D01*
X146733428Y-79398927D01*
X146862910Y-79401639D01*
X146990454Y-79379150D01*
X147111200Y-79332315D01*
X147153727Y-79305326D01*
X147550107Y-79701706D01*
X147550107Y-86245315D01*
X146997927Y-86797495D01*
X146904189Y-86858835D01*
X146811657Y-86949449D01*
X146738487Y-87056311D01*
X146687467Y-87175349D01*
X146660541Y-87302030D01*
X146658732Y-87431528D01*
X146682112Y-87558912D01*
X146729788Y-87679328D01*
X146799945Y-87788191D01*
X146889911Y-87881353D01*
X146996259Y-87955267D01*
X147114938Y-88007116D01*
X147241428Y-88034927D01*
X147370910Y-88037639D01*
X147436613Y-88026054D01*
X147444112Y-88066912D01*
X147491788Y-88187328D01*
X147561945Y-88296191D01*
X147651911Y-88389353D01*
X147758259Y-88463267D01*
X147876938Y-88515116D01*
X148003428Y-88542927D01*
X148132910Y-88545639D01*
X148260454Y-88523150D01*
X148381200Y-88476315D01*
X148490550Y-88406920D01*
X148584338Y-88317607D01*
X148658992Y-88211777D01*
X148711669Y-88093463D01*
X148726893Y-88026454D01*
X148765428Y-88034927D01*
X148894910Y-88037639D01*
X149022454Y-88015150D01*
X149143200Y-87968315D01*
X149148800Y-87964761D01*
X149148800Y-92486132D01*
X149152922Y-92528175D01*
X149156602Y-92570235D01*
X149157272Y-92572542D01*
X149157507Y-92574936D01*
X149169704Y-92615332D01*
X149181496Y-92655922D01*
X149182605Y-92658061D01*
X149183298Y-92660357D01*
X149203115Y-92697628D01*
X149222560Y-92735141D01*
X149224058Y-92737017D01*
X149225188Y-92739143D01*
X149251917Y-92771916D01*
X149278228Y-92804875D01*
X149281523Y-92808217D01*
X149281584Y-92808291D01*
X149281653Y-92808348D01*
X149282711Y-92809421D01*
X151341977Y-94868687D01*
X151374583Y-94895470D01*
X151406963Y-94922640D01*
X151409072Y-94923799D01*
X151410928Y-94925324D01*
X151448102Y-94945256D01*
X151485156Y-94965627D01*
X151487451Y-94966355D01*
X151489566Y-94967489D01*
X151529963Y-94979840D01*
X151570209Y-94992607D01*
X151572592Y-94992874D01*
X151574897Y-94993579D01*
X151617023Y-94997858D01*
X151658882Y-95002553D01*
X151663572Y-95002586D01*
X151663670Y-95002596D01*
X151663761Y-95002587D01*
X151665266Y-95002598D01*
X163026301Y-95002598D01*
X164748489Y-96724786D01*
X164701191Y-96877580D01*
X164676596Y-97111583D01*
X164697921Y-97345907D01*
X164764354Y-97571626D01*
X164873364Y-97780142D01*
X165020799Y-97963514D01*
X165201043Y-98114757D01*
X165407231Y-98228110D01*
X165631509Y-98299255D01*
X165865334Y-98325482D01*
X165882167Y-98325600D01*
X165893833Y-98325600D01*
X166128002Y-98302640D01*
X166353251Y-98234633D01*
X166561002Y-98124170D01*
X166743340Y-97975458D01*
X166893321Y-97794163D01*
X167005231Y-97587189D01*
X167025450Y-97521873D01*
X167045911Y-97589338D01*
X167164031Y-97849952D01*
X167330724Y-98082514D01*
X167539585Y-98278087D01*
X167719603Y-98390000D01*
X167539585Y-98501913D01*
X167330724Y-98697486D01*
X167164031Y-98930048D01*
X167045911Y-99190662D01*
X167025876Y-99256722D01*
X167011646Y-99208374D01*
X166902636Y-98999858D01*
X166755201Y-98816486D01*
X166574957Y-98665243D01*
X166368769Y-98551890D01*
X166144491Y-98480745D01*
X165910666Y-98454518D01*
X165893833Y-98454400D01*
X165882167Y-98454400D01*
X165647998Y-98477360D01*
X165422749Y-98545367D01*
X165214998Y-98655830D01*
X165032660Y-98804542D01*
X164882679Y-98985837D01*
X164770769Y-99192811D01*
X164701191Y-99417580D01*
X164676596Y-99651583D01*
X164697921Y-99885907D01*
X164764354Y-100111626D01*
X164873364Y-100320142D01*
X165020799Y-100503514D01*
X165201043Y-100654757D01*
X165407231Y-100768110D01*
X165631509Y-100839255D01*
X165865334Y-100865482D01*
X165882167Y-100865600D01*
X165893833Y-100865600D01*
X166128002Y-100842640D01*
X166353251Y-100774633D01*
X166561002Y-100664170D01*
X166743340Y-100515458D01*
X166893321Y-100334163D01*
X167005231Y-100127189D01*
X167025450Y-100061873D01*
X167045911Y-100129338D01*
X167164031Y-100389952D01*
X167330724Y-100622514D01*
X167539585Y-100818087D01*
X167782587Y-100969156D01*
X168050392Y-101069915D01*
X168275600Y-100959228D01*
X168275600Y-99812400D01*
X168580400Y-99812400D01*
X168580400Y-100959228D01*
X168805608Y-101069915D01*
X169073413Y-100969156D01*
X169316415Y-100818087D01*
X169525276Y-100622514D01*
X169691969Y-100389952D01*
X169810089Y-100129338D01*
X169837910Y-100037607D01*
X169726286Y-99812400D01*
X168580400Y-99812400D01*
X168275600Y-99812400D01*
X168255600Y-99812400D01*
X168255600Y-99507600D01*
X168275600Y-99507600D01*
X168275600Y-97272400D01*
X168580400Y-97272400D01*
X168580400Y-99507600D01*
X169726286Y-99507600D01*
X169837910Y-99282393D01*
X169810089Y-99190662D01*
X169691969Y-98930048D01*
X169525276Y-98697486D01*
X169316415Y-98501913D01*
X169136397Y-98390000D01*
X169316415Y-98278087D01*
X169525276Y-98082514D01*
X169691969Y-97849952D01*
X169810089Y-97589338D01*
X169837910Y-97497607D01*
X169726286Y-97272400D01*
X168580400Y-97272400D01*
X168275600Y-97272400D01*
X168255600Y-97272400D01*
X168255600Y-96967600D01*
X168275600Y-96967600D01*
X168275600Y-96947600D01*
X168580400Y-96947600D01*
X168580400Y-96967600D01*
X169726286Y-96967600D01*
X169837910Y-96742393D01*
X169810089Y-96650662D01*
X169691969Y-96390048D01*
X169525276Y-96157486D01*
X169316415Y-95961913D01*
X169073413Y-95810844D01*
X168821842Y-95716193D01*
X168893251Y-95694633D01*
X169101002Y-95584170D01*
X169283340Y-95435458D01*
X169433321Y-95254163D01*
X169545231Y-95047189D01*
X169614809Y-94822420D01*
X169639404Y-94588417D01*
X169618079Y-94354093D01*
X169551646Y-94128374D01*
X169442636Y-93919858D01*
X169295201Y-93736486D01*
X169114957Y-93585243D01*
X168908769Y-93471890D01*
X168684491Y-93400745D01*
X168450666Y-93374518D01*
X168433833Y-93374400D01*
X168422167Y-93374400D01*
X168187998Y-93397360D01*
X167962749Y-93465367D01*
X167754998Y-93575830D01*
X167572660Y-93724542D01*
X167422679Y-93905837D01*
X167310769Y-94112811D01*
X167241191Y-94337580D01*
X167216596Y-94571583D01*
X167237921Y-94805907D01*
X167304354Y-95031626D01*
X167312901Y-95047974D01*
X166958277Y-95402598D01*
X166770524Y-95402598D01*
X166893321Y-95254163D01*
X167005231Y-95047189D01*
X167074809Y-94822420D01*
X167099404Y-94588417D01*
X167078079Y-94354093D01*
X167011646Y-94128374D01*
X166902636Y-93919858D01*
X166783240Y-93771360D01*
X167159770Y-93771360D01*
X167201813Y-93767238D01*
X167243873Y-93763558D01*
X167246180Y-93762888D01*
X167248574Y-93762653D01*
X167288970Y-93750456D01*
X167329560Y-93738664D01*
X167331699Y-93737555D01*
X167333995Y-93736862D01*
X167371266Y-93717045D01*
X167408779Y-93697600D01*
X167410655Y-93696102D01*
X167412781Y-93694972D01*
X167445554Y-93668243D01*
X167478513Y-93641932D01*
X167481855Y-93638637D01*
X167481929Y-93638576D01*
X167481986Y-93638507D01*
X167483059Y-93637449D01*
X167966337Y-93154171D01*
X168171509Y-93219255D01*
X168405334Y-93245482D01*
X168422167Y-93245600D01*
X168433833Y-93245600D01*
X168668002Y-93222640D01*
X168893251Y-93154633D01*
X169101002Y-93044170D01*
X169283340Y-92895458D01*
X169433321Y-92714163D01*
X169545231Y-92507189D01*
X169614809Y-92282420D01*
X169639404Y-92048417D01*
X169618079Y-91814093D01*
X169551646Y-91588374D01*
X169442636Y-91379858D01*
X169295201Y-91196486D01*
X169114957Y-91045243D01*
X168908769Y-90931890D01*
X168684491Y-90860745D01*
X168450666Y-90834518D01*
X168433833Y-90834400D01*
X168422167Y-90834400D01*
X168187998Y-90857360D01*
X167962749Y-90925367D01*
X167754998Y-91035830D01*
X167572660Y-91184542D01*
X167422679Y-91365837D01*
X167310769Y-91572811D01*
X167241191Y-91797580D01*
X167216596Y-92031583D01*
X167237921Y-92265907D01*
X167304354Y-92491626D01*
X167315124Y-92512228D01*
X166970392Y-92856960D01*
X166775188Y-92856960D01*
X166893321Y-92714163D01*
X167005231Y-92507189D01*
X167074809Y-92282420D01*
X167099404Y-92048417D01*
X167078079Y-91814093D01*
X167011646Y-91588374D01*
X166902636Y-91379858D01*
X166775141Y-91221286D01*
X167155149Y-91221286D01*
X167197192Y-91217164D01*
X167239252Y-91213484D01*
X167241559Y-91212814D01*
X167243953Y-91212579D01*
X167284349Y-91200382D01*
X167324939Y-91188590D01*
X167327078Y-91187481D01*
X167329374Y-91186788D01*
X167366645Y-91166971D01*
X167404158Y-91147526D01*
X167406034Y-91146028D01*
X167408160Y-91144898D01*
X167440933Y-91118169D01*
X167473892Y-91091858D01*
X167477234Y-91088563D01*
X167477308Y-91088502D01*
X167477365Y-91088433D01*
X167478438Y-91087375D01*
X167955181Y-90610632D01*
X168171509Y-90679255D01*
X168405334Y-90705482D01*
X168422167Y-90705600D01*
X168433833Y-90705600D01*
X168668002Y-90682640D01*
X168893251Y-90614633D01*
X169101002Y-90504170D01*
X169283340Y-90355458D01*
X169433321Y-90174163D01*
X169545231Y-89967189D01*
X169614809Y-89742420D01*
X169639404Y-89508417D01*
X169618079Y-89274093D01*
X169551646Y-89048374D01*
X169442636Y-88839858D01*
X169295201Y-88656486D01*
X169114957Y-88505243D01*
X168908769Y-88391890D01*
X168684491Y-88320745D01*
X168450666Y-88294518D01*
X168433833Y-88294400D01*
X168422167Y-88294400D01*
X168187998Y-88317360D01*
X167962749Y-88385367D01*
X167754998Y-88495830D01*
X167572660Y-88644542D01*
X167422679Y-88825837D01*
X167310769Y-89032811D01*
X167241191Y-89257580D01*
X167216596Y-89491583D01*
X167237921Y-89725907D01*
X167304354Y-89951626D01*
X167310079Y-89962577D01*
X166965771Y-90306886D01*
X166783522Y-90306886D01*
X166893321Y-90174163D01*
X167005231Y-89967189D01*
X167074809Y-89742420D01*
X167099404Y-89508417D01*
X167078079Y-89274093D01*
X167011646Y-89048374D01*
X166902636Y-88839858D01*
X166775343Y-88681537D01*
X167152892Y-88681537D01*
X167194935Y-88677415D01*
X167236995Y-88673735D01*
X167239302Y-88673065D01*
X167241696Y-88672830D01*
X167282092Y-88660633D01*
X167322682Y-88648841D01*
X167324821Y-88647732D01*
X167327117Y-88647039D01*
X167364388Y-88627222D01*
X167401901Y-88607777D01*
X167403777Y-88606279D01*
X167405903Y-88605149D01*
X167438676Y-88578420D01*
X167471635Y-88552109D01*
X167474977Y-88548814D01*
X167475051Y-88548753D01*
X167475108Y-88548684D01*
X167476181Y-88547626D01*
X167953658Y-88070149D01*
X168171509Y-88139255D01*
X168405334Y-88165482D01*
X168422167Y-88165600D01*
X168433833Y-88165600D01*
X168668002Y-88142640D01*
X168893251Y-88074633D01*
X169101002Y-87964170D01*
X169283340Y-87815458D01*
X169433321Y-87634163D01*
X169545231Y-87427189D01*
X169614809Y-87202420D01*
X169639404Y-86968417D01*
X169618079Y-86734093D01*
X169551646Y-86508374D01*
X169442636Y-86299858D01*
X169295201Y-86116486D01*
X169114957Y-85965243D01*
X168908769Y-85851890D01*
X168684491Y-85780745D01*
X168450666Y-85754518D01*
X168433833Y-85754400D01*
X168422167Y-85754400D01*
X168187998Y-85777360D01*
X167962749Y-85845367D01*
X167754998Y-85955830D01*
X167572660Y-86104542D01*
X167422679Y-86285837D01*
X167310769Y-86492811D01*
X167241191Y-86717580D01*
X167216596Y-86951583D01*
X167237921Y-87185907D01*
X167304354Y-87411626D01*
X167309391Y-87421260D01*
X166963514Y-87767137D01*
X166783315Y-87767137D01*
X166893321Y-87634163D01*
X167005231Y-87427189D01*
X167074809Y-87202420D01*
X167099404Y-86968417D01*
X167078079Y-86734093D01*
X167011646Y-86508374D01*
X166902636Y-86299858D01*
X166771523Y-86136786D01*
X167169272Y-86136786D01*
X167211315Y-86132664D01*
X167253375Y-86128984D01*
X167255682Y-86128314D01*
X167258076Y-86128079D01*
X167298472Y-86115882D01*
X167339062Y-86104090D01*
X167341201Y-86102981D01*
X167343497Y-86102288D01*
X167380768Y-86082471D01*
X167418281Y-86063026D01*
X167420157Y-86061528D01*
X167422283Y-86060398D01*
X167455056Y-86033669D01*
X167488015Y-86007358D01*
X167491357Y-86004063D01*
X167491431Y-86004002D01*
X167491488Y-86003933D01*
X167492561Y-86002875D01*
X167962487Y-85532949D01*
X168171509Y-85599255D01*
X168405334Y-85625482D01*
X168422167Y-85625600D01*
X168433833Y-85625600D01*
X168668002Y-85602640D01*
X168893251Y-85534633D01*
X169101002Y-85424170D01*
X169283340Y-85275458D01*
X169433321Y-85094163D01*
X169545231Y-84887189D01*
X169614809Y-84662420D01*
X169639404Y-84428417D01*
X169618079Y-84194093D01*
X169551646Y-83968374D01*
X169442636Y-83759858D01*
X169295201Y-83576486D01*
X169114957Y-83425243D01*
X168908769Y-83311890D01*
X168821109Y-83284083D01*
X169073413Y-83189156D01*
X169316415Y-83038087D01*
X169525276Y-82842514D01*
X169691969Y-82609952D01*
X169810089Y-82349338D01*
X169837910Y-82257607D01*
X169726286Y-82032400D01*
X168580400Y-82032400D01*
X168580400Y-82052400D01*
X168275600Y-82052400D01*
X168275600Y-82032400D01*
X168255600Y-82032400D01*
X168255600Y-81727600D01*
X168275600Y-81727600D01*
X168275600Y-81707600D01*
X168580400Y-81707600D01*
X168580400Y-81727600D01*
X169726286Y-81727600D01*
X169837910Y-81502393D01*
X169810089Y-81410662D01*
X169691969Y-81150048D01*
X169525276Y-80917486D01*
X169316415Y-80721913D01*
X169073413Y-80570844D01*
X168821842Y-80476193D01*
X168893251Y-80454633D01*
X169101002Y-80344170D01*
X169283340Y-80195458D01*
X169433321Y-80014163D01*
X169545231Y-79807189D01*
X169614809Y-79582420D01*
X169639404Y-79348417D01*
X169618079Y-79114093D01*
X169551646Y-78888374D01*
X169442636Y-78679858D01*
X169295201Y-78496486D01*
X169114957Y-78345243D01*
X168908769Y-78231890D01*
X168684491Y-78160745D01*
X168450666Y-78134518D01*
X168433833Y-78134400D01*
X168422167Y-78134400D01*
X168187998Y-78157360D01*
X167962749Y-78225367D01*
X167754998Y-78335830D01*
X167572660Y-78484542D01*
X167422679Y-78665837D01*
X167310769Y-78872811D01*
X167241191Y-79097580D01*
X167216596Y-79331583D01*
X167237921Y-79565907D01*
X167304354Y-79791626D01*
X167413364Y-80000142D01*
X167560799Y-80183514D01*
X167741043Y-80334757D01*
X167947231Y-80448110D01*
X168034891Y-80475917D01*
X167782587Y-80570844D01*
X167539585Y-80721913D01*
X167330724Y-80917486D01*
X167164031Y-81150048D01*
X167045911Y-81410662D01*
X167025876Y-81476722D01*
X167011646Y-81428374D01*
X166902636Y-81219858D01*
X166755201Y-81036486D01*
X166574957Y-80885243D01*
X166368769Y-80771890D01*
X166144491Y-80700745D01*
X165910666Y-80674518D01*
X165893833Y-80674400D01*
X165882167Y-80674400D01*
X165647998Y-80697360D01*
X165422749Y-80765367D01*
X165214998Y-80875830D01*
X165032660Y-81024542D01*
X164882679Y-81205837D01*
X164770769Y-81412811D01*
X164701191Y-81637580D01*
X164676596Y-81871583D01*
X164697921Y-82105907D01*
X164764354Y-82331626D01*
X164773089Y-82348333D01*
X164679242Y-82442180D01*
X164652440Y-82474808D01*
X164625289Y-82507166D01*
X164624131Y-82509272D01*
X164622605Y-82511130D01*
X164602661Y-82548325D01*
X164582302Y-82585359D01*
X164581574Y-82587654D01*
X164580440Y-82589769D01*
X164568089Y-82630166D01*
X164555322Y-82670412D01*
X164555055Y-82672795D01*
X164554350Y-82675100D01*
X164550071Y-82717226D01*
X164545376Y-82759085D01*
X164545343Y-82763775D01*
X164545333Y-82763873D01*
X164545342Y-82763964D01*
X164545331Y-82765469D01*
X164545331Y-83264260D01*
X163430791Y-84378800D01*
X156184562Y-84378800D01*
X155857819Y-84052057D01*
X155857819Y-79331583D01*
X164676596Y-79331583D01*
X164697921Y-79565907D01*
X164764354Y-79791626D01*
X164873364Y-80000142D01*
X165020799Y-80183514D01*
X165201043Y-80334757D01*
X165407231Y-80448110D01*
X165631509Y-80519255D01*
X165865334Y-80545482D01*
X165882167Y-80545600D01*
X165893833Y-80545600D01*
X166128002Y-80522640D01*
X166353251Y-80454633D01*
X166561002Y-80344170D01*
X166743340Y-80195458D01*
X166893321Y-80014163D01*
X167005231Y-79807189D01*
X167074809Y-79582420D01*
X167099404Y-79348417D01*
X167078079Y-79114093D01*
X167011646Y-78888374D01*
X166902636Y-78679858D01*
X166755201Y-78496486D01*
X166574957Y-78345243D01*
X166368769Y-78231890D01*
X166144491Y-78160745D01*
X165910666Y-78134518D01*
X165893833Y-78134400D01*
X165882167Y-78134400D01*
X165647998Y-78157360D01*
X165422749Y-78225367D01*
X165214998Y-78335830D01*
X165032660Y-78484542D01*
X164882679Y-78665837D01*
X164770769Y-78872811D01*
X164701191Y-79097580D01*
X164676596Y-79331583D01*
X155857819Y-79331583D01*
X155857819Y-75950000D01*
X164680680Y-75950000D01*
X164680680Y-77650000D01*
X164685196Y-77706628D01*
X164714940Y-77802675D01*
X164770264Y-77886633D01*
X164846788Y-77951854D01*
X164938453Y-77993173D01*
X165038000Y-78007320D01*
X166738000Y-78007320D01*
X166794628Y-78002804D01*
X166890675Y-77973060D01*
X166974633Y-77917736D01*
X167039854Y-77841212D01*
X167081173Y-77749547D01*
X167095320Y-77650000D01*
X167095320Y-76791583D01*
X167216596Y-76791583D01*
X167237921Y-77025907D01*
X167304354Y-77251626D01*
X167413364Y-77460142D01*
X167560799Y-77643514D01*
X167741043Y-77794757D01*
X167947231Y-77908110D01*
X168171509Y-77979255D01*
X168405334Y-78005482D01*
X168422167Y-78005600D01*
X168433833Y-78005600D01*
X168668002Y-77982640D01*
X168893251Y-77914633D01*
X169101002Y-77804170D01*
X169283340Y-77655458D01*
X169433321Y-77474163D01*
X169545231Y-77267189D01*
X169614809Y-77042420D01*
X169639404Y-76808417D01*
X169618079Y-76574093D01*
X169551646Y-76348374D01*
X169442636Y-76139858D01*
X169295201Y-75956486D01*
X169114957Y-75805243D01*
X168908769Y-75691890D01*
X168684491Y-75620745D01*
X168450666Y-75594518D01*
X168433833Y-75594400D01*
X168422167Y-75594400D01*
X168187998Y-75617360D01*
X167962749Y-75685367D01*
X167754998Y-75795830D01*
X167572660Y-75944542D01*
X167422679Y-76125837D01*
X167310769Y-76332811D01*
X167241191Y-76557580D01*
X167216596Y-76791583D01*
X167095320Y-76791583D01*
X167095320Y-75950000D01*
X167090804Y-75893372D01*
X167061060Y-75797325D01*
X167005736Y-75713367D01*
X166929212Y-75648146D01*
X166837547Y-75606827D01*
X166738000Y-75592680D01*
X165038000Y-75592680D01*
X164981372Y-75597196D01*
X164885325Y-75626940D01*
X164801367Y-75682264D01*
X164736146Y-75758788D01*
X164694827Y-75850453D01*
X164680680Y-75950000D01*
X155857819Y-75950000D01*
X155857819Y-68420010D01*
X155853696Y-68377963D01*
X155850017Y-68335908D01*
X155849347Y-68333601D01*
X155849112Y-68331206D01*
X155836912Y-68290797D01*
X155825123Y-68250220D01*
X155824014Y-68248081D01*
X155823321Y-68245785D01*
X155803504Y-68208514D01*
X155784059Y-68171001D01*
X155782561Y-68169125D01*
X155781431Y-68166999D01*
X155754702Y-68134226D01*
X155728391Y-68101267D01*
X155725096Y-68097925D01*
X155725035Y-68097851D01*
X155724966Y-68097794D01*
X155723908Y-68096721D01*
X155291619Y-67664432D01*
X166469830Y-67664432D01*
X166539061Y-68041644D01*
X166680242Y-68398226D01*
X166887994Y-68720594D01*
X167154404Y-68996470D01*
X167469326Y-69215346D01*
X167820762Y-69368885D01*
X168195329Y-69451239D01*
X168578758Y-69459270D01*
X168956444Y-69392674D01*
X169314002Y-69253986D01*
X169637813Y-69048490D01*
X169915542Y-68784012D01*
X170136611Y-68470626D01*
X170292600Y-68120270D01*
X170377567Y-67746288D01*
X170383684Y-67308244D01*
X170309192Y-66932035D01*
X170163047Y-66577459D01*
X169950814Y-66258023D01*
X169680578Y-65985894D01*
X169362631Y-65771436D01*
X169009085Y-65622819D01*
X168633405Y-65545703D01*
X168249901Y-65543025D01*
X167873182Y-65614889D01*
X167517595Y-65758555D01*
X167196685Y-65968553D01*
X166922675Y-66236882D01*
X166706003Y-66553324D01*
X166554921Y-66905824D01*
X166475184Y-67280957D01*
X166469830Y-67664432D01*
X155291619Y-67664432D01*
X154225609Y-66598422D01*
X154192981Y-66571620D01*
X154160623Y-66544469D01*
X154158517Y-66543311D01*
X154156659Y-66541785D01*
X154119464Y-66521841D01*
X154082430Y-66501482D01*
X154080135Y-66500754D01*
X154078020Y-66499620D01*
X154037623Y-66487269D01*
X153997377Y-66474502D01*
X153994994Y-66474235D01*
X153992689Y-66473530D01*
X153950563Y-66469251D01*
X153908704Y-66464556D01*
X153904014Y-66464523D01*
X153903916Y-66464513D01*
X153903825Y-66464522D01*
X153902320Y-66464511D01*
X139529794Y-66464511D01*
X139487751Y-66468633D01*
X139445691Y-66472313D01*
X139443384Y-66472983D01*
X139440990Y-66473218D01*
X139400594Y-66485415D01*
X139360004Y-66497207D01*
X139357865Y-66498316D01*
X139355569Y-66499009D01*
X139318298Y-66518826D01*
X139280785Y-66538271D01*
X139278909Y-66539769D01*
X139276783Y-66540899D01*
X139243979Y-66567653D01*
X139211051Y-66593940D01*
X139207711Y-66597233D01*
X139207635Y-66597295D01*
X139207577Y-66597365D01*
X139206505Y-66598422D01*
X137678213Y-68126714D01*
X137651411Y-68159342D01*
X137624260Y-68191700D01*
X137623102Y-68193806D01*
X137621576Y-68195664D01*
X137601632Y-68232859D01*
X137581273Y-68269893D01*
X137580545Y-68272188D01*
X137579411Y-68274303D01*
X137567060Y-68314700D01*
X137554293Y-68354946D01*
X137554026Y-68357329D01*
X137553321Y-68359634D01*
X137549042Y-68401760D01*
X137544347Y-68443619D01*
X137544314Y-68448309D01*
X137544304Y-68448407D01*
X137544313Y-68448498D01*
X137544302Y-68450003D01*
X137544302Y-74910439D01*
X137548424Y-74952482D01*
X137552104Y-74994542D01*
X137552774Y-74996849D01*
X137553009Y-74999243D01*
X137565206Y-75039639D01*
X137576998Y-75080229D01*
X137578107Y-75082368D01*
X137578800Y-75084664D01*
X137598617Y-75121935D01*
X137618062Y-75159448D01*
X137619560Y-75161324D01*
X137620690Y-75163450D01*
X137647419Y-75196223D01*
X137673730Y-75229182D01*
X137677025Y-75232524D01*
X137677086Y-75232598D01*
X137677155Y-75232655D01*
X137678213Y-75233728D01*
X137718800Y-75274315D01*
X137718800Y-75723366D01*
X137667657Y-75773449D01*
X137594487Y-75880311D01*
X137543467Y-75999349D01*
X137516541Y-76126030D01*
X137514732Y-76255528D01*
X122858600Y-76255528D01*
X122858600Y-67664432D01*
X124469830Y-67664432D01*
X124539061Y-68041644D01*
X124680242Y-68398226D01*
X124887994Y-68720594D01*
X125154404Y-68996470D01*
X125469326Y-69215346D01*
X125820762Y-69368885D01*
X126195329Y-69451239D01*
X126578758Y-69459270D01*
X126956444Y-69392674D01*
X127314002Y-69253986D01*
X127637813Y-69048490D01*
X127915542Y-68784012D01*
X128136611Y-68470626D01*
X128292600Y-68120270D01*
X128377567Y-67746288D01*
X128383684Y-67308244D01*
X128309192Y-66932035D01*
X128163047Y-66577459D01*
X127950814Y-66258023D01*
X127680578Y-65985894D01*
X127362631Y-65771436D01*
X127009085Y-65622819D01*
X126633405Y-65545703D01*
X126249901Y-65543025D01*
X125873182Y-65614889D01*
X125517595Y-65758555D01*
X125196685Y-65968553D01*
X124922675Y-66236882D01*
X124706003Y-66553324D01*
X124554921Y-66905824D01*
X124475184Y-67280957D01*
X124469830Y-67664432D01*
X122858600Y-67664432D01*
X122858600Y-63930600D01*
X171997400Y-63930600D01*
X171997400Y-134069400D01*
X171997400Y-134069400D01*
G37*
X171997400Y-134069400D02*
X122858600Y-134069400D01*
X122858600Y-131994749D01*
X138098777Y-131994749D01*
X138258527Y-132300102D01*
X138631220Y-132483912D01*
X139032610Y-132591481D01*
X139447275Y-132618676D01*
X139859277Y-132564452D01*
X140252784Y-132430892D01*
X140497473Y-132300102D01*
X140657223Y-131994749D01*
X139378000Y-130715526D01*
X138098777Y-131994749D01*
X122858600Y-131994749D01*
X122858600Y-130569275D01*
X137259324Y-130569275D01*
X137313548Y-130981277D01*
X137447108Y-131374784D01*
X137577898Y-131619473D01*
X137883251Y-131779223D01*
X139162474Y-130500000D01*
X139593526Y-130500000D01*
X140872749Y-131779223D01*
X141178102Y-131619473D01*
X141361912Y-131246780D01*
X141469481Y-130845390D01*
X141481900Y-130656024D01*
X146319961Y-130656024D01*
X146385653Y-131013947D01*
X146519614Y-131352295D01*
X146716742Y-131658178D01*
X146969530Y-131919948D01*
X147268348Y-132127631D01*
X147601814Y-132273319D01*
X147957227Y-132351462D01*
X148321049Y-132359083D01*
X148679422Y-132295892D01*
X149018696Y-132164296D01*
X149325949Y-131969308D01*
X149589476Y-131718354D01*
X149799241Y-131420993D01*
X149947253Y-131088552D01*
X150027875Y-130733694D01*
X150028959Y-130656024D01*
X153619961Y-130656024D01*
X153685653Y-131013947D01*
X153819614Y-131352295D01*
X154016742Y-131658178D01*
X154269530Y-131919948D01*
X154568348Y-132127631D01*
X154901814Y-132273319D01*
X155257227Y-132351462D01*
X155621049Y-132359083D01*
X155979422Y-132295892D01*
X156318696Y-132164296D01*
X156625949Y-131969308D01*
X156889476Y-131718354D01*
X157099241Y-131420993D01*
X157247253Y-131088552D01*
X157327875Y-130733694D01*
X157333679Y-130318049D01*
X157262997Y-129961078D01*
X157124325Y-129624634D01*
X156922944Y-129321532D01*
X156666527Y-129063318D01*
X156364838Y-128859827D01*
X156029371Y-128718809D01*
X155672901Y-128645636D01*
X155309008Y-128643096D01*
X154951552Y-128711284D01*
X154614148Y-128847604D01*
X154309648Y-129046864D01*
X154049650Y-129301472D01*
X153844058Y-129601733D01*
X153700702Y-129936208D01*
X153625042Y-130292157D01*
X153619961Y-130656024D01*
X150028959Y-130656024D01*
X150033679Y-130318049D01*
X149962997Y-129961078D01*
X149824325Y-129624634D01*
X149622944Y-129321532D01*
X149366527Y-129063318D01*
X149064838Y-128859827D01*
X148729371Y-128718809D01*
X148372901Y-128645636D01*
X148009008Y-128643096D01*
X147651552Y-128711284D01*
X147314148Y-128847604D01*
X147009648Y-129046864D01*
X146749650Y-129301472D01*
X146544058Y-129601733D01*
X146400702Y-129936208D01*
X146325042Y-130292157D01*
X146319961Y-130656024D01*
X141481900Y-130656024D01*
X141496676Y-130430725D01*
X141442452Y-130018723D01*
X141308892Y-129625216D01*
X141178102Y-129380527D01*
X140872749Y-129220777D01*
X139593526Y-130500000D01*
X139162474Y-130500000D01*
X137883251Y-129220777D01*
X137577898Y-129380527D01*
X137394088Y-129753220D01*
X137286519Y-130154610D01*
X137259324Y-130569275D01*
X122858600Y-130569275D01*
X122858600Y-129407737D01*
X126533341Y-129407737D01*
X126561861Y-129563128D01*
X126620019Y-129710020D01*
X126705602Y-129842818D01*
X126815348Y-129956464D01*
X126945079Y-130046629D01*
X127089851Y-130109878D01*
X127244152Y-130143804D01*
X127402104Y-130147112D01*
X127557690Y-130119678D01*
X127704984Y-130062546D01*
X127838377Y-129977893D01*
X127952786Y-129868943D01*
X128043854Y-129739845D01*
X128108113Y-129595517D01*
X128143115Y-129441457D01*
X128143585Y-129407737D01*
X130933341Y-129407737D01*
X130961861Y-129563128D01*
X131020019Y-129710020D01*
X131105602Y-129842818D01*
X131215348Y-129956464D01*
X131345079Y-130046629D01*
X131489851Y-130109878D01*
X131644152Y-130143804D01*
X131802104Y-130147112D01*
X131957690Y-130119678D01*
X132104984Y-130062546D01*
X132238377Y-129977893D01*
X132352786Y-129868943D01*
X132443854Y-129739845D01*
X132508113Y-129595517D01*
X132543115Y-129441457D01*
X132545635Y-129261007D01*
X132514948Y-129106029D01*
X132473411Y-129005251D01*
X138098777Y-129005251D01*
X139378000Y-130284474D01*
X140657223Y-129005251D01*
X140497473Y-128699898D01*
X140124780Y-128516088D01*
X139723390Y-128408519D01*
X139308725Y-128381324D01*
X138896723Y-128435548D01*
X138503216Y-128569108D01*
X138258527Y-128699898D01*
X138098777Y-129005251D01*
X132473411Y-129005251D01*
X132454744Y-128959964D01*
X132367316Y-128828374D01*
X132255993Y-128716271D01*
X132125017Y-128627926D01*
X131979375Y-128566704D01*
X131824616Y-128534937D01*
X131666633Y-128533834D01*
X131511445Y-128563437D01*
X131364963Y-128622620D01*
X131232765Y-128709127D01*
X131119889Y-128819665D01*
X131030631Y-128950021D01*
X130968394Y-129095232D01*
X130935547Y-129249766D01*
X130933341Y-129407737D01*
X128143585Y-129407737D01*
X128145635Y-129261007D01*
X128114948Y-129106029D01*
X128054744Y-128959964D01*
X127967316Y-128828374D01*
X127855993Y-128716271D01*
X127725017Y-128627926D01*
X127579375Y-128566704D01*
X127424616Y-128534937D01*
X127266633Y-128533834D01*
X127111445Y-128563437D01*
X126964963Y-128622620D01*
X126832765Y-128709127D01*
X126719889Y-128819665D01*
X126630631Y-128950021D01*
X126568394Y-129095232D01*
X126535547Y-129249766D01*
X126533341Y-129407737D01*
X122858600Y-129407737D01*
X122858600Y-119994749D01*
X138098777Y-119994749D01*
X138258527Y-120300102D01*
X138631220Y-120483912D01*
X139032610Y-120591481D01*
X139447275Y-120618676D01*
X139859277Y-120564452D01*
X140252784Y-120430892D01*
X140497473Y-120300102D01*
X140657223Y-119994749D01*
X139378000Y-118715526D01*
X138098777Y-119994749D01*
X122858600Y-119994749D01*
X122858600Y-118569275D01*
X137259324Y-118569275D01*
X137313548Y-118981277D01*
X137447108Y-119374784D01*
X137577898Y-119619473D01*
X137883251Y-119779223D01*
X139162474Y-118500000D01*
X139593526Y-118500000D01*
X140872749Y-119779223D01*
X141178102Y-119619473D01*
X141361912Y-119246780D01*
X141469481Y-118845390D01*
X141481900Y-118656024D01*
X146319961Y-118656024D01*
X146385653Y-119013947D01*
X146519614Y-119352295D01*
X146716742Y-119658178D01*
X146969530Y-119919948D01*
X147268348Y-120127631D01*
X147601814Y-120273319D01*
X147957227Y-120351462D01*
X148321049Y-120359083D01*
X148679422Y-120295892D01*
X149018696Y-120164296D01*
X149325949Y-119969308D01*
X149589476Y-119718354D01*
X149799241Y-119420993D01*
X149947253Y-119088552D01*
X150027875Y-118733694D01*
X150028959Y-118656024D01*
X153619961Y-118656024D01*
X153685653Y-119013947D01*
X153819614Y-119352295D01*
X154016742Y-119658178D01*
X154269530Y-119919948D01*
X154568348Y-120127631D01*
X154901814Y-120273319D01*
X155257227Y-120351462D01*
X155621049Y-120359083D01*
X155979422Y-120295892D01*
X156318696Y-120164296D01*
X156625949Y-119969308D01*
X156889476Y-119718354D01*
X157099241Y-119420993D01*
X157247253Y-119088552D01*
X157327875Y-118733694D01*
X157333679Y-118318049D01*
X157262997Y-117961078D01*
X157124325Y-117624634D01*
X156922944Y-117321532D01*
X156666527Y-117063318D01*
X156364838Y-116859827D01*
X156029371Y-116718809D01*
X155672901Y-116645636D01*
X155309008Y-116643096D01*
X154951552Y-116711284D01*
X154614148Y-116847604D01*
X154309648Y-117046864D01*
X154049650Y-117301472D01*
X153844058Y-117601733D01*
X153700702Y-117936208D01*
X153625042Y-118292157D01*
X153619961Y-118656024D01*
X150028959Y-118656024D01*
X150033679Y-118318049D01*
X149962997Y-117961078D01*
X149824325Y-117624634D01*
X149622944Y-117321532D01*
X149366527Y-117063318D01*
X149064838Y-116859827D01*
X148729371Y-116718809D01*
X148372901Y-116645636D01*
X148009008Y-116643096D01*
X147651552Y-116711284D01*
X147314148Y-116847604D01*
X147009648Y-117046864D01*
X146749650Y-117301472D01*
X146544058Y-117601733D01*
X146400702Y-117936208D01*
X146325042Y-118292157D01*
X146319961Y-118656024D01*
X141481900Y-118656024D01*
X141496676Y-118430725D01*
X141442452Y-118018723D01*
X141308892Y-117625216D01*
X141178102Y-117380527D01*
X140872749Y-117220777D01*
X139593526Y-118500000D01*
X139162474Y-118500000D01*
X137883251Y-117220777D01*
X137577898Y-117380527D01*
X137394088Y-117753220D01*
X137286519Y-118154610D01*
X137259324Y-118569275D01*
X122858600Y-118569275D01*
X122858600Y-117005251D01*
X138098777Y-117005251D01*
X139378000Y-118284474D01*
X140657223Y-117005251D01*
X140497473Y-116699898D01*
X140124780Y-116516088D01*
X139723390Y-116408519D01*
X139308725Y-116381324D01*
X138896723Y-116435548D01*
X138503216Y-116569108D01*
X138258527Y-116699898D01*
X138098777Y-117005251D01*
X122858600Y-117005251D01*
X122858600Y-109664432D01*
X124469830Y-109664432D01*
X124539061Y-110041644D01*
X124680242Y-110398226D01*
X124887994Y-110720594D01*
X125154404Y-110996470D01*
X125469326Y-111215346D01*
X125820762Y-111368885D01*
X126195329Y-111451239D01*
X126578758Y-111459270D01*
X126956444Y-111392674D01*
X127314002Y-111253986D01*
X127637813Y-111048490D01*
X127915542Y-110784012D01*
X128136611Y-110470626D01*
X128292600Y-110120270D01*
X128377567Y-109746288D01*
X128383684Y-109308244D01*
X128309192Y-108932035D01*
X128163047Y-108577459D01*
X127950814Y-108258023D01*
X127680578Y-107985894D01*
X127547339Y-107896023D01*
X143254998Y-107896023D01*
X143281974Y-108043004D01*
X143336985Y-108181946D01*
X143417936Y-108307557D01*
X143459200Y-108350287D01*
X143459200Y-110855911D01*
X143464241Y-110907325D01*
X143468736Y-110958702D01*
X143469555Y-110961521D01*
X143469842Y-110964449D01*
X143484767Y-111013881D01*
X143499162Y-111063431D01*
X143500515Y-111066041D01*
X143501364Y-111068853D01*
X143525586Y-111114408D01*
X143549351Y-111160255D01*
X143551185Y-111162552D01*
X143552564Y-111165146D01*
X143585175Y-111205131D01*
X143617390Y-111245487D01*
X143621421Y-111249574D01*
X143621492Y-111249661D01*
X143621573Y-111249728D01*
X143622869Y-111251042D01*
X144526958Y-112155131D01*
X144566832Y-112187884D01*
X144606385Y-112221073D01*
X144608960Y-112222489D01*
X144611231Y-112224354D01*
X144656711Y-112248740D01*
X144701954Y-112273613D01*
X144704756Y-112274502D01*
X144707345Y-112275890D01*
X144756673Y-112290971D01*
X144805908Y-112306589D01*
X144808831Y-112306917D01*
X144811638Y-112307775D01*
X144862952Y-112312988D01*
X144914287Y-112318746D01*
X144920028Y-112318786D01*
X144920139Y-112318797D01*
X144920242Y-112318787D01*
X144922089Y-112318800D01*
X146546277Y-112318800D01*
X146569743Y-112343100D01*
X146692452Y-112428385D01*
X146829390Y-112488212D01*
X146975340Y-112520301D01*
X147124743Y-112523430D01*
X147271908Y-112497481D01*
X147411231Y-112443441D01*
X147537404Y-112363370D01*
X147645621Y-112260316D01*
X147731761Y-112138205D01*
X147792542Y-112001688D01*
X147825649Y-111855966D01*
X147828033Y-111685282D01*
X147799007Y-111538692D01*
X147742061Y-111400532D01*
X147659365Y-111276063D01*
X147554067Y-111170028D01*
X147430179Y-111086465D01*
X147292420Y-111028556D01*
X147146036Y-110998508D01*
X146996604Y-110997464D01*
X146849815Y-111025466D01*
X146711260Y-111081445D01*
X146586218Y-111163271D01*
X146547486Y-111201200D01*
X145153551Y-111201200D01*
X144576800Y-110624449D01*
X144576800Y-109664432D01*
X166469830Y-109664432D01*
X166539061Y-110041644D01*
X166680242Y-110398226D01*
X166887994Y-110720594D01*
X167154404Y-110996470D01*
X167469326Y-111215346D01*
X167820762Y-111368885D01*
X168195329Y-111451239D01*
X168578758Y-111459270D01*
X168956444Y-111392674D01*
X169314002Y-111253986D01*
X169637813Y-111048490D01*
X169915542Y-110784012D01*
X170136611Y-110470626D01*
X170292600Y-110120270D01*
X170377567Y-109746288D01*
X170383684Y-109308244D01*
X170309192Y-108932035D01*
X170163047Y-108577459D01*
X169950814Y-108258023D01*
X169680578Y-107985894D01*
X169362631Y-107771436D01*
X169009085Y-107622819D01*
X168633405Y-107545703D01*
X168249901Y-107543025D01*
X167873182Y-107614889D01*
X167517595Y-107758555D01*
X167196685Y-107968553D01*
X166922675Y-108236882D01*
X166706003Y-108553324D01*
X166554921Y-108905824D01*
X166475184Y-109280957D01*
X166469830Y-109664432D01*
X144576800Y-109664432D01*
X144576800Y-108352096D01*
X144597621Y-108332268D01*
X144683761Y-108210157D01*
X144744542Y-108073640D01*
X144777649Y-107927918D01*
X144780033Y-107757234D01*
X144751007Y-107610644D01*
X144694061Y-107472484D01*
X144611365Y-107348015D01*
X144506067Y-107241980D01*
X144382179Y-107158417D01*
X144244420Y-107100508D01*
X144098036Y-107070460D01*
X143948604Y-107069416D01*
X143801815Y-107097418D01*
X143663260Y-107153397D01*
X143538218Y-107235223D01*
X143431450Y-107339778D01*
X143347023Y-107463079D01*
X143288154Y-107600431D01*
X143257085Y-107746602D01*
X143254998Y-107896023D01*
X127547339Y-107896023D01*
X127362631Y-107771436D01*
X127009085Y-107622819D01*
X126633405Y-107545703D01*
X126249901Y-107543025D01*
X125873182Y-107614889D01*
X125517595Y-107758555D01*
X125196685Y-107968553D01*
X124922675Y-108236882D01*
X124706003Y-108553324D01*
X124554921Y-108905824D01*
X124475184Y-109280957D01*
X124469830Y-109664432D01*
X122858600Y-109664432D01*
X122858600Y-106093971D01*
X143808931Y-106093971D01*
X143848495Y-106309543D01*
X143929178Y-106513325D01*
X144047906Y-106697554D01*
X144200156Y-106855214D01*
X144380130Y-106980298D01*
X144580971Y-107068044D01*
X144795031Y-107115108D01*
X145014156Y-107119698D01*
X145229999Y-107081639D01*
X145434339Y-107002381D01*
X145488773Y-106967836D01*
X146675690Y-106967836D01*
X146746155Y-107197758D01*
X146992927Y-107307764D01*
X147256419Y-107367515D01*
X147526505Y-107374712D01*
X147792806Y-107329080D01*
X148045086Y-107232373D01*
X148109845Y-107197758D01*
X148180310Y-106967836D01*
X147428000Y-106215526D01*
X146675690Y-106967836D01*
X145488773Y-106967836D01*
X145619393Y-106884942D01*
X145778112Y-106733797D01*
X145904450Y-106554701D01*
X145993595Y-106354476D01*
X146042153Y-106140750D01*
X146042742Y-106098505D01*
X146053288Y-106098505D01*
X146098920Y-106364806D01*
X146195627Y-106617086D01*
X146230242Y-106681845D01*
X146460164Y-106752310D01*
X147212474Y-106000000D01*
X147643526Y-106000000D01*
X148395836Y-106752310D01*
X148625758Y-106681845D01*
X148735764Y-106435073D01*
X148795515Y-106171581D01*
X148797583Y-106093971D01*
X148808931Y-106093971D01*
X148848495Y-106309543D01*
X148929178Y-106513325D01*
X149047906Y-106697554D01*
X149200156Y-106855214D01*
X149380130Y-106980298D01*
X149580971Y-107068044D01*
X149795031Y-107115108D01*
X150014156Y-107119698D01*
X150229999Y-107081639D01*
X150434339Y-107002381D01*
X150619393Y-106884942D01*
X150778112Y-106733797D01*
X150904450Y-106554701D01*
X150993595Y-106354476D01*
X151042153Y-106140750D01*
X151045648Y-105890414D01*
X151003077Y-105675415D01*
X150919557Y-105472780D01*
X150798269Y-105290226D01*
X150643832Y-105134707D01*
X150462130Y-105012148D01*
X150260083Y-104927215D01*
X150045386Y-104883144D01*
X149826219Y-104881614D01*
X149610928Y-104922683D01*
X149407715Y-105004786D01*
X149224319Y-105124797D01*
X149067726Y-105278144D01*
X148943901Y-105458987D01*
X148857559Y-105660436D01*
X148811991Y-105874819D01*
X148808931Y-106093971D01*
X148797583Y-106093971D01*
X148802712Y-105901495D01*
X148757080Y-105635194D01*
X148660373Y-105382914D01*
X148625758Y-105318155D01*
X148395836Y-105247690D01*
X147643526Y-106000000D01*
X147212474Y-106000000D01*
X146460164Y-105247690D01*
X146230242Y-105318155D01*
X146120236Y-105564927D01*
X146060485Y-105828419D01*
X146053288Y-106098505D01*
X146042742Y-106098505D01*
X146045648Y-105890414D01*
X146003077Y-105675415D01*
X145919557Y-105472780D01*
X145798269Y-105290226D01*
X145643832Y-105134707D01*
X145491806Y-105032164D01*
X146675690Y-105032164D01*
X147428000Y-105784474D01*
X148180310Y-105032164D01*
X148109845Y-104802242D01*
X147863073Y-104692236D01*
X147599581Y-104632485D01*
X147329495Y-104625288D01*
X147063194Y-104670920D01*
X146810914Y-104767627D01*
X146746155Y-104802242D01*
X146675690Y-105032164D01*
X145491806Y-105032164D01*
X145462130Y-105012148D01*
X145260083Y-104927215D01*
X145045386Y-104883144D01*
X144826219Y-104881614D01*
X144610928Y-104922683D01*
X144407715Y-105004786D01*
X144224319Y-105124797D01*
X144067726Y-105278144D01*
X143943901Y-105458987D01*
X143857559Y-105660436D01*
X143811991Y-105874819D01*
X143808931Y-106093971D01*
X122858600Y-106093971D01*
X122858600Y-98656024D01*
X139969961Y-98656024D01*
X140035653Y-99013947D01*
X140169614Y-99352295D01*
X140366742Y-99658178D01*
X140619530Y-99919948D01*
X140918348Y-100127631D01*
X141251814Y-100273319D01*
X141607227Y-100351462D01*
X141971049Y-100359083D01*
X142329422Y-100295892D01*
X142668696Y-100164296D01*
X142975949Y-99969308D01*
X143239476Y-99718354D01*
X143449241Y-99420993D01*
X143597253Y-99088552D01*
X143677875Y-98733694D01*
X143678959Y-98656024D01*
X151169961Y-98656024D01*
X151235653Y-99013947D01*
X151369614Y-99352295D01*
X151566742Y-99658178D01*
X151819530Y-99919948D01*
X152118348Y-100127631D01*
X152451814Y-100273319D01*
X152807227Y-100351462D01*
X153171049Y-100359083D01*
X153529422Y-100295892D01*
X153868696Y-100164296D01*
X154175949Y-99969308D01*
X154439476Y-99718354D01*
X154649241Y-99420993D01*
X154797253Y-99088552D01*
X154877875Y-98733694D01*
X154883679Y-98318049D01*
X154812997Y-97961078D01*
X154674325Y-97624634D01*
X154472944Y-97321532D01*
X154216527Y-97063318D01*
X153914838Y-96859827D01*
X153579371Y-96718809D01*
X153222901Y-96645636D01*
X152859008Y-96643096D01*
X152501552Y-96711284D01*
X152164148Y-96847604D01*
X151859648Y-97046864D01*
X151599650Y-97301472D01*
X151394058Y-97601733D01*
X151250702Y-97936208D01*
X151175042Y-98292157D01*
X151169961Y-98656024D01*
X143678959Y-98656024D01*
X143683679Y-98318049D01*
X143612997Y-97961078D01*
X143474325Y-97624634D01*
X143272944Y-97321532D01*
X143016527Y-97063318D01*
X142714838Y-96859827D01*
X142379371Y-96718809D01*
X142022901Y-96645636D01*
X141659008Y-96643096D01*
X141301552Y-96711284D01*
X140964148Y-96847604D01*
X140659648Y-97046864D01*
X140399650Y-97301472D01*
X140194058Y-97601733D01*
X140050702Y-97936208D01*
X139975042Y-98292157D01*
X139969961Y-98656024D01*
X122858600Y-98656024D01*
X122858600Y-82351528D01*
X126592732Y-82351528D01*
X126616112Y-82478912D01*
X126663788Y-82599328D01*
X126733945Y-82708191D01*
X126823911Y-82801353D01*
X126930259Y-82875267D01*
X127048938Y-82927116D01*
X127175428Y-82954927D01*
X127268294Y-82956872D01*
X127399881Y-83088459D01*
X127399881Y-89249081D01*
X127404003Y-89291124D01*
X127407683Y-89333184D01*
X127408353Y-89335491D01*
X127408588Y-89337885D01*
X127420785Y-89378281D01*
X127432577Y-89418871D01*
X127433686Y-89421010D01*
X127434379Y-89423306D01*
X127454193Y-89460571D01*
X127473641Y-89498090D01*
X127475139Y-89499966D01*
X127476269Y-89502092D01*
X127502998Y-89534865D01*
X127529309Y-89567824D01*
X127532604Y-89571166D01*
X127532665Y-89571240D01*
X127532734Y-89571297D01*
X127533792Y-89572370D01*
X127609699Y-89648277D01*
X127608732Y-89717528D01*
X127632112Y-89844912D01*
X127679788Y-89965328D01*
X127749945Y-90074191D01*
X127839911Y-90167353D01*
X127946259Y-90241267D01*
X128064938Y-90293116D01*
X128191428Y-90320927D01*
X128320910Y-90323639D01*
X128426030Y-90305104D01*
X128426030Y-92193373D01*
X128399467Y-92255349D01*
X128372541Y-92382030D01*
X128370732Y-92511528D01*
X128394112Y-92638912D01*
X128441788Y-92759328D01*
X128511945Y-92868191D01*
X128601911Y-92961353D01*
X128708259Y-93035267D01*
X128826938Y-93087116D01*
X128953428Y-93114927D01*
X129082910Y-93117639D01*
X129210454Y-93095150D01*
X129331200Y-93048315D01*
X129440550Y-92978920D01*
X129534338Y-92889607D01*
X129608992Y-92783777D01*
X129661669Y-92665463D01*
X129690362Y-92539171D01*
X129692428Y-92391244D01*
X129667272Y-92264200D01*
X129617920Y-92144461D01*
X129546249Y-92036589D01*
X129454991Y-91944691D01*
X129347622Y-91872270D01*
X129340430Y-91869247D01*
X129340430Y-89407251D01*
X129336308Y-89365208D01*
X129332628Y-89323148D01*
X129331958Y-89320841D01*
X129331723Y-89318447D01*
X129319526Y-89278051D01*
X129307734Y-89237461D01*
X129306625Y-89235322D01*
X129305932Y-89233026D01*
X129286115Y-89195755D01*
X129266670Y-89158242D01*
X129265172Y-89156366D01*
X129264042Y-89154240D01*
X129237288Y-89121436D01*
X129211001Y-89088508D01*
X129207708Y-89085168D01*
X129207646Y-89085092D01*
X129207576Y-89085034D01*
X129206519Y-89083962D01*
X128727200Y-88604643D01*
X128727200Y-84646071D01*
X135888998Y-84646071D01*
X135915974Y-84793052D01*
X135970985Y-84931994D01*
X136051936Y-85057605D01*
X136155743Y-85165100D01*
X136278452Y-85250385D01*
X136415390Y-85310212D01*
X136561340Y-85342301D01*
X136710743Y-85345430D01*
X136857908Y-85319481D01*
X136997231Y-85265441D01*
X137123404Y-85185370D01*
X137170207Y-85140800D01*
X141072001Y-85140800D01*
X141123415Y-85135759D01*
X141174792Y-85131264D01*
X141177611Y-85130445D01*
X141180539Y-85130158D01*
X141229971Y-85115233D01*
X141279521Y-85100838D01*
X141282131Y-85099485D01*
X141284943Y-85098636D01*
X141330498Y-85074414D01*
X141376345Y-85050649D01*
X141378642Y-85048815D01*
X141381236Y-85047436D01*
X141421221Y-85014825D01*
X141461577Y-84982610D01*
X141465664Y-84978579D01*
X141465751Y-84978508D01*
X141465818Y-84978427D01*
X141467132Y-84977131D01*
X143081463Y-83362800D01*
X146038277Y-83362800D01*
X146061743Y-83387100D01*
X146184452Y-83472385D01*
X146321390Y-83532212D01*
X146467340Y-83564301D01*
X146616743Y-83567430D01*
X146763908Y-83541481D01*
X146903231Y-83487441D01*
X147029404Y-83407370D01*
X147137621Y-83304316D01*
X147223761Y-83182205D01*
X147284542Y-83045688D01*
X147317649Y-82899966D01*
X147320033Y-82729282D01*
X147291007Y-82582692D01*
X147234061Y-82444532D01*
X147151365Y-82320063D01*
X147046067Y-82214028D01*
X146922179Y-82130465D01*
X146784420Y-82072556D01*
X146638036Y-82042508D01*
X146488604Y-82041464D01*
X146341815Y-82069466D01*
X146203260Y-82125445D01*
X146078218Y-82207271D01*
X146039486Y-82245200D01*
X142850001Y-82245200D01*
X142798583Y-82250241D01*
X142747210Y-82254736D01*
X142744391Y-82255555D01*
X142741463Y-82255842D01*
X142692031Y-82270767D01*
X142642481Y-82285162D01*
X142639871Y-82286515D01*
X142637059Y-82287364D01*
X142591504Y-82311586D01*
X142545657Y-82335351D01*
X142543360Y-82337185D01*
X142540766Y-82338564D01*
X142500781Y-82371175D01*
X142460425Y-82403390D01*
X142456338Y-82407421D01*
X142456251Y-82407492D01*
X142456184Y-82407573D01*
X142454870Y-82408869D01*
X140840539Y-84023200D01*
X137171022Y-84023200D01*
X137140067Y-83992028D01*
X137016179Y-83908465D01*
X136878420Y-83850556D01*
X136732036Y-83820508D01*
X136582604Y-83819464D01*
X136435815Y-83847466D01*
X136297260Y-83903445D01*
X136172218Y-83985271D01*
X136065450Y-84089826D01*
X135981023Y-84213127D01*
X135922154Y-84350479D01*
X135891085Y-84496650D01*
X135888998Y-84646071D01*
X128727200Y-84646071D01*
X128727200Y-82772591D01*
X128772338Y-82729607D01*
X128846992Y-82623777D01*
X128899669Y-82505463D01*
X128928362Y-82379171D01*
X128930428Y-82231244D01*
X128905272Y-82104200D01*
X128855920Y-81984461D01*
X128784249Y-81876589D01*
X128692991Y-81784691D01*
X128585622Y-81712270D01*
X128466230Y-81662082D01*
X128339365Y-81636040D01*
X128209857Y-81635136D01*
X128082640Y-81659404D01*
X127962559Y-81707920D01*
X127854189Y-81778835D01*
X127761657Y-81869449D01*
X127761454Y-81869746D01*
X127676991Y-81784691D01*
X127569622Y-81712270D01*
X127450230Y-81662082D01*
X127323365Y-81636040D01*
X127193857Y-81635136D01*
X127066640Y-81659404D01*
X126946559Y-81707920D01*
X126838189Y-81778835D01*
X126745657Y-81869449D01*
X126672487Y-81976311D01*
X126621467Y-82095349D01*
X126594541Y-82222030D01*
X126592732Y-82351528D01*
X122858600Y-82351528D01*
X122858600Y-76255528D01*
X137514732Y-76255528D01*
X137538112Y-76382912D01*
X137585788Y-76503328D01*
X137655945Y-76612191D01*
X137745911Y-76705353D01*
X137852259Y-76779267D01*
X137970938Y-76831116D01*
X138097428Y-76858927D01*
X138226910Y-76861639D01*
X138354454Y-76839150D01*
X138475200Y-76792315D01*
X138584550Y-76722920D01*
X138678338Y-76633607D01*
X138752992Y-76527777D01*
X138805669Y-76409463D01*
X138820893Y-76342454D01*
X138859428Y-76350927D01*
X138988910Y-76353639D01*
X139116454Y-76331150D01*
X139237200Y-76284315D01*
X139346550Y-76214920D01*
X139440338Y-76125607D01*
X139514992Y-76019777D01*
X139567669Y-75901463D01*
X139596362Y-75775171D01*
X139598428Y-75627244D01*
X139588191Y-75575544D01*
X139624454Y-75569150D01*
X139745200Y-75522315D01*
X139854550Y-75452920D01*
X139948338Y-75363607D01*
X140022992Y-75257777D01*
X140075669Y-75139463D01*
X140104362Y-75013171D01*
X140106428Y-74865244D01*
X140081272Y-74738200D01*
X140031920Y-74618461D01*
X139960249Y-74510589D01*
X139871276Y-74420992D01*
X139948338Y-74347607D01*
X140022992Y-74241777D01*
X140075669Y-74123463D01*
X140104362Y-73997171D01*
X140106428Y-73849244D01*
X140081272Y-73722200D01*
X140031920Y-73602461D01*
X139960249Y-73494589D01*
X139868991Y-73402691D01*
X139761622Y-73330270D01*
X139691912Y-73300966D01*
X139691912Y-72642939D01*
X139762262Y-72713289D01*
X139794890Y-72740091D01*
X139827248Y-72767242D01*
X139829354Y-72768400D01*
X139831212Y-72769926D01*
X139868407Y-72789870D01*
X139905441Y-72810229D01*
X139907736Y-72810957D01*
X139909851Y-72812091D01*
X139950207Y-72824429D01*
X139990494Y-72837209D01*
X139992882Y-72837477D01*
X139995182Y-72838180D01*
X140037214Y-72842449D01*
X140079167Y-72847155D01*
X140083868Y-72847188D01*
X140083955Y-72847197D01*
X140084036Y-72847189D01*
X140085551Y-72847200D01*
X140239410Y-72847200D01*
X140285911Y-72895353D01*
X140392259Y-72969267D01*
X140510938Y-73021116D01*
X140637428Y-73048927D01*
X140766910Y-73051639D01*
X140894454Y-73029150D01*
X141015200Y-72982315D01*
X141124550Y-72912920D01*
X141218338Y-72823607D01*
X141292992Y-72717777D01*
X141345669Y-72599463D01*
X141374362Y-72473171D01*
X141376428Y-72325244D01*
X141351272Y-72198200D01*
X141301920Y-72078461D01*
X141230249Y-71970589D01*
X141138991Y-71878691D01*
X141031622Y-71806270D01*
X140912230Y-71756082D01*
X140785365Y-71730040D01*
X140655857Y-71729136D01*
X140528640Y-71753404D01*
X140408559Y-71801920D01*
X140300189Y-71872835D01*
X140257130Y-71915001D01*
X140099245Y-71757116D01*
X140099245Y-69309509D01*
X140389456Y-69019299D01*
X153048810Y-69019299D01*
X153309233Y-69279722D01*
X153309233Y-84926861D01*
X153313355Y-84968904D01*
X153317035Y-85010964D01*
X153317705Y-85013271D01*
X153317940Y-85015665D01*
X153330137Y-85056061D01*
X153341929Y-85096651D01*
X153343038Y-85098790D01*
X153343731Y-85101086D01*
X153363548Y-85138357D01*
X153382993Y-85175870D01*
X153384491Y-85177746D01*
X153385621Y-85179872D01*
X153412350Y-85212645D01*
X153438661Y-85245604D01*
X153441956Y-85248946D01*
X153442017Y-85249020D01*
X153442086Y-85249077D01*
X153443144Y-85250150D01*
X155014316Y-86821322D01*
X155046949Y-86848128D01*
X155079302Y-86875275D01*
X155081407Y-86876432D01*
X155083267Y-86877960D01*
X155120479Y-86897913D01*
X155157495Y-86918262D01*
X155159790Y-86918990D01*
X155161905Y-86920124D01*
X155202302Y-86932475D01*
X155242548Y-86945242D01*
X155244931Y-86945509D01*
X155247236Y-86946214D01*
X155289362Y-86950493D01*
X155331221Y-86955188D01*
X155335911Y-86955221D01*
X155336009Y-86955231D01*
X155336100Y-86955222D01*
X155337605Y-86955233D01*
X163373698Y-86955233D01*
X164966091Y-88547627D01*
X164998754Y-88574457D01*
X165031077Y-88601579D01*
X165033182Y-88602736D01*
X165035042Y-88604264D01*
X165063402Y-88619470D01*
X165032660Y-88644542D01*
X164882679Y-88825837D01*
X164770769Y-89032811D01*
X164767677Y-89042800D01*
X164525688Y-89042800D01*
X164483645Y-89046922D01*
X164441585Y-89050602D01*
X164439278Y-89051272D01*
X164436884Y-89051507D01*
X164396488Y-89063704D01*
X164355898Y-89075496D01*
X164353759Y-89076605D01*
X164351463Y-89077298D01*
X164314192Y-89097115D01*
X164276679Y-89116560D01*
X164274803Y-89118058D01*
X164272677Y-89119188D01*
X164239873Y-89145942D01*
X164206945Y-89172229D01*
X164203605Y-89175522D01*
X164203529Y-89175584D01*
X164203471Y-89175654D01*
X164202399Y-89176711D01*
X163489845Y-89889265D01*
X154017032Y-89889265D01*
X153148210Y-89020443D01*
X153148210Y-70816857D01*
X153144087Y-70774810D01*
X153140408Y-70732755D01*
X153139738Y-70730448D01*
X153139503Y-70728053D01*
X153127298Y-70687631D01*
X153115514Y-70647068D01*
X153114406Y-70644930D01*
X153113712Y-70642632D01*
X153093886Y-70605343D01*
X153074450Y-70567848D01*
X153072952Y-70565972D01*
X153071822Y-70563846D01*
X153045093Y-70531073D01*
X153018782Y-70498114D01*
X153015483Y-70494768D01*
X153015426Y-70494698D01*
X153015361Y-70494645D01*
X153014300Y-70493568D01*
X151790890Y-69270159D01*
X151758262Y-69243357D01*
X151725904Y-69216206D01*
X151723798Y-69215048D01*
X151721940Y-69213522D01*
X151684745Y-69193578D01*
X151647711Y-69173219D01*
X151645416Y-69172491D01*
X151643301Y-69171357D01*
X151602904Y-69159006D01*
X151562658Y-69146239D01*
X151560275Y-69145972D01*
X151557970Y-69145267D01*
X151515844Y-69140988D01*
X151473985Y-69136293D01*
X151469295Y-69136260D01*
X151469197Y-69136250D01*
X151469106Y-69136259D01*
X151467601Y-69136248D01*
X143153696Y-69136248D01*
X143111649Y-69140371D01*
X143069594Y-69144050D01*
X143067287Y-69144720D01*
X143064892Y-69144955D01*
X143024483Y-69157155D01*
X142983906Y-69168944D01*
X142981767Y-69170053D01*
X142979471Y-69170746D01*
X142942200Y-69190563D01*
X142904687Y-69210008D01*
X142902811Y-69211506D01*
X142900685Y-69212636D01*
X142867912Y-69239365D01*
X142834953Y-69265676D01*
X142831611Y-69268971D01*
X142831537Y-69269032D01*
X142831480Y-69269101D01*
X142830407Y-69270159D01*
X142386660Y-69713906D01*
X142309365Y-69698040D01*
X142179857Y-69697136D01*
X142052640Y-69721404D01*
X141932559Y-69769920D01*
X141824189Y-69840835D01*
X141731657Y-69931449D01*
X141658487Y-70038311D01*
X141607467Y-70157349D01*
X141580541Y-70284030D01*
X141578732Y-70413528D01*
X141602112Y-70540912D01*
X141649788Y-70661328D01*
X141719945Y-70770191D01*
X141809911Y-70863353D01*
X141916259Y-70937267D01*
X142034938Y-70989116D01*
X142161428Y-71016927D01*
X142290910Y-71019639D01*
X142418454Y-70997150D01*
X142539200Y-70950315D01*
X142648550Y-70880920D01*
X142742338Y-70791607D01*
X142748369Y-70783057D01*
X142825911Y-70863353D01*
X142932259Y-70937267D01*
X143050938Y-70989116D01*
X143177428Y-71016927D01*
X143306910Y-71019639D01*
X143434454Y-70997150D01*
X143555200Y-70950315D01*
X143664550Y-70880920D01*
X143667175Y-70878420D01*
X143681788Y-70915328D01*
X143751945Y-71024191D01*
X143841911Y-71117353D01*
X143948259Y-71191267D01*
X144066938Y-71243116D01*
X144193428Y-71270927D01*
X144322910Y-71273639D01*
X144450454Y-71251150D01*
X144571200Y-71204315D01*
X144680550Y-71134920D01*
X144768487Y-71051179D01*
X144778035Y-71048296D01*
X144818625Y-71036504D01*
X144820764Y-71035395D01*
X144823060Y-71034702D01*
X144860331Y-71014885D01*
X144897844Y-70995440D01*
X144899720Y-70993942D01*
X144901846Y-70992812D01*
X144934619Y-70966083D01*
X144967578Y-70939772D01*
X144970920Y-70936477D01*
X144970994Y-70936416D01*
X144971051Y-70936347D01*
X144972124Y-70935289D01*
X145039434Y-70867979D01*
X150937532Y-70867979D01*
X151420260Y-71350707D01*
X151420260Y-89554067D01*
X151424382Y-89596110D01*
X151428062Y-89638170D01*
X151428732Y-89640477D01*
X151428967Y-89642871D01*
X151441164Y-89683267D01*
X151452956Y-89723857D01*
X151454065Y-89725996D01*
X151454758Y-89728292D01*
X151474575Y-89765563D01*
X151494020Y-89803076D01*
X151495518Y-89804952D01*
X151496648Y-89807078D01*
X151523377Y-89839851D01*
X151549688Y-89872810D01*
X151552983Y-89876152D01*
X151553044Y-89876226D01*
X151553113Y-89876283D01*
X151554171Y-89877356D01*
X153177736Y-91500921D01*
X153210369Y-91527727D01*
X153242722Y-91554874D01*
X153244827Y-91556031D01*
X153246687Y-91557559D01*
X153283899Y-91577512D01*
X153320915Y-91597861D01*
X153323210Y-91598589D01*
X153325325Y-91599723D01*
X153365722Y-91612074D01*
X153405968Y-91624841D01*
X153408351Y-91625108D01*
X153410656Y-91625813D01*
X153452782Y-91630092D01*
X153494641Y-91634787D01*
X153499331Y-91634820D01*
X153499429Y-91634830D01*
X153499520Y-91634821D01*
X153501025Y-91634832D01*
X163499907Y-91634832D01*
X164228364Y-92363290D01*
X164261027Y-92390120D01*
X164293350Y-92417242D01*
X164295455Y-92418399D01*
X164297315Y-92419927D01*
X164334509Y-92439869D01*
X164371543Y-92460229D01*
X164373840Y-92460958D01*
X164375954Y-92462091D01*
X164416336Y-92474438D01*
X164456596Y-92487209D01*
X164458979Y-92487476D01*
X164461284Y-92488181D01*
X164503410Y-92492460D01*
X164545269Y-92497155D01*
X164549959Y-92497188D01*
X164550057Y-92497198D01*
X164550148Y-92497189D01*
X164551653Y-92497200D01*
X164767268Y-92497200D01*
X164873364Y-92700142D01*
X164999449Y-92856960D01*
X152396177Y-92856960D01*
X151285790Y-91746574D01*
X151285790Y-86758774D01*
X151281667Y-86716727D01*
X151277988Y-86674672D01*
X151277318Y-86672365D01*
X151277083Y-86669970D01*
X151264878Y-86629548D01*
X151253094Y-86588985D01*
X151251986Y-86586847D01*
X151251292Y-86584549D01*
X151231466Y-86547260D01*
X151212030Y-86509765D01*
X151210532Y-86507889D01*
X151209402Y-86505763D01*
X151182673Y-86472990D01*
X151156362Y-86440031D01*
X151153063Y-86436685D01*
X151153006Y-86436615D01*
X151152941Y-86436562D01*
X151151880Y-86435485D01*
X150938026Y-86221632D01*
X150938026Y-78491689D01*
X150933904Y-78449646D01*
X150930224Y-78407586D01*
X150929554Y-78405279D01*
X150929319Y-78402885D01*
X150917108Y-78362442D01*
X150905329Y-78321899D01*
X150904223Y-78319764D01*
X150903528Y-78317464D01*
X150883693Y-78280158D01*
X150864266Y-78242680D01*
X150862768Y-78240804D01*
X150861638Y-78238678D01*
X150834904Y-78205899D01*
X150808597Y-78172945D01*
X150805299Y-78169600D01*
X150805242Y-78169530D01*
X150805177Y-78169477D01*
X150804115Y-78168399D01*
X148895074Y-76259359D01*
X148895074Y-74169143D01*
X148890952Y-74127100D01*
X148887272Y-74085040D01*
X148886602Y-74082733D01*
X148886367Y-74080339D01*
X148874170Y-74039943D01*
X148862378Y-73999353D01*
X148861269Y-73997214D01*
X148860576Y-73994918D01*
X148840759Y-73957647D01*
X148821314Y-73920134D01*
X148819816Y-73918258D01*
X148818686Y-73916132D01*
X148791932Y-73883328D01*
X148765645Y-73850400D01*
X148762352Y-73847060D01*
X148762290Y-73846984D01*
X148762220Y-73846926D01*
X148761163Y-73845854D01*
X147998020Y-73082711D01*
X147965392Y-73055909D01*
X147933034Y-73028758D01*
X147930928Y-73027600D01*
X147929070Y-73026074D01*
X147891875Y-73006130D01*
X147854841Y-72985771D01*
X147852546Y-72985043D01*
X147850431Y-72983909D01*
X147810034Y-72971558D01*
X147769788Y-72958791D01*
X147767405Y-72958524D01*
X147765100Y-72957819D01*
X147722974Y-72953540D01*
X147681115Y-72948845D01*
X147676425Y-72948812D01*
X147676327Y-72948802D01*
X147676236Y-72948811D01*
X147674731Y-72948800D01*
X146780723Y-72948800D01*
X146726991Y-72894691D01*
X146619622Y-72822270D01*
X146500230Y-72772082D01*
X146373365Y-72746040D01*
X146243857Y-72745136D01*
X146116640Y-72769404D01*
X145996559Y-72817920D01*
X145888189Y-72888835D01*
X145795657Y-72979449D01*
X145722487Y-73086311D01*
X145671467Y-73205349D01*
X145644541Y-73332030D01*
X145642732Y-73461528D01*
X145666112Y-73588912D01*
X145713788Y-73709328D01*
X145783945Y-73818191D01*
X145873911Y-73911353D01*
X145980259Y-73985267D01*
X146098938Y-74037116D01*
X146225428Y-74064927D01*
X146354910Y-74067639D01*
X146482454Y-74045150D01*
X146603200Y-73998315D01*
X146712550Y-73928920D01*
X146781563Y-73863200D01*
X147475814Y-73863200D01*
X147412189Y-73904835D01*
X147319657Y-73995449D01*
X147246487Y-74102311D01*
X147195467Y-74221349D01*
X147168541Y-74348030D01*
X147166732Y-74477528D01*
X147177970Y-74538757D01*
X147132640Y-74547404D01*
X147012559Y-74595920D01*
X146904189Y-74666835D01*
X146811657Y-74757449D01*
X146738487Y-74864311D01*
X146687467Y-74983349D01*
X146660541Y-75110030D01*
X146658732Y-75239528D01*
X146668831Y-75294552D01*
X146627365Y-75286040D01*
X146497857Y-75285136D01*
X146370640Y-75309404D01*
X146250559Y-75357920D01*
X146142189Y-75428835D01*
X146049657Y-75519449D01*
X145976487Y-75626311D01*
X145925467Y-75745349D01*
X145898541Y-75872030D01*
X145896732Y-76001528D01*
X145906831Y-76056552D01*
X145865365Y-76048040D01*
X145735857Y-76047136D01*
X145608640Y-76071404D01*
X145488559Y-76119920D01*
X145380189Y-76190835D01*
X145287657Y-76281449D01*
X145214487Y-76388311D01*
X145163467Y-76507349D01*
X145136541Y-76634030D01*
X145134732Y-76763528D01*
X145158112Y-76890912D01*
X145205788Y-77011328D01*
X145275438Y-77119404D01*
X145234559Y-77135920D01*
X145126189Y-77206835D01*
X145033657Y-77297449D01*
X144960487Y-77404311D01*
X144909467Y-77523349D01*
X144882541Y-77650030D01*
X144880732Y-77779528D01*
X144904112Y-77906912D01*
X144951788Y-78027328D01*
X145021945Y-78136191D01*
X145111911Y-78229353D01*
X145218259Y-78303267D01*
X145336938Y-78355116D01*
X145463428Y-78382927D01*
X145592910Y-78385639D01*
X145720454Y-78363150D01*
X145841200Y-78316315D01*
X145950550Y-78246920D01*
X146019563Y-78181200D01*
X146459814Y-78181200D01*
X146396189Y-78222835D01*
X146303657Y-78313449D01*
X146230487Y-78420311D01*
X146179467Y-78539349D01*
X146152541Y-78666030D01*
X146150732Y-78795528D01*
X146174112Y-78922912D01*
X146221788Y-79043328D01*
X146291945Y-79152191D01*
X146381911Y-79245353D01*
X146488259Y-79319267D01*
X146606938Y-79371116D01*
X146733428Y-79398927D01*
X146862910Y-79401639D01*
X146990454Y-79379150D01*
X147111200Y-79332315D01*
X147153727Y-79305326D01*
X147550107Y-79701706D01*
X147550107Y-86245315D01*
X146997927Y-86797495D01*
X146904189Y-86858835D01*
X146811657Y-86949449D01*
X146738487Y-87056311D01*
X146687467Y-87175349D01*
X146660541Y-87302030D01*
X146658732Y-87431528D01*
X146682112Y-87558912D01*
X146729788Y-87679328D01*
X146799945Y-87788191D01*
X146889911Y-87881353D01*
X146996259Y-87955267D01*
X147114938Y-88007116D01*
X147241428Y-88034927D01*
X147370910Y-88037639D01*
X147436613Y-88026054D01*
X147444112Y-88066912D01*
X147491788Y-88187328D01*
X147561945Y-88296191D01*
X147651911Y-88389353D01*
X147758259Y-88463267D01*
X147876938Y-88515116D01*
X148003428Y-88542927D01*
X148132910Y-88545639D01*
X148260454Y-88523150D01*
X148381200Y-88476315D01*
X148490550Y-88406920D01*
X148584338Y-88317607D01*
X148658992Y-88211777D01*
X148711669Y-88093463D01*
X148726893Y-88026454D01*
X148765428Y-88034927D01*
X148894910Y-88037639D01*
X149022454Y-88015150D01*
X149143200Y-87968315D01*
X149148800Y-87964761D01*
X149148800Y-92486132D01*
X149152922Y-92528175D01*
X149156602Y-92570235D01*
X149157272Y-92572542D01*
X149157507Y-92574936D01*
X149169704Y-92615332D01*
X149181496Y-92655922D01*
X149182605Y-92658061D01*
X149183298Y-92660357D01*
X149203115Y-92697628D01*
X149222560Y-92735141D01*
X149224058Y-92737017D01*
X149225188Y-92739143D01*
X149251917Y-92771916D01*
X149278228Y-92804875D01*
X149281523Y-92808217D01*
X149281584Y-92808291D01*
X149281653Y-92808348D01*
X149282711Y-92809421D01*
X151341977Y-94868687D01*
X151374583Y-94895470D01*
X151406963Y-94922640D01*
X151409072Y-94923799D01*
X151410928Y-94925324D01*
X151448102Y-94945256D01*
X151485156Y-94965627D01*
X151487451Y-94966355D01*
X151489566Y-94967489D01*
X151529963Y-94979840D01*
X151570209Y-94992607D01*
X151572592Y-94992874D01*
X151574897Y-94993579D01*
X151617023Y-94997858D01*
X151658882Y-95002553D01*
X151663572Y-95002586D01*
X151663670Y-95002596D01*
X151663761Y-95002587D01*
X151665266Y-95002598D01*
X163026301Y-95002598D01*
X164748489Y-96724786D01*
X164701191Y-96877580D01*
X164676596Y-97111583D01*
X164697921Y-97345907D01*
X164764354Y-97571626D01*
X164873364Y-97780142D01*
X165020799Y-97963514D01*
X165201043Y-98114757D01*
X165407231Y-98228110D01*
X165631509Y-98299255D01*
X165865334Y-98325482D01*
X165882167Y-98325600D01*
X165893833Y-98325600D01*
X166128002Y-98302640D01*
X166353251Y-98234633D01*
X166561002Y-98124170D01*
X166743340Y-97975458D01*
X166893321Y-97794163D01*
X167005231Y-97587189D01*
X167025450Y-97521873D01*
X167045911Y-97589338D01*
X167164031Y-97849952D01*
X167330724Y-98082514D01*
X167539585Y-98278087D01*
X167719603Y-98390000D01*
X167539585Y-98501913D01*
X167330724Y-98697486D01*
X167164031Y-98930048D01*
X167045911Y-99190662D01*
X167025876Y-99256722D01*
X167011646Y-99208374D01*
X166902636Y-98999858D01*
X166755201Y-98816486D01*
X166574957Y-98665243D01*
X166368769Y-98551890D01*
X166144491Y-98480745D01*
X165910666Y-98454518D01*
X165893833Y-98454400D01*
X165882167Y-98454400D01*
X165647998Y-98477360D01*
X165422749Y-98545367D01*
X165214998Y-98655830D01*
X165032660Y-98804542D01*
X164882679Y-98985837D01*
X164770769Y-99192811D01*
X164701191Y-99417580D01*
X164676596Y-99651583D01*
X164697921Y-99885907D01*
X164764354Y-100111626D01*
X164873364Y-100320142D01*
X165020799Y-100503514D01*
X165201043Y-100654757D01*
X165407231Y-100768110D01*
X165631509Y-100839255D01*
X165865334Y-100865482D01*
X165882167Y-100865600D01*
X165893833Y-100865600D01*
X166128002Y-100842640D01*
X166353251Y-100774633D01*
X166561002Y-100664170D01*
X166743340Y-100515458D01*
X166893321Y-100334163D01*
X167005231Y-100127189D01*
X167025450Y-100061873D01*
X167045911Y-100129338D01*
X167164031Y-100389952D01*
X167330724Y-100622514D01*
X167539585Y-100818087D01*
X167782587Y-100969156D01*
X168050392Y-101069915D01*
X168275600Y-100959228D01*
X168275600Y-99812400D01*
X168580400Y-99812400D01*
X168580400Y-100959228D01*
X168805608Y-101069915D01*
X169073413Y-100969156D01*
X169316415Y-100818087D01*
X169525276Y-100622514D01*
X169691969Y-100389952D01*
X169810089Y-100129338D01*
X169837910Y-100037607D01*
X169726286Y-99812400D01*
X168580400Y-99812400D01*
X168275600Y-99812400D01*
X168255600Y-99812400D01*
X168255600Y-99507600D01*
X168275600Y-99507600D01*
X168275600Y-97272400D01*
X168580400Y-97272400D01*
X168580400Y-99507600D01*
X169726286Y-99507600D01*
X169837910Y-99282393D01*
X169810089Y-99190662D01*
X169691969Y-98930048D01*
X169525276Y-98697486D01*
X169316415Y-98501913D01*
X169136397Y-98390000D01*
X169316415Y-98278087D01*
X169525276Y-98082514D01*
X169691969Y-97849952D01*
X169810089Y-97589338D01*
X169837910Y-97497607D01*
X169726286Y-97272400D01*
X168580400Y-97272400D01*
X168275600Y-97272400D01*
X168255600Y-97272400D01*
X168255600Y-96967600D01*
X168275600Y-96967600D01*
X168275600Y-96947600D01*
X168580400Y-96947600D01*
X168580400Y-96967600D01*
X169726286Y-96967600D01*
X169837910Y-96742393D01*
X169810089Y-96650662D01*
X169691969Y-96390048D01*
X169525276Y-96157486D01*
X169316415Y-95961913D01*
X169073413Y-95810844D01*
X168821842Y-95716193D01*
X168893251Y-95694633D01*
X169101002Y-95584170D01*
X169283340Y-95435458D01*
X169433321Y-95254163D01*
X169545231Y-95047189D01*
X169614809Y-94822420D01*
X169639404Y-94588417D01*
X169618079Y-94354093D01*
X169551646Y-94128374D01*
X169442636Y-93919858D01*
X169295201Y-93736486D01*
X169114957Y-93585243D01*
X168908769Y-93471890D01*
X168684491Y-93400745D01*
X168450666Y-93374518D01*
X168433833Y-93374400D01*
X168422167Y-93374400D01*
X168187998Y-93397360D01*
X167962749Y-93465367D01*
X167754998Y-93575830D01*
X167572660Y-93724542D01*
X167422679Y-93905837D01*
X167310769Y-94112811D01*
X167241191Y-94337580D01*
X167216596Y-94571583D01*
X167237921Y-94805907D01*
X167304354Y-95031626D01*
X167312901Y-95047974D01*
X166958277Y-95402598D01*
X166770524Y-95402598D01*
X166893321Y-95254163D01*
X167005231Y-95047189D01*
X167074809Y-94822420D01*
X167099404Y-94588417D01*
X167078079Y-94354093D01*
X167011646Y-94128374D01*
X166902636Y-93919858D01*
X166783240Y-93771360D01*
X167159770Y-93771360D01*
X167201813Y-93767238D01*
X167243873Y-93763558D01*
X167246180Y-93762888D01*
X167248574Y-93762653D01*
X167288970Y-93750456D01*
X167329560Y-93738664D01*
X167331699Y-93737555D01*
X167333995Y-93736862D01*
X167371266Y-93717045D01*
X167408779Y-93697600D01*
X167410655Y-93696102D01*
X167412781Y-93694972D01*
X167445554Y-93668243D01*
X167478513Y-93641932D01*
X167481855Y-93638637D01*
X167481929Y-93638576D01*
X167481986Y-93638507D01*
X167483059Y-93637449D01*
X167966337Y-93154171D01*
X168171509Y-93219255D01*
X168405334Y-93245482D01*
X168422167Y-93245600D01*
X168433833Y-93245600D01*
X168668002Y-93222640D01*
X168893251Y-93154633D01*
X169101002Y-93044170D01*
X169283340Y-92895458D01*
X169433321Y-92714163D01*
X169545231Y-92507189D01*
X169614809Y-92282420D01*
X169639404Y-92048417D01*
X169618079Y-91814093D01*
X169551646Y-91588374D01*
X169442636Y-91379858D01*
X169295201Y-91196486D01*
X169114957Y-91045243D01*
X168908769Y-90931890D01*
X168684491Y-90860745D01*
X168450666Y-90834518D01*
X168433833Y-90834400D01*
X168422167Y-90834400D01*
X168187998Y-90857360D01*
X167962749Y-90925367D01*
X167754998Y-91035830D01*
X167572660Y-91184542D01*
X167422679Y-91365837D01*
X167310769Y-91572811D01*
X167241191Y-91797580D01*
X167216596Y-92031583D01*
X167237921Y-92265907D01*
X167304354Y-92491626D01*
X167315124Y-92512228D01*
X166970392Y-92856960D01*
X166775188Y-92856960D01*
X166893321Y-92714163D01*
X167005231Y-92507189D01*
X167074809Y-92282420D01*
X167099404Y-92048417D01*
X167078079Y-91814093D01*
X167011646Y-91588374D01*
X166902636Y-91379858D01*
X166775141Y-91221286D01*
X167155149Y-91221286D01*
X167197192Y-91217164D01*
X167239252Y-91213484D01*
X167241559Y-91212814D01*
X167243953Y-91212579D01*
X167284349Y-91200382D01*
X167324939Y-91188590D01*
X167327078Y-91187481D01*
X167329374Y-91186788D01*
X167366645Y-91166971D01*
X167404158Y-91147526D01*
X167406034Y-91146028D01*
X167408160Y-91144898D01*
X167440933Y-91118169D01*
X167473892Y-91091858D01*
X167477234Y-91088563D01*
X167477308Y-91088502D01*
X167477365Y-91088433D01*
X167478438Y-91087375D01*
X167955181Y-90610632D01*
X168171509Y-90679255D01*
X168405334Y-90705482D01*
X168422167Y-90705600D01*
X168433833Y-90705600D01*
X168668002Y-90682640D01*
X168893251Y-90614633D01*
X169101002Y-90504170D01*
X169283340Y-90355458D01*
X169433321Y-90174163D01*
X169545231Y-89967189D01*
X169614809Y-89742420D01*
X169639404Y-89508417D01*
X169618079Y-89274093D01*
X169551646Y-89048374D01*
X169442636Y-88839858D01*
X169295201Y-88656486D01*
X169114957Y-88505243D01*
X168908769Y-88391890D01*
X168684491Y-88320745D01*
X168450666Y-88294518D01*
X168433833Y-88294400D01*
X168422167Y-88294400D01*
X168187998Y-88317360D01*
X167962749Y-88385367D01*
X167754998Y-88495830D01*
X167572660Y-88644542D01*
X167422679Y-88825837D01*
X167310769Y-89032811D01*
X167241191Y-89257580D01*
X167216596Y-89491583D01*
X167237921Y-89725907D01*
X167304354Y-89951626D01*
X167310079Y-89962577D01*
X166965771Y-90306886D01*
X166783522Y-90306886D01*
X166893321Y-90174163D01*
X167005231Y-89967189D01*
X167074809Y-89742420D01*
X167099404Y-89508417D01*
X167078079Y-89274093D01*
X167011646Y-89048374D01*
X166902636Y-88839858D01*
X166775343Y-88681537D01*
X167152892Y-88681537D01*
X167194935Y-88677415D01*
X167236995Y-88673735D01*
X167239302Y-88673065D01*
X167241696Y-88672830D01*
X167282092Y-88660633D01*
X167322682Y-88648841D01*
X167324821Y-88647732D01*
X167327117Y-88647039D01*
X167364388Y-88627222D01*
X167401901Y-88607777D01*
X167403777Y-88606279D01*
X167405903Y-88605149D01*
X167438676Y-88578420D01*
X167471635Y-88552109D01*
X167474977Y-88548814D01*
X167475051Y-88548753D01*
X167475108Y-88548684D01*
X167476181Y-88547626D01*
X167953658Y-88070149D01*
X168171509Y-88139255D01*
X168405334Y-88165482D01*
X168422167Y-88165600D01*
X168433833Y-88165600D01*
X168668002Y-88142640D01*
X168893251Y-88074633D01*
X169101002Y-87964170D01*
X169283340Y-87815458D01*
X169433321Y-87634163D01*
X169545231Y-87427189D01*
X169614809Y-87202420D01*
X169639404Y-86968417D01*
X169618079Y-86734093D01*
X169551646Y-86508374D01*
X169442636Y-86299858D01*
X169295201Y-86116486D01*
X169114957Y-85965243D01*
X168908769Y-85851890D01*
X168684491Y-85780745D01*
X168450666Y-85754518D01*
X168433833Y-85754400D01*
X168422167Y-85754400D01*
X168187998Y-85777360D01*
X167962749Y-85845367D01*
X167754998Y-85955830D01*
X167572660Y-86104542D01*
X167422679Y-86285837D01*
X167310769Y-86492811D01*
X167241191Y-86717580D01*
X167216596Y-86951583D01*
X167237921Y-87185907D01*
X167304354Y-87411626D01*
X167309391Y-87421260D01*
X166963514Y-87767137D01*
X166783315Y-87767137D01*
X166893321Y-87634163D01*
X167005231Y-87427189D01*
X167074809Y-87202420D01*
X167099404Y-86968417D01*
X167078079Y-86734093D01*
X167011646Y-86508374D01*
X166902636Y-86299858D01*
X166771523Y-86136786D01*
X167169272Y-86136786D01*
X167211315Y-86132664D01*
X167253375Y-86128984D01*
X167255682Y-86128314D01*
X167258076Y-86128079D01*
X167298472Y-86115882D01*
X167339062Y-86104090D01*
X167341201Y-86102981D01*
X167343497Y-86102288D01*
X167380768Y-86082471D01*
X167418281Y-86063026D01*
X167420157Y-86061528D01*
X167422283Y-86060398D01*
X167455056Y-86033669D01*
X167488015Y-86007358D01*
X167491357Y-86004063D01*
X167491431Y-86004002D01*
X167491488Y-86003933D01*
X167492561Y-86002875D01*
X167962487Y-85532949D01*
X168171509Y-85599255D01*
X168405334Y-85625482D01*
X168422167Y-85625600D01*
X168433833Y-85625600D01*
X168668002Y-85602640D01*
X168893251Y-85534633D01*
X169101002Y-85424170D01*
X169283340Y-85275458D01*
X169433321Y-85094163D01*
X169545231Y-84887189D01*
X169614809Y-84662420D01*
X169639404Y-84428417D01*
X169618079Y-84194093D01*
X169551646Y-83968374D01*
X169442636Y-83759858D01*
X169295201Y-83576486D01*
X169114957Y-83425243D01*
X168908769Y-83311890D01*
X168821109Y-83284083D01*
X169073413Y-83189156D01*
X169316415Y-83038087D01*
X169525276Y-82842514D01*
X169691969Y-82609952D01*
X169810089Y-82349338D01*
X169837910Y-82257607D01*
X169726286Y-82032400D01*
X168580400Y-82032400D01*
X168580400Y-82052400D01*
X168275600Y-82052400D01*
X168275600Y-82032400D01*
X168255600Y-82032400D01*
X168255600Y-81727600D01*
X168275600Y-81727600D01*
X168275600Y-81707600D01*
X168580400Y-81707600D01*
X168580400Y-81727600D01*
X169726286Y-81727600D01*
X169837910Y-81502393D01*
X169810089Y-81410662D01*
X169691969Y-81150048D01*
X169525276Y-80917486D01*
X169316415Y-80721913D01*
X169073413Y-80570844D01*
X168821842Y-80476193D01*
X168893251Y-80454633D01*
X169101002Y-80344170D01*
X169283340Y-80195458D01*
X169433321Y-80014163D01*
X169545231Y-79807189D01*
X169614809Y-79582420D01*
X169639404Y-79348417D01*
X169618079Y-79114093D01*
X169551646Y-78888374D01*
X169442636Y-78679858D01*
X169295201Y-78496486D01*
X169114957Y-78345243D01*
X168908769Y-78231890D01*
X168684491Y-78160745D01*
X168450666Y-78134518D01*
X168433833Y-78134400D01*
X168422167Y-78134400D01*
X168187998Y-78157360D01*
X167962749Y-78225367D01*
X167754998Y-78335830D01*
X167572660Y-78484542D01*
X167422679Y-78665837D01*
X167310769Y-78872811D01*
X167241191Y-79097580D01*
X167216596Y-79331583D01*
X167237921Y-79565907D01*
X167304354Y-79791626D01*
X167413364Y-80000142D01*
X167560799Y-80183514D01*
X167741043Y-80334757D01*
X167947231Y-80448110D01*
X168034891Y-80475917D01*
X167782587Y-80570844D01*
X167539585Y-80721913D01*
X167330724Y-80917486D01*
X167164031Y-81150048D01*
X167045911Y-81410662D01*
X167025876Y-81476722D01*
X167011646Y-81428374D01*
X166902636Y-81219858D01*
X166755201Y-81036486D01*
X166574957Y-80885243D01*
X166368769Y-80771890D01*
X166144491Y-80700745D01*
X165910666Y-80674518D01*
X165893833Y-80674400D01*
X165882167Y-80674400D01*
X165647998Y-80697360D01*
X165422749Y-80765367D01*
X165214998Y-80875830D01*
X165032660Y-81024542D01*
X164882679Y-81205837D01*
X164770769Y-81412811D01*
X164701191Y-81637580D01*
X164676596Y-81871583D01*
X164697921Y-82105907D01*
X164764354Y-82331626D01*
X164773089Y-82348333D01*
X164679242Y-82442180D01*
X164652440Y-82474808D01*
X164625289Y-82507166D01*
X164624131Y-82509272D01*
X164622605Y-82511130D01*
X164602661Y-82548325D01*
X164582302Y-82585359D01*
X164581574Y-82587654D01*
X164580440Y-82589769D01*
X164568089Y-82630166D01*
X164555322Y-82670412D01*
X164555055Y-82672795D01*
X164554350Y-82675100D01*
X164550071Y-82717226D01*
X164545376Y-82759085D01*
X164545343Y-82763775D01*
X164545333Y-82763873D01*
X164545342Y-82763964D01*
X164545331Y-82765469D01*
X164545331Y-83264260D01*
X163430791Y-84378800D01*
X156184562Y-84378800D01*
X155857819Y-84052057D01*
X155857819Y-79331583D01*
X164676596Y-79331583D01*
X164697921Y-79565907D01*
X164764354Y-79791626D01*
X164873364Y-80000142D01*
X165020799Y-80183514D01*
X165201043Y-80334757D01*
X165407231Y-80448110D01*
X165631509Y-80519255D01*
X165865334Y-80545482D01*
X165882167Y-80545600D01*
X165893833Y-80545600D01*
X166128002Y-80522640D01*
X166353251Y-80454633D01*
X166561002Y-80344170D01*
X166743340Y-80195458D01*
X166893321Y-80014163D01*
X167005231Y-79807189D01*
X167074809Y-79582420D01*
X167099404Y-79348417D01*
X167078079Y-79114093D01*
X167011646Y-78888374D01*
X166902636Y-78679858D01*
X166755201Y-78496486D01*
X166574957Y-78345243D01*
X166368769Y-78231890D01*
X166144491Y-78160745D01*
X165910666Y-78134518D01*
X165893833Y-78134400D01*
X165882167Y-78134400D01*
X165647998Y-78157360D01*
X165422749Y-78225367D01*
X165214998Y-78335830D01*
X165032660Y-78484542D01*
X164882679Y-78665837D01*
X164770769Y-78872811D01*
X164701191Y-79097580D01*
X164676596Y-79331583D01*
X155857819Y-79331583D01*
X155857819Y-75950000D01*
X164680680Y-75950000D01*
X164680680Y-77650000D01*
X164685196Y-77706628D01*
X164714940Y-77802675D01*
X164770264Y-77886633D01*
X164846788Y-77951854D01*
X164938453Y-77993173D01*
X165038000Y-78007320D01*
X166738000Y-78007320D01*
X166794628Y-78002804D01*
X166890675Y-77973060D01*
X166974633Y-77917736D01*
X167039854Y-77841212D01*
X167081173Y-77749547D01*
X167095320Y-77650000D01*
X167095320Y-76791583D01*
X167216596Y-76791583D01*
X167237921Y-77025907D01*
X167304354Y-77251626D01*
X167413364Y-77460142D01*
X167560799Y-77643514D01*
X167741043Y-77794757D01*
X167947231Y-77908110D01*
X168171509Y-77979255D01*
X168405334Y-78005482D01*
X168422167Y-78005600D01*
X168433833Y-78005600D01*
X168668002Y-77982640D01*
X168893251Y-77914633D01*
X169101002Y-77804170D01*
X169283340Y-77655458D01*
X169433321Y-77474163D01*
X169545231Y-77267189D01*
X169614809Y-77042420D01*
X169639404Y-76808417D01*
X169618079Y-76574093D01*
X169551646Y-76348374D01*
X169442636Y-76139858D01*
X169295201Y-75956486D01*
X169114957Y-75805243D01*
X168908769Y-75691890D01*
X168684491Y-75620745D01*
X168450666Y-75594518D01*
X168433833Y-75594400D01*
X168422167Y-75594400D01*
X168187998Y-75617360D01*
X167962749Y-75685367D01*
X167754998Y-75795830D01*
X167572660Y-75944542D01*
X167422679Y-76125837D01*
X167310769Y-76332811D01*
X167241191Y-76557580D01*
X167216596Y-76791583D01*
X167095320Y-76791583D01*
X167095320Y-75950000D01*
X167090804Y-75893372D01*
X167061060Y-75797325D01*
X167005736Y-75713367D01*
X166929212Y-75648146D01*
X166837547Y-75606827D01*
X166738000Y-75592680D01*
X165038000Y-75592680D01*
X164981372Y-75597196D01*
X164885325Y-75626940D01*
X164801367Y-75682264D01*
X164736146Y-75758788D01*
X164694827Y-75850453D01*
X164680680Y-75950000D01*
X155857819Y-75950000D01*
X155857819Y-68420010D01*
X155853696Y-68377963D01*
X155850017Y-68335908D01*
X155849347Y-68333601D01*
X155849112Y-68331206D01*
X155836912Y-68290797D01*
X155825123Y-68250220D01*
X155824014Y-68248081D01*
X155823321Y-68245785D01*
X155803504Y-68208514D01*
X155784059Y-68171001D01*
X155782561Y-68169125D01*
X155781431Y-68166999D01*
X155754702Y-68134226D01*
X155728391Y-68101267D01*
X155725096Y-68097925D01*
X155725035Y-68097851D01*
X155724966Y-68097794D01*
X155723908Y-68096721D01*
X155291619Y-67664432D01*
X166469830Y-67664432D01*
X166539061Y-68041644D01*
X166680242Y-68398226D01*
X166887994Y-68720594D01*
X167154404Y-68996470D01*
X167469326Y-69215346D01*
X167820762Y-69368885D01*
X168195329Y-69451239D01*
X168578758Y-69459270D01*
X168956444Y-69392674D01*
X169314002Y-69253986D01*
X169637813Y-69048490D01*
X169915542Y-68784012D01*
X170136611Y-68470626D01*
X170292600Y-68120270D01*
X170377567Y-67746288D01*
X170383684Y-67308244D01*
X170309192Y-66932035D01*
X170163047Y-66577459D01*
X169950814Y-66258023D01*
X169680578Y-65985894D01*
X169362631Y-65771436D01*
X169009085Y-65622819D01*
X168633405Y-65545703D01*
X168249901Y-65543025D01*
X167873182Y-65614889D01*
X167517595Y-65758555D01*
X167196685Y-65968553D01*
X166922675Y-66236882D01*
X166706003Y-66553324D01*
X166554921Y-66905824D01*
X166475184Y-67280957D01*
X166469830Y-67664432D01*
X155291619Y-67664432D01*
X154225609Y-66598422D01*
X154192981Y-66571620D01*
X154160623Y-66544469D01*
X154158517Y-66543311D01*
X154156659Y-66541785D01*
X154119464Y-66521841D01*
X154082430Y-66501482D01*
X154080135Y-66500754D01*
X154078020Y-66499620D01*
X154037623Y-66487269D01*
X153997377Y-66474502D01*
X153994994Y-66474235D01*
X153992689Y-66473530D01*
X153950563Y-66469251D01*
X153908704Y-66464556D01*
X153904014Y-66464523D01*
X153903916Y-66464513D01*
X153903825Y-66464522D01*
X153902320Y-66464511D01*
X139529794Y-66464511D01*
X139487751Y-66468633D01*
X139445691Y-66472313D01*
X139443384Y-66472983D01*
X139440990Y-66473218D01*
X139400594Y-66485415D01*
X139360004Y-66497207D01*
X139357865Y-66498316D01*
X139355569Y-66499009D01*
X139318298Y-66518826D01*
X139280785Y-66538271D01*
X139278909Y-66539769D01*
X139276783Y-66540899D01*
X139243979Y-66567653D01*
X139211051Y-66593940D01*
X139207711Y-66597233D01*
X139207635Y-66597295D01*
X139207577Y-66597365D01*
X139206505Y-66598422D01*
X137678213Y-68126714D01*
X137651411Y-68159342D01*
X137624260Y-68191700D01*
X137623102Y-68193806D01*
X137621576Y-68195664D01*
X137601632Y-68232859D01*
X137581273Y-68269893D01*
X137580545Y-68272188D01*
X137579411Y-68274303D01*
X137567060Y-68314700D01*
X137554293Y-68354946D01*
X137554026Y-68357329D01*
X137553321Y-68359634D01*
X137549042Y-68401760D01*
X137544347Y-68443619D01*
X137544314Y-68448309D01*
X137544304Y-68448407D01*
X137544313Y-68448498D01*
X137544302Y-68450003D01*
X137544302Y-74910439D01*
X137548424Y-74952482D01*
X137552104Y-74994542D01*
X137552774Y-74996849D01*
X137553009Y-74999243D01*
X137565206Y-75039639D01*
X137576998Y-75080229D01*
X137578107Y-75082368D01*
X137578800Y-75084664D01*
X137598617Y-75121935D01*
X137618062Y-75159448D01*
X137619560Y-75161324D01*
X137620690Y-75163450D01*
X137647419Y-75196223D01*
X137673730Y-75229182D01*
X137677025Y-75232524D01*
X137677086Y-75232598D01*
X137677155Y-75232655D01*
X137678213Y-75233728D01*
X137718800Y-75274315D01*
X137718800Y-75723366D01*
X137667657Y-75773449D01*
X137594487Y-75880311D01*
X137543467Y-75999349D01*
X137516541Y-76126030D01*
X137514732Y-76255528D01*
X122858600Y-76255528D01*
X122858600Y-67664432D01*
X124469830Y-67664432D01*
X124539061Y-68041644D01*
X124680242Y-68398226D01*
X124887994Y-68720594D01*
X125154404Y-68996470D01*
X125469326Y-69215346D01*
X125820762Y-69368885D01*
X126195329Y-69451239D01*
X126578758Y-69459270D01*
X126956444Y-69392674D01*
X127314002Y-69253986D01*
X127637813Y-69048490D01*
X127915542Y-68784012D01*
X128136611Y-68470626D01*
X128292600Y-68120270D01*
X128377567Y-67746288D01*
X128383684Y-67308244D01*
X128309192Y-66932035D01*
X128163047Y-66577459D01*
X127950814Y-66258023D01*
X127680578Y-65985894D01*
X127362631Y-65771436D01*
X127009085Y-65622819D01*
X126633405Y-65545703D01*
X126249901Y-65543025D01*
X125873182Y-65614889D01*
X125517595Y-65758555D01*
X125196685Y-65968553D01*
X124922675Y-66236882D01*
X124706003Y-66553324D01*
X124554921Y-66905824D01*
X124475184Y-67280957D01*
X124469830Y-67664432D01*
X122858600Y-67664432D01*
X122858600Y-63930600D01*
X171997400Y-63930600D01*
X171997400Y-134069400D01*
M02*
