M48
;DRILL file {KiCad 4.0.7-e2-6376~61~ubuntu18.04.1} date Sat Nov 30 19:21:47 2019
;FORMAT={-:-/ absolute / inch / decimal}
FMAT,2
INCH,TZ
T1C0.010
T2C0.018
T3C0.039
T4C0.055
T5C0.083
T6C0.035
T7C0.126
%
G90
G05
M72
T1
X5.01Y-3.24
X5.05Y-3.24
X5.05Y-3.53
X5.08Y-3.64
X5.44Y-3.
X5.47Y-2.98
X5.49Y-2.91
X5.49Y-2.95
X5.54Y-2.85
X5.6Y-2.77
X5.64Y-2.77
X5.68Y-2.78
X5.73Y-3.06
X5.74Y-3.02
X5.76Y-2.89
X5.77Y-2.99
X5.78Y-3.1
X5.8Y-2.96
X5.8Y-3.44
X5.82Y-2.93
X5.83Y-3.46
X5.86Y-3.44
T2
X5.05Y-3.69
X5.17Y-3.7
X5.17Y-3.79
X5.34Y-3.6
X5.38Y-3.33
X5.655Y-3.1
X5.67Y-4.2454
X5.68Y-2.9
X5.72Y-3.4
X5.74Y-3.1
X5.77Y-3.26
X5.79Y-4.4
X6.1Y-3.64
T3
X5.7058Y-4.1732
X5.8043Y-4.1732
X5.9027Y-4.1732
X6.531Y-3.0236
X6.531Y-3.1236
X6.531Y-3.2236
X6.531Y-3.3236
X6.531Y-3.4236
X6.531Y-3.5236
X6.531Y-3.6236
X6.531Y-3.7236
X6.531Y-3.8236
X6.531Y-3.9236
X6.631Y-3.0236
X6.631Y-3.1236
X6.631Y-3.2236
X6.631Y-3.3236
X6.631Y-3.4236
X6.631Y-3.5236
X6.631Y-3.6236
X6.631Y-3.7236
X6.631Y-3.8236
X6.631Y-3.9236
T4
X5.4873Y-4.6654
X5.4873Y-5.1378
X5.8338Y-4.6654
X5.8338Y-5.1378
X6.1212Y-4.6654
X6.1212Y-5.1378
T5
X5.5838Y-3.878
X6.0247Y-3.878
T6
X5.0134Y-5.0921
X5.1866Y-5.0921
T7
X4.9775Y-2.6575
X4.9775Y-4.311
X6.631Y-2.6575
X6.631Y-4.311
T0
M30
